<svg xmlns="http://www.w3.org/2000/svg" xmlns:xlink="http://www.w3.org/1999/xlink" width="500" zoomAndPan="magnify" viewBox="0 0 375 374.999991" height="500" preserveAspectRatio="xMidYMid meet" version="1.0"><defs><g/><clipPath id="45da1c4857"><path d="M 0 16 L 324 16 L 324 350 L 0 350 Z M 0 16 " clip-rule="nonzero"/></clipPath><clipPath id="935a73cca6"><path d="M 164.976562 -17.863281 L 323.496094 93.097656 L 131.679688 367.136719 L -26.84375 256.171875 Z M 164.976562 -17.863281 " clip-rule="nonzero"/></clipPath><clipPath id="4f8c2f0f05"><path d="M 119.636719 -49.601562 L 393.671875 142.21875 L 201.851562 416.253906 L -72.183594 224.4375 Z M 119.636719 -49.601562 " clip-rule="nonzero"/></clipPath><clipPath id="6faeeb3448"><path d="M 204 201 L 343 201 L 343 375 L 204 375 Z M 204 201 " clip-rule="nonzero"/></clipPath><clipPath id="f0c2c98949"><path d="M 187.5 177.578125 L 373.644531 162.542969 L 390.1875 367.375 L 204.042969 382.410156 Z M 187.5 177.578125 " clip-rule="nonzero"/></clipPath><clipPath id="29e0012d79"><path d="M 187.5 177.578125 L 373.644531 162.542969 L 390.1875 367.375 L 204.042969 382.410156 Z M 187.5 177.578125 " clip-rule="nonzero"/></clipPath><clipPath id="b0cc6b4394"><path d="M 190.523438 212.140625 L 341.816406 199.921875 L 355.570312 370.191406 L 204.277344 382.410156 Z M 190.523438 212.140625 " clip-rule="nonzero"/></clipPath><clipPath id="0631ff1c63"><path d="M 215 350 L 281 350 L 281 365 L 215 365 Z M 215 350 " clip-rule="nonzero"/></clipPath><clipPath id="00d355a577"><path d="M 187.5 177.578125 L 373.644531 162.542969 L 390.1875 367.375 L 204.042969 382.410156 Z M 187.5 177.578125 " clip-rule="nonzero"/></clipPath><clipPath id="ef1ce7f05f"><path d="M 187.5 177.578125 L 373.644531 162.542969 L 390.1875 367.375 L 204.042969 382.410156 Z M 187.5 177.578125 " clip-rule="nonzero"/></clipPath><clipPath id="5573372d32"><path d="M 228 331 L 311 331 L 311 350 L 228 350 Z M 228 331 " clip-rule="nonzero"/></clipPath><clipPath id="23fdc82d1d"><path d="M 187.5 177.578125 L 373.644531 162.542969 L 390.1875 367.375 L 204.042969 382.410156 Z M 187.5 177.578125 " clip-rule="nonzero"/></clipPath><clipPath id="ec5d4cc394"><path d="M 187.5 177.578125 L 373.644531 162.542969 L 390.1875 367.375 L 204.042969 382.410156 Z M 187.5 177.578125 " clip-rule="nonzero"/></clipPath><clipPath id="7589f2bdbe"><path d="M 254 319 L 313 319 L 313 334 L 254 334 Z M 254 319 " clip-rule="nonzero"/></clipPath><clipPath id="8f1393ea5c"><path d="M 187.5 177.578125 L 373.644531 162.542969 L 390.1875 367.375 L 204.042969 382.410156 Z M 187.5 177.578125 " clip-rule="nonzero"/></clipPath><clipPath id="091b90531c"><path d="M 187.5 177.578125 L 373.644531 162.542969 L 390.1875 367.375 L 204.042969 382.410156 Z M 187.5 177.578125 " clip-rule="nonzero"/></clipPath><clipPath id="acdf9f9e72"><path d="M 279 306 L 338 306 L 338 322 L 279 322 Z M 279 306 " clip-rule="nonzero"/></clipPath><clipPath id="64d63b3dd7"><path d="M 187.5 177.578125 L 373.644531 162.542969 L 390.1875 367.375 L 204.042969 382.410156 Z M 187.5 177.578125 " clip-rule="nonzero"/></clipPath><clipPath id="74a5df3ab9"><path d="M 187.5 177.578125 L 373.644531 162.542969 L 390.1875 367.375 L 204.042969 382.410156 Z M 187.5 177.578125 " clip-rule="nonzero"/></clipPath><clipPath id="40808a36d7"><path d="M 296 292 L 354 292 L 354 305 L 296 305 Z M 296 292 " clip-rule="nonzero"/></clipPath><clipPath id="2eb755a2c1"><path d="M 187.5 177.578125 L 373.644531 162.542969 L 390.1875 367.375 L 204.042969 382.410156 Z M 187.5 177.578125 " clip-rule="nonzero"/></clipPath><clipPath id="a743923493"><path d="M 187.5 177.578125 L 373.644531 162.542969 L 390.1875 367.375 L 204.042969 382.410156 Z M 187.5 177.578125 " clip-rule="nonzero"/></clipPath><clipPath id="4713a97a83"><path d="M 307 273 L 362 273 L 362 294 L 307 294 Z M 307 273 " clip-rule="nonzero"/></clipPath><clipPath id="001b8706c1"><path d="M 187.5 177.578125 L 373.644531 162.542969 L 390.1875 367.375 L 204.042969 382.410156 Z M 187.5 177.578125 " clip-rule="nonzero"/></clipPath><clipPath id="87ead97df2"><path d="M 187.5 177.578125 L 373.644531 162.542969 L 390.1875 367.375 L 204.042969 382.410156 Z M 187.5 177.578125 " clip-rule="nonzero"/></clipPath><clipPath id="0d7f9a2584"><path d="M 323 258 L 367 258 L 367 276 L 323 276 Z M 323 258 " clip-rule="nonzero"/></clipPath><clipPath id="a28b03840b"><path d="M 187.5 177.578125 L 373.644531 162.542969 L 390.1875 367.375 L 204.042969 382.410156 Z M 187.5 177.578125 " clip-rule="nonzero"/></clipPath><clipPath id="442f66c107"><path d="M 187.5 177.578125 L 373.644531 162.542969 L 390.1875 367.375 L 204.042969 382.410156 Z M 187.5 177.578125 " clip-rule="nonzero"/></clipPath><clipPath id="22c1e4db1f"><path d="M 330 246 L 374 246 L 374 264 L 330 264 Z M 330 246 " clip-rule="nonzero"/></clipPath><clipPath id="ec46f24816"><path d="M 187.5 177.578125 L 373.644531 162.542969 L 390.1875 367.375 L 204.042969 382.410156 Z M 187.5 177.578125 " clip-rule="nonzero"/></clipPath><clipPath id="2929b1cbdc"><path d="M 187.5 177.578125 L 373.644531 162.542969 L 390.1875 367.375 L 204.042969 382.410156 Z M 187.5 177.578125 " clip-rule="nonzero"/></clipPath><clipPath id="ef4d4f0fc8"><path d="M 334 231 L 375 231 L 375 253 L 334 253 Z M 334 231 " clip-rule="nonzero"/></clipPath><clipPath id="3084e870ea"><path d="M 187.5 177.578125 L 373.644531 162.542969 L 390.1875 367.375 L 204.042969 382.410156 Z M 187.5 177.578125 " clip-rule="nonzero"/></clipPath><clipPath id="2ecd1b59b7"><path d="M 187.5 177.578125 L 373.644531 162.542969 L 390.1875 367.375 L 204.042969 382.410156 Z M 187.5 177.578125 " clip-rule="nonzero"/></clipPath><clipPath id="c4d9cca51c"><path d="M 338 216 L 375 216 L 375 242 L 338 242 Z M 338 216 " clip-rule="nonzero"/></clipPath><clipPath id="333a20fa54"><path d="M 187.5 177.578125 L 373.644531 162.542969 L 390.1875 367.375 L 204.042969 382.410156 Z M 187.5 177.578125 " clip-rule="nonzero"/></clipPath><clipPath id="16574d7ae1"><path d="M 187.5 177.578125 L 373.644531 162.542969 L 390.1875 367.375 L 204.042969 382.410156 Z M 187.5 177.578125 " clip-rule="nonzero"/></clipPath><clipPath id="c5215b9a55"><path d="M 336.125 219.234375 L 377.707031 215.875 L 379.570312 238.929688 L 337.988281 242.289062 Z M 336.125 219.234375 " clip-rule="nonzero"/></clipPath><clipPath id="99e8b0dcb5"><path d="M 340 197 L 370 197 L 370 235 L 340 235 Z M 340 197 " clip-rule="nonzero"/></clipPath><clipPath id="2dae4d2445"><path d="M 187.5 177.578125 L 373.644531 162.542969 L 390.1875 367.375 L 204.042969 382.410156 Z M 187.5 177.578125 " clip-rule="nonzero"/></clipPath><clipPath id="1a6f949da7"><path d="M 187.5 177.578125 L 373.644531 162.542969 L 390.1875 367.375 L 204.042969 382.410156 Z M 187.5 177.578125 " clip-rule="nonzero"/></clipPath><clipPath id="7f20adc422"><path d="M 342 189 L 363 189 L 363 224 L 342 224 Z M 342 189 " clip-rule="nonzero"/></clipPath><clipPath id="5252dd0e25"><path d="M 187.5 177.578125 L 373.644531 162.542969 L 390.1875 367.375 L 204.042969 382.410156 Z M 187.5 177.578125 " clip-rule="nonzero"/></clipPath><clipPath id="76be56c143"><path d="M 187.5 177.578125 L 373.644531 162.542969 L 390.1875 367.375 L 204.042969 382.410156 Z M 187.5 177.578125 " clip-rule="nonzero"/></clipPath><clipPath id="1f8eebe103"><path d="M 217 354 L 260 354 L 260 366 L 217 366 Z M 217 354 " clip-rule="nonzero"/></clipPath><clipPath id="90eb5c5104"><path d="M 187.5 177.578125 L 373.644531 162.542969 L 390.1875 367.375 L 204.042969 382.410156 Z M 187.5 177.578125 " clip-rule="nonzero"/></clipPath><clipPath id="90fceb628f"><path d="M 187.5 177.578125 L 373.644531 162.542969 L 390.1875 367.375 L 204.042969 382.410156 Z M 187.5 177.578125 " clip-rule="nonzero"/></clipPath><clipPath id="e874190414"><path d="M 210 305 L 225 305 L 225 359 L 210 359 Z M 210 305 " clip-rule="nonzero"/></clipPath><clipPath id="978a682321"><path d="M 187.5 177.578125 L 373.644531 162.542969 L 390.1875 367.375 L 204.042969 382.410156 Z M 187.5 177.578125 " clip-rule="nonzero"/></clipPath><clipPath id="53cac95c0d"><path d="M 187.5 177.578125 L 373.644531 162.542969 L 390.1875 367.375 L 204.042969 382.410156 Z M 187.5 177.578125 " clip-rule="nonzero"/></clipPath><clipPath id="c26d4034a9"><path d="M 206 317 L 221 317 L 221 360 L 206 360 Z M 206 317 " clip-rule="nonzero"/></clipPath><clipPath id="3ae8aa224a"><path d="M 187.5 177.578125 L 373.644531 162.542969 L 390.1875 367.375 L 204.042969 382.410156 Z M 187.5 177.578125 " clip-rule="nonzero"/></clipPath><clipPath id="2ec590ac5c"><path d="M 187.5 177.578125 L 373.644531 162.542969 L 390.1875 367.375 L 204.042969 382.410156 Z M 187.5 177.578125 " clip-rule="nonzero"/></clipPath><clipPath id="ee872b9693"><path d="M 224 292 L 238 292 L 238 348 L 224 348 Z M 224 292 " clip-rule="nonzero"/></clipPath><clipPath id="129986ec4b"><path d="M 187.5 177.578125 L 373.644531 162.542969 L 390.1875 367.375 L 204.042969 382.410156 Z M 187.5 177.578125 " clip-rule="nonzero"/></clipPath><clipPath id="1a290e602a"><path d="M 187.5 177.578125 L 373.644531 162.542969 L 390.1875 367.375 L 204.042969 382.410156 Z M 187.5 177.578125 " clip-rule="nonzero"/></clipPath><clipPath id="5686e1453e"><path d="M 239 280 L 257 280 L 257 336 L 239 336 Z M 239 280 " clip-rule="nonzero"/></clipPath><clipPath id="8a0ea82245"><path d="M 187.5 177.578125 L 373.644531 162.542969 L 390.1875 367.375 L 204.042969 382.410156 Z M 187.5 177.578125 " clip-rule="nonzero"/></clipPath><clipPath id="6d61f9e596"><path d="M 187.5 177.578125 L 373.644531 162.542969 L 390.1875 367.375 L 204.042969 382.410156 Z M 187.5 177.578125 " clip-rule="nonzero"/></clipPath><clipPath id="0ba3e7c13f"><path d="M 253 273 L 271 273 L 271 329 L 253 329 Z M 253 273 " clip-rule="nonzero"/></clipPath><clipPath id="7af481f873"><path d="M 187.5 177.578125 L 373.644531 162.542969 L 390.1875 367.375 L 204.042969 382.410156 Z M 187.5 177.578125 " clip-rule="nonzero"/></clipPath><clipPath id="20f98395d4"><path d="M 187.5 177.578125 L 373.644531 162.542969 L 390.1875 367.375 L 204.042969 382.410156 Z M 187.5 177.578125 " clip-rule="nonzero"/></clipPath><clipPath id="7870da8675"><path d="M 278 251 L 294 251 L 294 309 L 278 309 Z M 278 251 " clip-rule="nonzero"/></clipPath><clipPath id="7286c9ec41"><path d="M 187.5 177.578125 L 373.644531 162.542969 L 390.1875 367.375 L 204.042969 382.410156 Z M 187.5 177.578125 " clip-rule="nonzero"/></clipPath><clipPath id="42c4b221da"><path d="M 187.5 177.578125 L 373.644531 162.542969 L 390.1875 367.375 L 204.042969 382.410156 Z M 187.5 177.578125 " clip-rule="nonzero"/></clipPath><clipPath id="95efa9cb9d"><path d="M 290 245 L 304 245 L 304 303 L 290 303 Z M 290 245 " clip-rule="nonzero"/></clipPath><clipPath id="bc6f9a47f3"><path d="M 187.5 177.578125 L 373.644531 162.542969 L 390.1875 367.375 L 204.042969 382.410156 Z M 187.5 177.578125 " clip-rule="nonzero"/></clipPath><clipPath id="293e8edd65"><path d="M 187.5 177.578125 L 373.644531 162.542969 L 390.1875 367.375 L 204.042969 382.410156 Z M 187.5 177.578125 " clip-rule="nonzero"/></clipPath><clipPath id="f5de31ed5c"><path d="M 301 241 L 316 241 L 316 290 L 301 290 Z M 301 241 " clip-rule="nonzero"/></clipPath><clipPath id="f49d93f994"><path d="M 187.5 177.578125 L 373.644531 162.542969 L 390.1875 367.375 L 204.042969 382.410156 Z M 187.5 177.578125 " clip-rule="nonzero"/></clipPath><clipPath id="44e4c0dbe5"><path d="M 187.5 177.578125 L 373.644531 162.542969 L 390.1875 367.375 L 204.042969 382.410156 Z M 187.5 177.578125 " clip-rule="nonzero"/></clipPath><clipPath id="889f51143b"><path d="M 308 228 L 327 228 L 327 275 L 308 275 Z M 308 228 " clip-rule="nonzero"/></clipPath><clipPath id="a00f5aa1d0"><path d="M 187.5 177.578125 L 373.644531 162.542969 L 390.1875 367.375 L 204.042969 382.410156 Z M 187.5 177.578125 " clip-rule="nonzero"/></clipPath><clipPath id="e064fbafe7"><path d="M 187.5 177.578125 L 373.644531 162.542969 L 390.1875 367.375 L 204.042969 382.410156 Z M 187.5 177.578125 " clip-rule="nonzero"/></clipPath><clipPath id="b1fff49340"><path d="M 316 202 L 341 202 L 341 231 L 316 231 Z M 316 202 " clip-rule="nonzero"/></clipPath><clipPath id="5a0c82b5ea"><path d="M 187.5 177.578125 L 373.644531 162.542969 L 390.1875 367.375 L 204.042969 382.410156 Z M 187.5 177.578125 " clip-rule="nonzero"/></clipPath><clipPath id="3d3f2c1978"><path d="M 187.5 177.578125 L 373.644531 162.542969 L 390.1875 367.375 L 204.042969 382.410156 Z M 187.5 177.578125 " clip-rule="nonzero"/></clipPath><clipPath id="713c32d4d6"><path d="M 318 196 L 343 196 L 343 225 L 318 225 Z M 318 196 " clip-rule="nonzero"/></clipPath><clipPath id="44f473a598"><path d="M 187.5 177.578125 L 373.644531 162.542969 L 390.1875 367.375 L 204.042969 382.410156 Z M 187.5 177.578125 " clip-rule="nonzero"/></clipPath><clipPath id="bec5c8ec17"><path d="M 187.5 177.578125 L 373.644531 162.542969 L 390.1875 367.375 L 204.042969 382.410156 Z M 187.5 177.578125 " clip-rule="nonzero"/></clipPath><clipPath id="34e28d77af"><path d="M 314 214 L 338 214 L 338 243 L 314 243 Z M 314 214 " clip-rule="nonzero"/></clipPath><clipPath id="b9564a420a"><path d="M 187.5 177.578125 L 373.644531 162.542969 L 390.1875 367.375 L 204.042969 382.410156 Z M 187.5 177.578125 " clip-rule="nonzero"/></clipPath><clipPath id="3a03a44699"><path d="M 187.5 177.578125 L 373.644531 162.542969 L 390.1875 367.375 L 204.042969 382.410156 Z M 187.5 177.578125 " clip-rule="nonzero"/></clipPath><clipPath id="ff74396bde"><path d="M 312 226 L 333 226 L 333 257 L 312 257 Z M 312 226 " clip-rule="nonzero"/></clipPath><clipPath id="f9424ddf78"><path d="M 187.5 177.578125 L 373.644531 162.542969 L 390.1875 367.375 L 204.042969 382.410156 Z M 187.5 177.578125 " clip-rule="nonzero"/></clipPath><clipPath id="769ca49f54"><path d="M 187.5 177.578125 L 373.644531 162.542969 L 390.1875 367.375 L 204.042969 382.410156 Z M 187.5 177.578125 " clip-rule="nonzero"/></clipPath><clipPath id="e55c8e880b"><path d="M 268 272 L 279 272 L 279 320 L 268 320 Z M 268 272 " clip-rule="nonzero"/></clipPath><clipPath id="d997676986"><path d="M 187.5 177.578125 L 373.644531 162.542969 L 390.1875 367.375 L 204.042969 382.410156 Z M 187.5 177.578125 " clip-rule="nonzero"/></clipPath><clipPath id="d91e214c6d"><path d="M 187.5 177.578125 L 373.644531 162.542969 L 390.1875 367.375 L 204.042969 382.410156 Z M 187.5 177.578125 " clip-rule="nonzero"/></clipPath><clipPath id="35fff6dfcd"><path d="M 323 165 L 353 165 L 353 213 L 323 213 Z M 323 165 " clip-rule="nonzero"/></clipPath><clipPath id="7dd864ae00"><path d="M 187.5 177.578125 L 373.644531 162.542969 L 390.1875 367.375 L 204.042969 382.410156 Z M 187.5 177.578125 " clip-rule="nonzero"/></clipPath><clipPath id="8e810b6973"><path d="M 187.5 177.578125 L 373.644531 162.542969 L 390.1875 367.375 L 204.042969 382.410156 Z M 187.5 177.578125 " clip-rule="nonzero"/></clipPath><clipPath id="8a2109316a"><path d="M 329 180 L 350 180 L 350 213 L 329 213 Z M 329 180 " clip-rule="nonzero"/></clipPath><clipPath id="2511807a5f"><path d="M 187.5 177.578125 L 373.644531 162.542969 L 390.1875 367.375 L 204.042969 382.410156 Z M 187.5 177.578125 " clip-rule="nonzero"/></clipPath><clipPath id="c3722c1871"><path d="M 187.5 177.578125 L 373.644531 162.542969 L 390.1875 367.375 L 204.042969 382.410156 Z M 187.5 177.578125 " clip-rule="nonzero"/></clipPath><clipPath id="d7569a8835"><path d="M 342 198 L 352 198 L 352 217 L 342 217 Z M 342 198 " clip-rule="nonzero"/></clipPath><clipPath id="c6e387953e"><path d="M 187.5 177.578125 L 373.644531 162.542969 L 390.1875 367.375 L 204.042969 382.410156 Z M 187.5 177.578125 " clip-rule="nonzero"/></clipPath><clipPath id="d26907a29d"><path d="M 187.5 177.578125 L 373.644531 162.542969 L 390.1875 367.375 L 204.042969 382.410156 Z M 187.5 177.578125 " clip-rule="nonzero"/></clipPath></defs><rect x="-37.5" width="450" fill="#ffffff" y="-37.499999" height="449.999989" fill-opacity="1"/><rect x="-37.5" width="450" fill="#0c4a6e" y="-37.499999" height="449.999989" fill-opacity="1"/><g clip-path="url(#45da1c4857)"><g clip-path="url(#935a73cca6)"><g clip-path="url(#4f8c2f0f05)"><path fill="#f8f7f4" d="M 263.679688 309.761719 C 251.929688 319.15625 238.773438 326.664062 224.960938 332.390625 C 213.640625 336.992188 201.929688 340.574219 189.957031 342.902344 C 188.371094 343.253906 186.753906 343.433594 185.152344 343.691406 C 183.546875 343.921875 181.945312 344.203125 180.335938 344.398438 L 175.492188 344.910156 L 173.070312 345.167969 L 170.640625 345.3125 L 165.78125 345.625 C 164.160156 345.691406 162.539062 345.691406 160.914062 345.734375 C 157.667969 345.871094 154.425781 345.722656 151.175781 345.675781 C 150.707031 345.667969 150.21875 345.65625 149.707031 345.648438 C 149.195312 345.613281 148.667969 345.578125 148.113281 345.539062 C 147.011719 345.460938 145.824219 345.375 144.5625 345.28125 C 142.03125 345.15625 139.222656 344.738281 136.140625 344.363281 C 135.371094 344.257812 134.582031 344.179688 133.78125 344.046875 C 132.988281 343.90625 132.175781 343.761719 131.347656 343.613281 C 129.695312 343.316406 127.984375 343.007812 126.214844 342.691406 C 122.730469 341.84375 118.976562 341.132812 115.164062 339.949219 C 99.757812 335.804688 82.492188 327.824219 67.054688 317.113281 C 51.707031 306.273438 38.296875 292.785156 29.128906 279.726562 C 26.710938 276.550781 24.757812 273.269531 22.769531 270.28125 C 21.867188 268.730469 20.992188 267.226562 20.148438 265.773438 C 19.726562 265.046875 19.3125 264.335938 18.90625 263.636719 C 18.507812 262.933594 18.164062 262.214844 17.804688 261.53125 C 16.394531 258.761719 15.039062 256.265625 14.054688 253.929688 C 13.539062 252.773438 13.050781 251.6875 12.597656 250.679688 C 12.375 250.175781 12.15625 249.691406 11.949219 249.222656 C 11.765625 248.746094 11.589844 248.289062 11.421875 247.855469 C 6.894531 236.523438 3.398438 224.796875 1.148438 212.808594 C -1.117188 200.011719 -1.800781 186.976562 -1.351562 173.976562 C -0.699219 159.035156 1.847656 144.105469 6.652344 129.847656 C 11.289062 115.53125 18.273438 101.992188 26.824219 89.542969 C 35.589844 77.25 45.921875 66.050781 57.789062 56.796875 C 69.539062 47.402344 82.695312 39.894531 96.511719 34.167969 C 107.828125 29.5625 119.539062 25.984375 131.511719 23.65625 C 133.097656 23.300781 134.714844 23.125 136.316406 22.867188 C 137.925781 22.632812 139.523438 22.351562 141.136719 22.15625 L 145.976562 21.648438 L 148.398438 21.390625 L 150.828125 21.242188 L 155.6875 20.933594 C 157.308594 20.867188 158.933594 20.867188 160.554688 20.824219 C 163.800781 20.683594 167.046875 20.835938 170.296875 20.878906 C 170.761719 20.890625 171.253906 20.898438 171.761719 20.910156 C 172.273438 20.945312 172.800781 20.980469 173.355469 21.019531 C 174.457031 21.097656 175.644531 21.183594 176.90625 21.277344 C 179.4375 21.402344 182.246094 21.816406 185.332031 22.195312 C 186.097656 22.300781 186.890625 22.378906 187.6875 22.511719 C 188.484375 22.652344 189.292969 22.796875 190.121094 22.945312 C 191.773438 23.242188 193.488281 23.550781 195.253906 23.867188 C 198.738281 24.710938 202.492188 25.425781 206.304688 26.605469 C 221.714844 30.753906 238.976562 38.734375 254.414062 49.445312 C 269.761719 60.28125 283.171875 73.773438 292.339844 86.832031 C 294.757812 90.007812 296.710938 93.289062 298.699219 96.277344 C 299.601562 97.828125 300.476562 99.332031 301.324219 100.78125 C 301.746094 101.507812 302.160156 102.222656 302.566406 102.921875 C 302.960938 103.625 303.304688 104.339844 303.667969 105.027344 C 305.078125 107.792969 306.429688 110.292969 307.414062 112.628906 C 307.933594 113.78125 308.417969 114.867188 308.871094 115.875 C 309.09375 116.382812 309.3125 116.867188 309.519531 117.335938 C 309.703125 117.8125 309.878906 118.269531 310.050781 118.703125 C 314.574219 130.035156 318.074219 141.757812 320.320312 153.75 C 322.585938 166.542969 323.269531 179.582031 322.820312 192.578125 C 322.171875 207.519531 319.621094 222.453125 314.816406 236.710938 C 310.183594 251.027344 303.195312 264.566406 294.644531 277.011719 C 285.878906 289.308594 275.546875 300.507812 263.679688 309.761719 Z M 297.785156 279.078125 L 297.792969 279.0625 C 306.519531 266.355469 313.667969 252.527344 318.425781 237.898438 C 323.347656 223.332031 325.957031 208.066406 326.578125 192.796875 L 326.746094 185.640625 C 326.746094 185.640625 326.726562 183.667969 326.699219 180.714844 C 326.75 177.753906 326.40625 173.824219 326.207031 169.890625 C 325.765625 165.976562 325.464844 162.046875 324.9375 159.140625 C 324.484375 156.222656 324.183594 154.277344 324.183594 154.277344 C 324.183594 154.277344 324.105469 153.789062 323.9375 152.945312 C 323.773438 152.101562 323.539062 150.894531 323.257812 149.445312 C 322.769531 146.527344 321.765625 142.722656 320.84375 138.894531 C 320.324219 136.996094 319.742188 135.117188 319.226562 133.34375 C 318.964844 132.457031 318.710938 131.601562 318.46875 130.789062 C 318.191406 129.992188 317.929688 129.238281 317.6875 128.539062 C 316.714844 125.75 316.066406 123.890625 316.066406 123.890625 C 316.066406 123.890625 315.945312 123.460938 315.691406 122.839844 C 315.449219 122.214844 315.125 121.382812 314.804688 120.550781 C 314.15625 118.882812 313.511719 117.214844 313.511719 117.214844 C 313.339844 116.769531 313.160156 116.300781 312.972656 115.8125 C 312.761719 115.335938 312.542969 114.835938 312.3125 114.320312 C 311.851562 113.285156 311.355469 112.175781 310.832031 110.992188 C 309.824219 108.601562 308.445312 106.039062 307.003906 103.207031 C 306.636719 102.503906 306.285156 101.773438 305.878906 101.050781 C 305.464844 100.332031 305.042969 99.601562 304.613281 98.859375 C 303.75 97.375 302.855469 95.832031 301.933594 94.242188 C 299.902344 91.183594 297.898438 87.824219 295.433594 84.570312 C 286.054688 71.199219 272.328125 57.375 256.625 46.289062 C 240.832031 35.328125 223.148438 27.164062 207.371094 22.929688 C 203.46875 21.726562 199.625 20.992188 196.054688 20.132812 C 194.246094 19.808594 192.496094 19.496094 190.800781 19.195312 C 189.957031 19.046875 189.125 18.898438 188.308594 18.753906 C 187.492188 18.621094 186.683594 18.539062 185.898438 18.433594 C 182.742188 18.050781 179.867188 17.632812 177.273438 17.507812 C 175.984375 17.414062 174.769531 17.332031 173.640625 17.253906 C 173.078125 17.214844 172.53125 17.179688 172.011719 17.144531 C 171.488281 17.136719 170.988281 17.125 170.507812 17.117188 C 170.507812 17.117188 168.722656 17.082031 166.933594 17.042969 C 166.039062 17.027344 165.148438 17.007812 164.476562 16.996094 C 163.808594 16.96875 163.363281 17 163.363281 17 C 163.363281 17 161.394531 17.027344 158.441406 17.070312 C 157.703125 17.082031 156.902344 17.09375 156.058594 17.105469 C 155.210938 17.15625 154.324219 17.210938 153.402344 17.269531 C 151.558594 17.390625 149.59375 17.484375 147.632812 17.648438 C 143.71875 18.09375 139.800781 18.453125 136.890625 18.992188 C 135.433594 19.222656 134.21875 19.417969 133.367188 19.550781 C 132.519531 19.683594 132.035156 19.777344 132.035156 19.777344 C 132.035156 19.777344 130.105469 20.160156 127.207031 20.734375 C 124.292969 21.230469 120.5 22.296875 116.671875 23.21875 C 112.90625 24.378906 109.09375 25.402344 106.332031 26.464844 C 103.546875 27.449219 101.6875 28.105469 101.6875 28.105469 L 95.023438 30.714844 C 80.886719 36.523438 67.4375 44.203125 55.433594 53.8125 C 43.320312 63.289062 32.773438 74.738281 23.820312 87.292969 L 23.808594 87.300781 L 23.683594 87.480469 L 23.679688 87.492188 C 14.949219 100.203125 7.800781 114.03125 3.046875 128.660156 C -1.878906 143.222656 -4.488281 158.492188 -5.109375 173.761719 L -5.277344 180.917969 C -5.277344 180.917969 -5.257812 182.886719 -5.226562 185.84375 C -5.277344 188.804688 -4.9375 192.730469 -4.738281 196.667969 C -4.296875 200.578125 -3.996094 204.507812 -3.464844 207.417969 C -3.015625 210.335938 -2.714844 212.28125 -2.714844 212.28125 C -2.714844 212.28125 -2.632812 212.765625 -2.46875 213.609375 C -2.304688 214.457031 -2.070312 215.664062 -1.789062 217.113281 C -1.300781 220.03125 -0.296875 223.835938 0.625 227.664062 C 1.144531 229.5625 1.730469 231.441406 2.242188 233.214844 C 2.503906 234.101562 2.757812 234.953125 3 235.765625 C 3.277344 236.566406 3.539062 237.320312 3.785156 238.015625 C 4.753906 240.808594 5.402344 242.664062 5.402344 242.664062 C 5.402344 242.664062 5.523438 243.097656 5.777344 243.714844 C 6.019531 244.34375 6.34375 245.175781 6.664062 246.007812 C 7.3125 247.675781 7.960938 249.339844 7.960938 249.339844 C 8.132812 249.789062 8.308594 250.257812 8.496094 250.742188 C 8.707031 251.222656 8.929688 251.71875 9.15625 252.238281 C 9.617188 253.273438 10.113281 254.382812 10.640625 255.566406 C 11.644531 257.957031 13.023438 260.515625 14.464844 263.347656 C 14.832031 264.054688 15.183594 264.785156 15.589844 265.507812 C 16.003906 266.222656 16.425781 266.953125 16.855469 267.699219 C 17.71875 269.183594 18.613281 270.726562 19.539062 272.3125 C 21.566406 275.375 23.570312 278.730469 26.035156 281.988281 C 35.417969 295.359375 49.140625 309.179688 64.84375 320.269531 C 80.636719 331.230469 98.324219 339.390625 114.101562 343.628906 C 118 344.832031 121.84375 345.5625 125.414062 346.421875 C 127.222656 346.746094 128.976562 347.0625 130.667969 347.363281 C 131.515625 347.511719 132.347656 347.660156 133.160156 347.804688 C 133.976562 347.9375 134.785156 348.015625 135.574219 348.121094 C 138.726562 348.507812 141.605469 348.925781 144.195312 349.050781 C 145.488281 349.140625 146.699219 349.226562 147.828125 349.304688 C 148.394531 349.34375 148.9375 349.378906 149.457031 349.414062 C 149.984375 349.421875 150.484375 349.429688 150.960938 349.4375 C 150.960938 349.4375 152.746094 349.476562 154.535156 349.511719 C 155.429688 349.53125 156.320312 349.550781 156.992188 349.5625 C 157.660156 349.589844 158.105469 349.554688 158.105469 349.554688 C 158.105469 349.554688 160.074219 349.527344 163.027344 349.484375 C 163.769531 349.476562 164.566406 349.464844 165.414062 349.453125 C 166.257812 349.398438 167.148438 349.34375 168.066406 349.289062 C 169.910156 349.164062 171.875 349.070312 173.839844 348.910156 C 177.75 348.464844 181.671875 348.105469 184.578125 347.566406 C 186.035156 347.335938 187.25 347.140625 188.101562 347.003906 C 188.953125 346.871094 189.433594 346.78125 189.433594 346.78125 C 189.433594 346.78125 191.367188 346.398438 194.261719 345.824219 C 197.175781 345.324219 200.972656 344.261719 204.800781 343.339844 C 208.5625 342.179688 212.375 341.152344 215.136719 340.09375 C 217.925781 339.109375 219.78125 338.453125 219.78125 338.453125 L 226.445312 335.84375 C 240.582031 330.035156 254.035156 322.355469 266.035156 312.746094 C 278.152344 303.269531 288.695312 291.820312 297.648438 279.265625 L 297.660156 279.257812 L 297.785156 279.078125 " fill-opacity="1" fill-rule="nonzero"/></g></g></g><g clip-path="url(#6faeeb3448)"><g clip-path="url(#f0c2c98949)"><g clip-path="url(#29e0012d79)"><g clip-path="url(#b0cc6b4394)"><path fill="#f8f7f4" d="M 204.277344 382.410156 C 207.800781 372.996094 212.355469 363.894531 218.261719 355.65625 C 224.238281 347.492188 231.59375 340.238281 240.171875 334.710938 C 244.433594 331.925781 249.0625 329.683594 253.5625 327.535156 C 258.070312 325.335938 262.535156 323.054688 266.957031 320.691406 C 275.773438 315.941406 284.382812 310.796875 292.394531 304.855469 C 300.46875 299.007812 307.976562 292.355469 314.410156 284.765625 C 320.9375 277.242188 326.152344 268.664062 330.488281 259.703125 C 338.996094 241.664062 342.75 221.363281 341.195312 201.296875 C 342.5 211.273438 342.34375 221.460938 340.886719 231.472656 C 339.265625 241.449219 336.492188 251.285156 332.328125 260.539062 C 328.207031 269.8125 322.808594 278.546875 316.242188 286.3125 C 309.722656 294.125 302.121094 300.976562 293.945312 306.972656 C 285.75 312.953125 277 318.085938 268.078125 322.804688 C 263.605469 325.148438 259.089844 327.40625 254.546875 329.578125 C 249.972656 331.757812 245.480469 333.800781 241.242188 336.414062 C 232.757812 341.59375 225.398438 348.527344 219.289062 356.425781 C 213.113281 364.300781 208.34375 373.214844 204.277344 382.410156 " fill-opacity="1" fill-rule="nonzero"/></g></g></g></g><g clip-path="url(#0631ff1c63)"><g clip-path="url(#00d355a577)"><g clip-path="url(#ef1ce7f05f)"><path fill="#f8f7f4" d="M 226.90625 359.351562 C 224.992188 359.175781 223.054688 359.304688 221.175781 359.671875 C 219.296875 360.042969 217.457031 360.652344 215.796875 361.589844 L 215.703125 361.429688 C 218.019531 360.101562 219.679688 357.96875 221.601562 356.113281 C 223.53125 354.203125 226.023438 352.984375 228.503906 351.988281 C 233.527344 350.027344 239.210938 349.621094 244.507812 350.9375 C 249.808594 352.1875 254.625 354.652344 259.628906 356.167969 C 262.125 356.914062 264.679688 357.5 267.246094 357.640625 C 269.800781 357.777344 272.378906 357.445312 274.699219 356.4375 L 280.707031 353.820312 L 275.472656 357.726562 C 272.023438 360.300781 268.113281 362.214844 264.007812 363.367188 C 259.910156 364.542969 255.652344 365.078125 251.417969 364.957031 C 247.183594 364.878906 243 364.117188 238.964844 362.914062 C 234.945312 361.703125 231.113281 359.816406 226.90625 359.351562 Z M 226.90625 359.351562 C 231.117188 359.753906 235 361.582031 239.023438 362.722656 C 243.050781 363.902344 247.253906 364.441406 251.425781 364.355469 C 255.597656 364.308594 259.746094 363.609375 263.679688 362.304688 C 267.625 361.035156 271.273438 358.996094 274.546875 356.527344 L 275.320312 357.820312 C 272.757812 358.984375 269.917969 359.386719 267.167969 359.277344 C 264.40625 359.183594 261.707031 358.605469 259.128906 357.761719 C 253.972656 356.066406 249.222656 353.632812 244.175781 352.246094 C 239.167969 350.785156 233.726562 350.941406 228.742188 352.648438 C 226.269531 353.527344 223.808594 354.605469 221.855469 356.386719 C 219.871094 358.113281 218.171875 360.28125 215.796875 361.589844 L 215.703125 361.429688 C 217.40625 360.507812 219.269531 359.925781 221.164062 359.582031 C 223.054688 359.242188 224.996094 359.148438 226.90625 359.351562 " fill-opacity="1" fill-rule="nonzero"/></g></g></g><g clip-path="url(#5573372d32)"><g clip-path="url(#23fdc82d1d)"><g clip-path="url(#ec5d4cc394)"><path fill="#f8f7f4" d="M 242.757812 342.871094 C 240.359375 342.644531 237.933594 342.796875 235.574219 343.246094 C 233.222656 343.699219 230.902344 344.460938 228.824219 345.648438 L 228.738281 345.5 C 231.640625 343.820312 233.703125 341.132812 236.117188 338.8125 C 237.320312 337.644531 238.703125 336.605469 240.1875 335.804688 C 241.65625 334.976562 243.1875 334.253906 244.765625 333.648438 C 251.058594 331.191406 258.183594 330.683594 264.8125 332.324219 C 271.457031 333.894531 277.519531 336.925781 283.765625 338.871094 C 286.890625 339.828125 290.09375 340.546875 293.308594 340.707031 C 296.507812 340.863281 299.726562 340.445312 302.640625 339.199219 L 310.324219 335.921875 L 303.628906 340.855469 C 299.292969 344.054688 294.394531 346.460938 289.253906 347.90625 C 284.117188 349.382812 278.777344 350.046875 273.480469 349.894531 C 268.175781 349.796875 262.921875 348.855469 257.878906 347.3125 C 252.859375 345.757812 248.03125 343.449219 242.757812 342.871094 Z M 242.757812 342.871094 C 248.042969 343.382812 252.882812 345.730469 257.9375 347.121094 C 262.988281 348.574219 268.253906 349.253906 273.480469 349.140625 C 278.710938 349.082031 283.914062 348.207031 288.839844 346.574219 C 293.78125 344.980469 298.363281 342.429688 302.445312 339.320312 L 303.433594 340.976562 C 300.230469 342.460938 296.65625 342.957031 293.210938 342.804688 C 289.75 342.667969 286.371094 341.929688 283.136719 340.894531 C 276.652344 338.824219 270.722656 335.707031 264.398438 333.96875 C 258.125 332.140625 251.308594 332.332031 245.0625 334.476562 C 241.96875 335.574219 238.882812 336.921875 236.433594 339.160156 C 233.945312 341.328125 231.804688 344.027344 228.824219 345.648438 L 228.738281 345.5 C 230.878906 344.363281 233.199219 343.632812 235.566406 343.183594 C 237.9375 342.753906 240.363281 342.628906 242.757812 342.871094 " fill-opacity="1" fill-rule="nonzero"/></g></g></g><g clip-path="url(#7589f2bdbe)"><g clip-path="url(#8f1393ea5c)"><g clip-path="url(#091b90531c)"><path fill="#f8f7f4" d="M 264.675781 326.242188 C 261.375 325.582031 257.875 325.804688 254.765625 327.058594 L 254.699219 326.910156 C 256.851562 325.988281 258.519531 324.300781 260.386719 322.875 C 262.253906 321.40625 264.546875 320.601562 266.816406 319.988281 C 271.386719 318.792969 276.378906 319.011719 280.859375 320.695312 C 285.347656 322.320312 289.292969 324.960938 293.496094 326.789062 C 295.605469 327.691406 297.761719 328.460938 299.980469 328.84375 C 302.199219 329.226562 304.476562 329.195312 306.601562 328.554688 L 312.097656 326.886719 L 307.140625 329.757812 C 303.878906 331.644531 300.273438 332.917969 296.582031 333.503906 C 292.894531 334.113281 289.128906 334.144531 285.460938 333.609375 C 281.777344 333.113281 278.203125 332.023438 274.820312 330.566406 C 271.4375 329.105469 268.289062 327.078125 264.675781 326.242188 Z M 264.675781 326.242188 C 268.300781 327.011719 271.496094 329.003906 274.886719 330.40625 C 278.269531 331.84375 281.875 332.738281 285.519531 333.082031 C 289.160156 333.46875 292.847656 333.285156 296.402344 332.550781 C 299.972656 331.835938 303.355469 330.429688 306.460938 328.617188 L 307 329.820312 C 304.652344 330.574219 302.136719 330.636719 299.75 330.261719 C 297.355469 329.894531 295.0625 329.121094 292.902344 328.125 C 288.582031 326.128906 284.695312 323.523438 280.4375 321.800781 C 276.222656 320.023438 271.46875 319.609375 266.953125 320.589844 C 264.710938 321.097656 262.457031 321.785156 260.578125 323.144531 C 258.664062 324.449219 256.972656 326.160156 254.765625 327.058594 L 254.707031 326.910156 C 257.871094 325.691406 261.386719 325.53125 264.675781 326.242188 " fill-opacity="1" fill-rule="nonzero"/></g></g></g><g clip-path="url(#acdf9f9e72)"><g clip-path="url(#64d63b3dd7)"><g clip-path="url(#74a5df3ab9)"><path fill="#f8f7f4" d="M 289.722656 313.589844 C 286.429688 312.9375 282.925781 313.160156 279.8125 314.414062 L 279.757812 314.265625 C 281.90625 313.34375 283.566406 311.65625 285.433594 310.230469 C 287.304688 308.761719 289.597656 307.957031 291.863281 307.34375 C 296.4375 306.148438 301.433594 306.367188 305.910156 308.050781 C 310.402344 309.675781 314.34375 312.316406 318.546875 314.144531 C 320.652344 315.046875 322.8125 315.816406 325.035156 316.199219 C 327.246094 316.582031 329.527344 316.550781 331.652344 315.90625 L 337.152344 314.234375 L 332.191406 317.109375 C 328.933594 319 325.324219 320.269531 321.632812 320.859375 C 317.949219 321.46875 314.183594 321.5 310.507812 320.964844 C 306.828125 320.46875 303.253906 319.378906 299.867188 317.921875 C 296.488281 316.460938 293.34375 314.425781 289.722656 313.589844 Z M 289.722656 313.589844 C 293.355469 314.367188 296.550781 316.359375 299.933594 317.761719 C 303.320312 319.199219 306.925781 320.089844 310.570312 320.4375 C 314.214844 320.824219 317.898438 320.640625 321.453125 319.898438 C 325.023438 319.191406 328.410156 317.785156 331.507812 315.96875 L 332.046875 317.171875 C 329.699219 317.929688 327.183594 317.992188 324.804688 317.617188 C 322.40625 317.25 320.113281 316.476562 317.957031 315.480469 C 313.632812 313.484375 309.746094 310.878906 305.488281 309.15625 C 301.269531 307.378906 296.519531 306.960938 292.003906 307.9375 C 289.761719 308.453125 287.503906 309.140625 285.625 310.5 C 283.722656 311.804688 282.023438 313.515625 279.820312 314.414062 L 279.757812 314.265625 C 282.921875 313.046875 286.4375 312.886719 289.722656 313.589844 " fill-opacity="1" fill-rule="nonzero"/></g></g></g><g clip-path="url(#40808a36d7)"><g clip-path="url(#2eb755a2c1)"><g clip-path="url(#a743923493)"><path fill="#f8f7f4" d="M 306.085938 300.585938 C 302.734375 300.449219 299.304688 301.203125 296.425781 302.925781 L 296.34375 302.785156 C 298.324219 301.546875 299.710938 299.617188 301.335938 297.929688 C 302.960938 296.1875 305.101562 295.039062 307.246094 294.085938 C 311.578125 292.199219 316.546875 291.652344 321.226562 292.621094 C 325.917969 293.535156 330.222656 295.539062 334.660156 296.699219 C 336.875 297.265625 339.125 297.691406 341.375 297.730469 C 343.628906 297.765625 345.875 297.382812 347.875 296.421875 L 353.050781 293.925781 L 348.59375 297.527344 C 345.660156 299.898438 342.292969 301.707031 338.738281 302.855469 C 335.1875 304.027344 331.472656 304.636719 327.761719 304.671875 C 324.046875 304.75 320.351562 304.226562 316.78125 303.304688 C 313.210938 302.378906 309.792969 300.855469 306.085938 300.585938 Z M 306.085938 300.585938 C 309.796875 300.796875 313.257812 302.273438 316.824219 303.136719 C 320.386719 304.039062 324.089844 304.363281 327.742188 304.144531 C 331.398438 303.964844 335.011719 303.214844 338.414062 301.941406 C 341.832031 300.691406 344.957031 298.777344 347.742188 296.507812 L 348.460938 297.613281 C 346.253906 298.722656 343.78125 299.167969 341.367188 299.171875 C 338.945312 299.171875 336.558594 298.761719 334.273438 298.105469 C 329.699219 296.796875 325.457031 294.824219 320.980469 293.78125 C 316.546875 292.671875 311.785156 292.988281 307.472656 294.65625 C 305.335938 295.507812 303.214844 296.53125 301.5625 298.164062 C 299.882812 299.746094 298.46875 301.699219 296.425781 302.925781 L 296.34375 302.785156 C 299.285156 301.089844 302.734375 300.394531 306.085938 300.585938 " fill-opacity="1" fill-rule="nonzero"/></g></g></g><g clip-path="url(#4713a97a83)"><g clip-path="url(#001b8706c1)"><g clip-path="url(#87ead97df2)"><path fill="#f8f7f4" d="M 316.714844 289.570312 C 313.402344 290.144531 310.210938 291.609375 307.761719 293.898438 L 307.652344 293.78125 C 309.332031 292.144531 310.277344 289.972656 311.503906 287.976562 C 312.726562 285.925781 314.578125 284.355469 316.464844 282.96875 C 320.304688 280.210938 325.046875 278.621094 329.832031 278.582031 C 334.605469 278.488281 339.234375 279.53125 343.816406 279.726562 C 346.097656 279.816406 348.394531 279.761719 350.601562 279.316406 C 352.804688 278.878906 354.921875 278.03125 356.675781 276.667969 L 361.207031 273.132812 L 357.613281 277.59375 C 355.25 280.53125 352.339844 283.011719 349.109375 284.886719 C 345.878906 286.777344 342.382812 288.160156 338.761719 288.980469 C 335.148438 289.84375 331.425781 290.109375 327.738281 289.964844 C 324.054688 289.816406 320.390625 289.046875 316.714844 289.570312 Z M 316.714844 289.570312 C 320.378906 288.992188 324.078125 289.699219 327.746094 289.789062 C 331.421875 289.917969 335.105469 289.457031 338.628906 288.46875 C 342.167969 287.519531 345.542969 286.023438 348.59375 284.054688 C 351.671875 282.113281 354.324219 279.585938 356.566406 276.777344 L 357.503906 277.703125 C 355.582031 279.253906 353.253906 280.21875 350.898438 280.726562 C 348.53125 281.246094 346.109375 281.34375 343.738281 281.191406 C 338.988281 280.878906 334.425781 279.847656 329.832031 279.765625 C 325.257812 279.617188 320.675781 280.941406 316.8125 283.476562 C 314.90625 284.765625 313.050781 286.210938 311.78125 288.15625 C 310.464844 290.054688 309.5 292.265625 307.761719 293.898438 L 307.648438 293.777344 C 310.167969 291.5 313.390625 290.089844 316.714844 289.570312 " fill-opacity="1" fill-rule="nonzero"/></g></g></g><g clip-path="url(#0d7f9a2584)"><g clip-path="url(#a28b03840b)"><g clip-path="url(#442f66c107)"><path fill="#f8f7f4" d="M 330.453125 271.742188 C 327.78125 272.203125 325.203125 273.386719 323.222656 275.234375 L 323.132812 275.136719 C 324.488281 273.824219 325.253906 272.066406 326.246094 270.453125 C 327.230469 268.804688 328.722656 267.53125 330.253906 266.410156 C 333.351562 264.183594 337.179688 262.902344 341.042969 262.867188 C 344.898438 262.792969 348.640625 263.636719 352.339844 263.792969 C 355.996094 263.953125 359.859375 263.5625 362.726562 261.320312 L 366.398438 258.457031 L 363.484375 262.074219 C 361.574219 264.441406 359.226562 266.445312 356.613281 267.960938 C 354.011719 269.488281 351.183594 270.605469 348.257812 271.269531 C 345.339844 271.960938 342.332031 272.175781 339.355469 272.0625 C 336.382812 271.9375 333.421875 271.324219 330.453125 271.742188 Z M 330.453125 271.742188 C 333.417969 271.273438 336.402344 271.847656 339.359375 271.917969 C 342.332031 272.023438 345.308594 271.648438 348.15625 270.851562 C 351.007812 270.089844 353.734375 268.878906 356.203125 267.289062 C 358.6875 265.722656 360.828125 263.679688 362.640625 261.410156 L 363.394531 262.160156 C 361.84375 263.414062 359.96875 264.1875 358.0625 264.597656 C 356.148438 265.015625 354.195312 265.101562 352.28125 264.972656 C 348.441406 264.722656 344.757812 263.886719 341.046875 263.824219 C 337.355469 263.707031 333.648438 264.773438 330.53125 266.820312 C 328.992188 267.863281 327.492188 269.03125 326.46875 270.597656 C 325.40625 272.132812 324.628906 273.917969 323.222656 275.234375 L 323.132812 275.136719 C 325.167969 273.304688 327.773438 272.164062 330.453125 271.742188 " fill-opacity="1" fill-rule="nonzero"/></g></g></g><g clip-path="url(#22c1e4db1f)"><g clip-path="url(#ec46f24816)"><g clip-path="url(#2929b1cbdc)"><path fill="#f8f7f4" d="M 337.617188 260.078125 C 334.945312 260.539062 332.367188 261.71875 330.386719 263.566406 L 330.300781 263.480469 C 331.65625 262.15625 332.417969 260.402344 333.410156 258.792969 C 334.398438 257.136719 335.894531 255.867188 337.417969 254.746094 C 340.519531 252.519531 344.347656 251.234375 348.210938 251.199219 C 352.070312 251.125 355.808594 251.96875 359.503906 252.128906 C 363.160156 252.289062 367.027344 251.894531 369.894531 249.660156 L 373.5625 246.789062 L 370.648438 250.40625 C 368.738281 252.777344 366.390625 254.78125 363.785156 256.292969 C 361.175781 257.824219 358.347656 258.941406 355.421875 259.601562 C 352.503906 260.296875 349.496094 260.519531 346.519531 260.394531 C 343.546875 260.273438 340.585938 259.65625 337.617188 260.078125 Z M 337.617188 260.078125 C 340.582031 259.613281 343.566406 260.179688 346.523438 260.257812 C 349.496094 260.359375 352.472656 259.984375 355.320312 259.191406 C 358.175781 258.421875 360.902344 257.210938 363.367188 255.625 C 365.851562 254.058594 367.992188 252.015625 369.808594 249.746094 L 370.5625 250.496094 C 369.011719 251.746094 367.132812 252.523438 365.230469 252.9375 C 363.320312 253.351562 361.359375 253.4375 359.445312 253.308594 C 355.609375 253.054688 351.921875 252.222656 348.214844 252.15625 C 344.523438 252.042969 340.820312 253.105469 337.699219 255.152344 C 336.160156 256.195312 334.65625 257.367188 333.632812 258.933594 C 332.570312 260.46875 331.792969 262.253906 330.390625 263.566406 L 330.300781 263.480469 C 332.332031 261.636719 334.9375 260.5 337.617188 260.078125 " fill-opacity="1" fill-rule="nonzero"/></g></g></g><g clip-path="url(#ef4d4f0fc8)"><g clip-path="url(#3084e870ea)"><g clip-path="url(#2ecd1b59b7)"><path fill="#f8f7f4" d="M 341.894531 248.402344 C 339.285156 249.128906 336.835938 250.566406 335.058594 252.601562 L 334.960938 252.519531 C 336.175781 251.074219 336.757812 249.246094 337.582031 247.542969 C 338.394531 245.800781 339.753906 244.390625 341.164062 243.121094 C 344.023438 240.589844 347.703125 238.925781 351.542969 238.507812 C 355.375 238.046875 359.179688 238.507812 362.878906 238.292969 C 366.527344 238.085938 370.332031 237.300781 372.964844 234.789062 L 376.328125 231.566406 L 373.792969 235.457031 C 372.128906 238.007812 369.992188 240.242188 367.546875 242.007812 C 365.113281 243.789062 362.410156 245.1875 359.5625 246.136719 C 356.730469 247.125 353.765625 247.640625 350.789062 247.824219 C 347.816406 248.003906 344.8125 247.683594 341.894531 248.402344 Z M 341.894531 248.402344 C 344.796875 247.640625 347.828125 247.90625 350.777344 247.683594 C 353.742188 247.484375 356.667969 246.816406 359.425781 245.738281 C 362.183594 244.683594 364.777344 243.210938 367.070312 241.382812 C 369.382812 239.570312 371.308594 237.324219 372.886719 234.886719 L 373.710938 235.554688 C 372.292969 236.957031 370.503906 237.917969 368.648438 238.519531 C 366.789062 239.128906 364.855469 239.402344 362.933594 239.46875 C 359.09375 239.601562 355.339844 239.148438 351.644531 239.457031 C 347.957031 239.714844 344.378906 241.144531 341.484375 243.496094 C 340.054688 244.6875 338.675781 246 337.820312 247.667969 C 336.921875 249.296875 336.324219 251.152344 335.058594 252.601562 L 334.960938 252.519531 C 336.796875 250.484375 339.273438 249.089844 341.894531 248.402344 " fill-opacity="1" fill-rule="nonzero"/></g></g></g><g clip-path="url(#c4d9cca51c)"><g clip-path="url(#333a20fa54)"><g clip-path="url(#16574d7ae1)"><g clip-path="url(#c5215b9a55)"><path fill="#f8f7f4" d="M 345.171875 236.824219 C 342.644531 237.808594 340.347656 239.480469 338.777344 241.6875 L 338.671875 241.609375 C 339.738281 240.050781 340.136719 238.175781 340.789062 236.394531 C 341.429688 234.582031 342.644531 233.039062 343.917969 231.640625 C 346.515625 228.839844 350.011719 226.824219 353.792969 226.027344 C 357.554688 225.183594 361.390625 225.273438 365.050781 224.691406 C 368.65625 224.125 372.371094 222.96875 374.738281 220.207031 L 377.765625 216.667969 L 375.628906 220.789062 C 374.226562 223.492188 372.320312 225.925781 370.0625 227.925781 C 367.8125 229.941406 365.261719 231.597656 362.527344 232.828125 C 359.808594 234.085938 356.898438 234.898438 353.957031 235.371094 C 351.023438 235.84375 347.996094 235.824219 345.171875 236.824219 Z M 345.171875 236.824219 C 347.980469 235.777344 351.019531 235.746094 353.9375 235.234375 C 356.863281 234.742188 359.710938 233.785156 362.34375 232.441406 C 364.992188 231.121094 367.421875 229.394531 369.523438 227.351562 C 371.648438 225.320312 373.34375 222.894531 374.667969 220.3125 L 375.558594 220.898438 C 374.289062 222.429688 372.601562 223.5625 370.8125 224.339844 C 369.023438 225.136719 367.121094 225.601562 365.222656 225.859375 C 361.410156 226.371094 357.632812 226.289062 353.980469 226.964844 C 350.34375 227.582031 346.925781 229.359375 344.269531 231.984375 C 342.972656 233.308594 341.730469 234.757812 341.035156 236.496094 C 340.300781 238.210938 339.890625 240.117188 338.777344 241.6875 L 338.671875 241.609375 C 340.296875 239.40625 342.625 237.773438 345.171875 236.824219 " fill-opacity="1" fill-rule="nonzero"/></g></g></g></g><g clip-path="url(#99e8b0dcb5)"><g clip-path="url(#2dae4d2445)"><g clip-path="url(#1a6f949da7)"><path fill="#f8f7f4" d="M 345.414062 227.496094 C 343.339844 229.246094 341.707031 231.5625 340.933594 234.160156 L 340.804688 234.117188 C 341.308594 232.296875 341.085938 230.394531 341.132812 228.503906 C 341.152344 226.582031 341.804688 224.730469 342.558594 222.992188 C 344.117188 219.507812 346.777344 216.46875 350.097656 214.496094 C 353.394531 212.492188 357.046875 211.335938 360.324219 209.609375 C 363.5625 207.910156 366.703125 205.621094 368.058594 202.242188 L 369.78125 197.917969 L 369.085938 202.511719 C 368.632812 205.523438 367.609375 208.429688 366.117188 211.054688 C 364.636719 213.691406 362.753906 216.074219 360.5625 218.121094 C 358.390625 220.1875 355.902344 221.890625 353.273438 223.292969 C 350.640625 224.683594 347.769531 225.640625 345.414062 227.496094 Z M 345.414062 227.496094 C 347.742188 225.605469 350.605469 224.597656 353.207031 223.167969 C 355.820312 221.761719 358.207031 219.9375 360.261719 217.816406 C 362.339844 215.71875 364.089844 213.296875 365.425781 210.6875 C 366.777344 208.078125 367.601562 205.238281 368.023438 202.363281 L 369.058594 202.632812 C 368.347656 204.496094 367.113281 206.109375 365.671875 207.425781 C 364.230469 208.75 362.589844 209.800781 360.867188 210.660156 C 357.425781 212.371094 353.816406 213.503906 350.582031 215.320312 C 347.335938 217.082031 344.671875 219.863281 343.011719 223.203125 C 342.199219 224.878906 341.492188 226.648438 341.402344 228.519531 C 341.257812 230.375 341.480469 232.3125 340.933594 234.160156 L 340.804688 234.117188 C 341.636719 231.507812 343.308594 229.214844 345.414062 227.496094 " fill-opacity="1" fill-rule="nonzero"/></g></g></g><g clip-path="url(#7f20adc422)"><g clip-path="url(#5252dd0e25)"><g clip-path="url(#76be56c143)"><path fill="#f8f7f4" d="M 345.703125 217.597656 C 344.160156 219.332031 343.066406 221.5 342.730469 223.789062 L 342.621094 223.773438 C 342.820312 222.171875 342.398438 220.585938 342.199219 218.980469 C 341.984375 217.351562 342.304688 215.703125 342.726562 214.140625 C 343.609375 211 345.496094 208.097656 348.058594 206.015625 C 350.601562 203.90625 353.550781 202.484375 356.113281 200.617188 C 358.640625 198.777344 361.019531 196.449219 361.742188 193.429688 L 362.671875 189.550781 L 362.652344 193.523438 C 362.636719 196.132812 362.128906 198.722656 361.191406 201.125 C 360.265625 203.535156 358.96875 205.792969 357.363281 207.792969 C 355.78125 209.8125 353.886719 211.5625 351.828125 213.070312 C 349.773438 214.574219 347.464844 215.734375 345.703125 217.597656 Z M 345.703125 217.597656 C 347.4375 215.707031 349.742188 214.496094 351.757812 212.96875 C 353.800781 211.457031 355.59375 209.621094 357.074219 207.570312 C 358.574219 205.535156 359.757812 203.277344 360.5625 200.898438 C 361.382812 198.527344 361.730469 196.011719 361.734375 193.53125 L 362.636719 193.632812 C 361.855469 197 359.363281 199.585938 356.703125 201.4375 C 353.996094 203.3125 351.085938 204.71875 348.574219 206.65625 C 346.042969 208.542969 344.128906 211.230469 343.132812 214.265625 C 342.65625 215.777344 342.277344 217.367188 342.429688 218.957031 C 342.535156 220.550781 342.964844 222.160156 342.730469 223.789062 L 342.621094 223.773438 C 343 221.460938 344.136719 219.3125 345.703125 217.597656 " fill-opacity="1" fill-rule="nonzero"/></g></g></g><g clip-path="url(#1f8eebe103)"><g clip-path="url(#90eb5c5104)"><g clip-path="url(#90fceb628f)"><path fill="#f8f7f4" d="M 224.886719 359.746094 C 222.488281 359.226562 219.925781 359.34375 217.640625 360.222656 L 217.597656 360.113281 C 219.179688 359.464844 220.414062 358.253906 221.800781 357.234375 C 223.183594 356.183594 224.871094 355.628906 226.53125 355.207031 C 229.886719 354.390625 233.535156 354.617188 236.789062 355.902344 C 240.050781 357.144531 242.898438 359.125 245.949219 360.515625 C 248.960938 361.886719 252.335938 362.871094 255.503906 361.964844 L 259.550781 360.804688 L 255.882812 362.851562 C 253.472656 364.191406 250.820312 365.074219 248.121094 365.453125 C 245.417969 365.855469 242.664062 365.832031 239.988281 365.390625 C 237.300781 364.984375 234.707031 364.148438 232.25 363.039062 C 229.796875 361.925781 227.523438 360.398438 224.886719 359.746094 Z M 224.886719 359.746094 C 227.53125 360.359375 229.84375 361.855469 232.304688 362.917969 C 234.753906 364.011719 237.382812 364.714844 240.042969 365.015625 C 242.695312 365.335938 245.390625 365.25 248.003906 364.757812 C 250.617188 364.285156 253.109375 363.296875 255.394531 362.007812 L 255.777344 362.894531 C 252.269531 363.925781 248.582031 362.96875 245.5 361.480469 C 242.363281 359.964844 239.554688 358.011719 236.464844 356.703125 C 233.410156 355.347656 229.941406 354.988281 226.628906 355.644531 C 224.980469 355.992188 223.328125 356.464844 221.933594 357.433594 C 220.527344 358.363281 219.265625 359.59375 217.640625 360.222656 L 217.597656 360.113281 C 219.925781 359.261719 222.496094 359.191406 224.886719 359.746094 " fill-opacity="1" fill-rule="nonzero"/></g></g></g><g clip-path="url(#e874190414)"><g clip-path="url(#978a682321)"><g clip-path="url(#53cac95c0d)"><path fill="#f8f7f4" d="M 218.71875 349.039062 C 219.496094 351.996094 219.496094 355.207031 218.511719 358.136719 L 218.378906 358.085938 C 219.101562 356.042969 220.59375 354.425781 221.699219 352.636719 C 222.859375 350.875 223.394531 348.789062 223.773438 346.726562 C 224.480469 342.578125 223.910156 338.261719 222.117188 334.5 C 220.375 330.695312 217.847656 327.257812 215.855469 323.410156 C 214.855469 321.484375 214.054688 319.425781 213.625 317.261719 C 213.191406 315.101562 213.140625 312.8125 213.738281 310.640625 L 214.855469 311.082031 C 213.328125 313.980469 212.179688 317.121094 211.679688 320.398438 C 211.15625 323.667969 211.140625 327.03125 211.632812 330.332031 C 212.097656 333.636719 213.0625 336.878906 214.507812 339.90625 C 215.925781 342.929688 217.863281 345.757812 218.71875 349.039062 Z M 218.71875 349.039062 C 217.816406 345.773438 215.835938 342.996094 214.367188 339.972656 C 212.898438 336.949219 211.761719 333.742188 211.164062 330.410156 C 210.527344 327.089844 210.398438 323.664062 210.804688 320.277344 C 211.1875 316.890625 212.199219 313.558594 213.789062 310.511719 L 216.207031 305.863281 L 214.90625 310.953125 C 213.886719 314.929688 215.230469 319.109375 217.042969 322.808594 C 218.878906 326.5625 221.445312 330.050781 223.105469 334.074219 C 224.820312 338.082031 225.226562 342.617188 224.324219 346.828125 C 223.851562 348.917969 223.214844 351.039062 221.957031 352.804688 C 220.734375 354.558594 219.265625 356.144531 218.511719 358.136719 L 218.378906 358.089844 C 219.394531 355.210938 219.453125 352.011719 218.71875 349.039062 " fill-opacity="1" fill-rule="nonzero"/></g></g></g><g clip-path="url(#c26d4034a9)"><g clip-path="url(#3ae8aa224a)"><g clip-path="url(#2ec590ac5c)"><path fill="#f8f7f4" d="M 216.34375 351.945312 C 217.273438 354.214844 217.613281 356.765625 217.144531 359.199219 L 217.035156 359.171875 C 217.390625 357.472656 218.40625 356.03125 219.097656 354.492188 C 219.828125 352.960938 220.03125 351.25 220.109375 349.570312 C 220.234375 346.195312 219.316406 342.832031 217.492188 340.027344 C 215.707031 337.191406 213.324219 334.726562 211.332031 331.878906 C 209.367188 329.070312 207.835938 325.585938 208.289062 321.957031 L 209.226562 322.195312 C 208.320312 324.65625 207.742188 327.277344 207.699219 329.929688 C 207.628906 332.585938 207.96875 335.261719 208.714844 337.832031 C 209.4375 340.40625 210.546875 342.882812 212.019531 345.132812 C 213.46875 347.390625 215.3125 349.433594 216.34375 351.945312 Z M 216.34375 351.945312 C 215.273438 349.445312 213.402344 347.445312 211.910156 345.203125 C 210.425781 342.957031 209.183594 340.527344 208.351562 337.945312 C 207.492188 335.375 207.023438 332.660156 206.984375 329.925781 C 206.933594 327.199219 207.378906 324.4375 208.3125 321.847656 L 209.746094 317.898438 L 209.25 322.082031 C 208.867188 325.347656 210.378906 328.523438 212.214844 331.277344 C 214.078125 334.066406 216.480469 336.5625 218.234375 339.582031 C 220.023438 342.589844 220.824219 346.148438 220.558594 349.59375 C 220.410156 351.304688 220.125 353.054688 219.308594 354.59375 C 218.53125 356.117188 217.53125 357.535156 217.144531 359.199219 L 217.035156 359.171875 C 217.53125 356.777344 217.242188 354.226562 216.34375 351.945312 " fill-opacity="1" fill-rule="nonzero"/></g></g></g><g clip-path="url(#ee872b9693)"><g clip-path="url(#129986ec4b)"><g clip-path="url(#1a290e602a)"><path fill="#f8f7f4" d="M 228.855469 338.25 C 229.023438 341.527344 228.320312 344.886719 226.652344 347.746094 L 226.515625 347.660156 C 227.726562 345.675781 229.644531 344.308594 231.195312 342.675781 C 232.792969 341.082031 233.8125 339.015625 234.652344 336.9375 C 236.308594 332.742188 236.644531 328.097656 235.59375 323.761719 C 234.601562 319.390625 232.699219 315.238281 231.449219 310.769531 C 230.828125 308.535156 230.4375 306.203125 230.460938 303.839844 C 230.472656 301.480469 230.925781 299.070312 232.019531 296.925781 L 233.097656 297.640625 C 230.863281 300.339844 228.980469 303.382812 227.742188 306.707031 C 226.472656 310.015625 225.71875 313.535156 225.519531 317.105469 C 225.28125 320.664062 225.578125 324.277344 226.4375 327.761719 C 227.257812 331.246094 228.675781 334.632812 228.855469 338.25 Z M 228.855469 338.25 C 228.621094 334.636719 227.152344 331.289062 226.273438 327.800781 C 225.394531 324.316406 224.90625 320.707031 225.003906 317.082031 C 225.0625 313.460938 225.683594 309.839844 226.839844 306.382812 C 227.988281 302.917969 229.777344 299.644531 232.105469 296.800781 L 235.644531 292.476562 L 233.179688 297.507812 C 232.226562 299.453125 231.839844 301.644531 231.867188 303.839844 C 231.882812 306.035156 232.289062 308.234375 232.824219 310.402344 C 233.933594 314.738281 235.855469 318.949219 236.722656 323.53125 C 237.644531 328.105469 237.078125 332.945312 235.207031 337.164062 C 234.261719 339.25 233.132812 341.332031 231.421875 342.90625 C 229.761719 344.476562 227.875 345.816406 226.652344 347.746094 L 226.515625 347.660156 C 228.210938 344.867188 228.972656 341.523438 228.855469 338.25 " fill-opacity="1" fill-rule="nonzero"/></g></g></g><g clip-path="url(#5686e1453e)"><g clip-path="url(#8a0ea82245)"><g clip-path="url(#6d61f9e596)"><path fill="#f8f7f4" d="M 243.179688 326.292969 C 242.898438 329.640625 241.71875 332.957031 239.628906 335.628906 L 239.507812 335.523438 C 241.003906 333.679688 243.140625 332.558594 244.945312 331.109375 C 246.792969 329.707031 248.101562 327.75 249.25 325.757812 C 251.507812 321.722656 252.496094 317.054688 252.019531 312.503906 C 251.617188 307.933594 250.261719 303.453125 249.609375 298.734375 C 249.285156 296.382812 249.214844 293.964844 249.5625 291.5625 C 249.902344 289.171875 250.695312 286.785156 252.101562 284.761719 L 253.09375 285.628906 C 250.453125 288.066406 248.121094 290.890625 246.402344 294.101562 C 244.660156 297.289062 243.40625 300.761719 242.710938 304.351562 C 241.980469 307.941406 241.78125 311.648438 242.171875 315.304688 C 242.523438 318.953125 243.496094 322.59375 243.179688 326.292969 Z M 243.179688 326.292969 C 243.433594 322.585938 242.414062 318.984375 242 315.324219 C 241.589844 311.660156 241.59375 307.925781 242.191406 304.257812 C 242.75 300.59375 243.878906 297 245.539062 293.648438 C 247.175781 290.285156 249.445312 287.210938 252.203125 284.640625 L 256.398438 280.738281 L 253.199219 285.511719 C 251.957031 287.351562 251.269531 289.527344 250.988281 291.757812 C 250.703125 293.992188 250.8125 296.28125 251.058594 298.554688 C 251.582031 303.113281 252.957031 307.652344 253.203125 312.425781 C 253.503906 317.199219 252.261719 322.042969 249.785156 326.066406 C 248.535156 328.054688 247.09375 330.011719 245.140625 331.375 C 243.242188 332.742188 241.136719 333.839844 239.628906 335.628906 L 239.507812 335.53125 C 241.613281 332.925781 242.84375 329.636719 243.179688 326.292969 " fill-opacity="1" fill-rule="nonzero"/></g></g></g><g clip-path="url(#0ba3e7c13f)"><g clip-path="url(#7af481f873)"><g clip-path="url(#20f98395d4)"><path fill="#f8f7f4" d="M 256.8125 318.972656 C 256.535156 322.320312 255.355469 325.640625 253.261719 328.3125 L 253.140625 328.210938 C 254.640625 326.359375 256.773438 325.234375 258.578125 323.792969 C 260.425781 322.386719 261.742188 320.433594 262.882812 318.4375 C 265.140625 314.402344 266.128906 309.738281 265.660156 305.1875 C 265.25 300.617188 263.894531 296.132812 263.242188 291.417969 C 262.921875 289.058594 262.847656 286.640625 263.195312 284.246094 C 263.535156 281.855469 264.328125 279.46875 265.734375 277.441406 L 266.726562 278.308594 C 264.085938 280.746094 261.753906 283.574219 260.035156 286.777344 C 258.292969 289.96875 257.046875 293.4375 256.34375 297.035156 C 255.613281 300.617188 255.421875 304.328125 255.804688 307.984375 C 256.15625 311.632812 257.132812 315.269531 256.8125 318.972656 Z M 256.8125 318.972656 C 257.074219 315.269531 256.046875 311.664062 255.632812 308.003906 C 255.222656 304.339844 255.226562 300.605469 255.828125 296.941406 C 256.386719 293.269531 257.511719 289.679688 259.171875 286.328125 C 260.8125 282.972656 263.078125 279.894531 265.839844 277.324219 L 270.03125 273.417969 L 266.832031 278.191406 C 265.597656 280.035156 264.90625 282.210938 264.621094 284.4375 C 264.339844 286.675781 264.445312 288.964844 264.695312 291.238281 C 265.21875 295.792969 266.59375 300.335938 266.84375 305.105469 C 267.140625 309.878906 265.894531 314.722656 263.417969 318.746094 C 262.167969 320.734375 260.734375 322.691406 258.78125 324.054688 C 256.875 325.421875 254.769531 326.519531 253.261719 328.3125 L 253.140625 328.210938 C 255.246094 325.601562 256.480469 322.3125 256.8125 318.972656 " fill-opacity="1" fill-rule="nonzero"/></g></g></g><g clip-path="url(#7870da8675)"><g clip-path="url(#7286c9ec41)"><g clip-path="url(#42c4b221da)"><path fill="#f8f7f4" d="M 287.46875 298.804688 C 288.382812 302.035156 288.445312 305.558594 287.433594 308.789062 L 287.28125 308.738281 C 288.03125 306.480469 289.636719 304.679688 290.8125 302.691406 C 292.050781 300.730469 292.589844 298.4375 292.960938 296.167969 C 293.65625 291.597656 292.9375 286.878906 290.894531 282.789062 C 288.90625 278.652344 286.0625 274.933594 283.796875 270.746094 C 282.660156 268.65625 281.742188 266.414062 281.230469 264.050781 C 280.703125 261.695312 280.605469 259.183594 281.210938 256.789062 L 282.441406 257.25 C 280.832031 260.460938 279.640625 263.929688 279.160156 267.535156 C 278.652344 271.128906 278.699219 274.820312 279.316406 278.429688 C 279.890625 282.042969 281.007812 285.589844 282.660156 288.871094 C 284.277344 292.164062 286.464844 295.226562 287.46875 298.804688 Z M 287.46875 298.804688 C 286.40625 295.242188 284.179688 292.234375 282.503906 288.953125 C 280.832031 285.664062 279.519531 282.167969 278.796875 278.527344 C 278.027344 274.894531 277.820312 271.132812 278.191406 267.414062 C 278.542969 263.695312 279.582031 260.019531 281.265625 256.640625 L 283.8125 251.511719 L 282.496094 257.101562 C 281.992188 259.261719 282.109375 261.542969 282.628906 263.726562 C 283.148438 265.921875 284.054688 268.03125 285.085938 270.070312 C 287.183594 274.152344 290.066406 277.917969 291.972656 282.296875 C 293.933594 286.65625 294.476562 291.628906 293.570312 296.265625 C 293.097656 298.566406 292.441406 300.90625 291.09375 302.867188 C 289.789062 304.820312 288.210938 306.585938 287.433594 308.796875 L 287.28125 308.738281 C 288.332031 305.5625 288.332031 302.050781 287.46875 298.804688 " fill-opacity="1" fill-rule="nonzero"/></g></g></g><g clip-path="url(#95efa9cb9d)"><g clip-path="url(#bc6f9a47f3)"><g clip-path="url(#293e8edd65)"><path fill="#f8f7f4" d="M 295.808594 292.964844 C 296.140625 296.308594 295.585938 299.785156 294.015625 302.789062 L 293.875 302.71875 C 295.015625 300.625 296.910156 299.128906 298.417969 297.382812 C 299.980469 295.667969 300.914062 293.503906 301.679688 291.335938 C 303.167969 286.960938 303.292969 282.191406 302 277.804688 C 300.769531 273.375 298.625 269.222656 297.128906 264.703125 C 296.378906 262.445312 295.871094 260.078125 295.777344 257.65625 C 295.671875 255.246094 296.019531 252.753906 297.035156 250.5 L 298.171875 251.175781 C 296.019531 254.054688 294.238281 257.257812 293.128906 260.71875 C 291.992188 264.175781 291.394531 267.816406 291.363281 271.472656 C 291.296875 275.136719 291.777344 278.820312 292.824219 282.34375 C 293.835938 285.867188 295.453125 289.269531 295.808594 292.964844 Z M 295.808594 292.964844 C 295.390625 289.277344 293.726562 285.921875 292.652344 282.394531 C 291.585938 278.863281 290.910156 275.191406 290.835938 271.480469 C 290.71875 267.769531 291.175781 264.03125 292.199219 260.4375 C 293.199219 256.832031 294.867188 253.394531 297.113281 250.371094 L 300.527344 245.765625 L 298.25 251.042969 C 297.367188 253.082031 297.085938 255.339844 297.214844 257.585938 C 297.339844 259.835938 297.859375 262.070312 298.519531 264.261719 C 299.859375 268.644531 302.035156 272.867188 303.148438 277.507812 C 304.308594 282.148438 303.964844 287.132812 302.265625 291.542969 C 301.390625 293.726562 300.332031 295.914062 298.664062 297.605469 C 297.042969 299.292969 295.171875 300.761719 294.015625 302.789062 L 293.875 302.71875 C 295.472656 299.765625 296.089844 296.3125 295.808594 292.964844 " fill-opacity="1" fill-rule="nonzero"/></g></g></g><g clip-path="url(#f5de31ed5c)"><g clip-path="url(#f49d93f994)"><g clip-path="url(#44e4c0dbe5)"><path fill="#f8f7f4" d="M 310.464844 281.4375 C 311.398438 284.125 311.621094 287.097656 310.917969 289.890625 L 310.789062 289.851562 C 311.316406 287.90625 312.585938 286.300781 313.484375 284.5625 C 314.4375 282.84375 314.785156 280.878906 314.984375 278.933594 C 315.347656 275.035156 314.511719 271.082031 312.585938 267.71875 C 310.703125 264.3125 308.113281 261.304688 305.992188 257.875 C 304.933594 256.164062 304.042969 254.308594 303.492188 252.332031 C 302.9375 250.363281 302.730469 248.246094 303.128906 246.191406 L 304.195312 246.519531 C 302.984375 249.320312 302.148438 252.308594 301.914062 255.382812 C 301.660156 258.449219 301.882812 261.570312 302.574219 264.589844 C 303.238281 267.625 304.359375 270.566406 305.914062 273.265625 C 307.441406 275.976562 309.4375 278.460938 310.464844 281.4375 Z M 310.464844 281.4375 C 309.394531 278.476562 307.363281 276.039062 305.785156 273.339844 C 304.210938 270.640625 302.929688 267.746094 302.140625 264.699219 C 301.3125 261.664062 300.953125 258.496094 301.089844 255.328125 C 301.207031 252.164062 301.910156 248.996094 303.167969 246.0625 L 305.082031 241.585938 L 304.230469 246.398438 C 303.570312 250.15625 305.113281 253.933594 307.054688 257.238281 C 309.027344 260.585938 311.644531 263.636719 313.472656 267.25 C 315.34375 270.84375 316.042969 275.027344 315.503906 278.996094 C 315.214844 280.960938 314.777344 282.972656 313.734375 284.703125 C 312.726562 286.414062 311.472656 287.988281 310.917969 289.890625 L 310.785156 289.851562 C 311.523438 287.113281 311.351562 284.140625 310.464844 281.4375 " fill-opacity="1" fill-rule="nonzero"/></g></g></g><g clip-path="url(#889f51143b)"><g clip-path="url(#a00f5aa1d0)"><g clip-path="url(#e064fbafe7)"><path fill="#f8f7f4" d="M 321.605469 266.085938 C 322.882812 268.570312 323.515625 271.425781 323.21875 274.238281 L 323.089844 274.21875 C 323.332031 272.25 324.34375 270.519531 324.972656 268.703125 C 325.660156 266.902344 325.714844 264.941406 325.644531 263.027344 C 325.457031 259.191406 324.09375 255.464844 321.75 252.464844 C 319.449219 249.417969 316.515625 246.859375 313.976562 243.820312 C 312.703125 242.300781 311.589844 240.628906 310.777344 238.785156 C 309.960938 236.949219 309.460938 234.921875 309.5625 232.867188 L 310.648438 233.042969 C 309.859375 235.925781 309.460938 238.949219 309.664062 241.96875 C 309.84375 244.984375 310.496094 247.980469 311.589844 250.828125 C 312.660156 253.675781 314.152344 256.375 316.039062 258.785156 C 317.902344 261.199219 320.191406 263.335938 321.605469 266.085938 Z M 321.605469 266.085938 C 320.148438 263.359375 317.832031 261.273438 315.929688 258.871094 C 314.023438 256.472656 312.378906 253.839844 311.183594 250.992188 C 309.960938 248.15625 309.164062 245.125 308.859375 242.027344 C 308.53125 238.941406 308.773438 235.769531 309.582031 232.742188 L 310.816406 228.121094 L 310.664062 232.914062 C 310.542969 236.660156 312.566406 240.113281 314.917969 243.058594 C 317.292969 246.03125 320.269531 248.628906 322.546875 251.886719 C 324.867188 255.121094 326.125 259.078125 326.15625 263.015625 C 326.152344 264.964844 326.003906 266.976562 325.230469 268.800781 C 324.492188 270.605469 323.496094 272.3125 323.21875 274.238281 L 323.089844 274.21875 C 323.425781 271.449219 322.84375 268.589844 321.605469 266.085938 " fill-opacity="1" fill-rule="nonzero"/></g></g></g><g clip-path="url(#b1fff49340)"><g clip-path="url(#5a0c82b5ea)"><g clip-path="url(#3d3f2c1978)"><path fill="#f8f7f4" d="M 336.644531 225.175781 C 338.332031 226.488281 339.691406 228.265625 340.390625 230.304688 L 340.296875 230.335938 C 339.828125 228.894531 339.972656 227.371094 339.824219 225.910156 C 339.714844 224.433594 339.128906 223.058594 338.464844 221.753906 C 337.097656 219.148438 334.953125 217.007812 332.363281 215.679688 C 329.785156 214.3125 326.925781 213.480469 324.1875 212.195312 C 321.488281 210.921875 318.824219 208.949219 317.601562 206.019531 L 318.40625 205.789062 C 318.792969 208.039062 319.488281 210.265625 320.601562 212.296875 C 321.695312 214.328125 323.117188 216.199219 324.789062 217.816406 C 326.449219 219.449219 328.355469 220.839844 330.4375 221.902344 C 332.507812 222.980469 334.78125 223.722656 336.644531 225.175781 Z M 336.644531 225.175781 C 334.761719 223.75 332.484375 223.050781 330.386719 222.003906 C 328.292969 220.949219 326.304688 219.652344 324.558594 218.0625 C 321.054688 214.929688 318.390625 210.667969 317.574219 205.925781 L 316.953125 202.347656 L 318.382812 205.695312 C 319.5 208.328125 322.019531 210.074219 324.59375 211.355469 C 327.203125 212.65625 330.105469 213.5 332.730469 215.023438 C 335.378906 216.519531 337.527344 218.859375 338.8125 221.578125 C 339.4375 222.933594 339.984375 224.378906 340.03125 225.890625 C 340.101562 227.382812 339.964844 228.882812 340.390625 230.304688 L 340.296875 230.335938 C 339.632812 228.308594 338.308594 226.511719 336.644531 225.175781 " fill-opacity="1" fill-rule="nonzero"/></g></g></g><g clip-path="url(#713c32d4d6)"><g clip-path="url(#44f473a598)"><g clip-path="url(#bec5c8ec17)"><path fill="#f8f7f4" d="M 338.582031 219.09375 C 340.269531 220.40625 341.632812 222.183594 342.328125 224.222656 L 342.230469 224.253906 C 341.765625 222.8125 341.90625 221.289062 341.765625 219.828125 C 341.65625 218.351562 341.070312 216.976562 340.402344 215.671875 C 339.039062 213.074219 336.886719 210.925781 334.296875 209.605469 C 331.722656 208.230469 328.863281 207.398438 326.125 206.113281 C 323.421875 204.839844 320.757812 202.875 319.535156 199.9375 L 320.34375 199.707031 C 320.726562 201.957031 321.425781 204.183594 322.535156 206.214844 C 323.632812 208.246094 325.050781 210.117188 326.726562 211.734375 C 328.382812 213.367188 330.289062 214.761719 332.375 215.820312 C 334.445312 216.898438 336.71875 217.640625 338.582031 219.09375 Z M 338.582031 219.09375 C 336.695312 217.667969 334.421875 216.96875 332.328125 215.921875 C 330.230469 214.867188 328.238281 213.570312 326.496094 211.980469 C 322.992188 208.847656 320.332031 204.589844 319.511719 199.839844 L 318.894531 196.273438 L 320.320312 199.613281 C 321.4375 202.246094 323.953125 203.992188 326.527344 205.273438 C 329.140625 206.574219 332.039062 207.417969 334.664062 208.941406 C 337.316406 210.4375 339.464844 212.777344 340.75 215.496094 C 341.375 216.851562 341.921875 218.296875 341.972656 219.808594 C 342.042969 221.300781 341.894531 222.800781 342.328125 224.222656 L 342.230469 224.253906 C 341.574219 222.226562 340.25 220.429688 338.582031 219.09375 " fill-opacity="1" fill-rule="nonzero"/></g></g></g><g clip-path="url(#34e28d77af)"><g clip-path="url(#b9564a420a)"><g clip-path="url(#3a03a44699)"><path fill="#f8f7f4" d="M 333.996094 237.792969 C 335.683594 239.101562 337.046875 240.886719 337.75 242.925781 L 337.648438 242.957031 C 337.183594 241.515625 337.324219 239.984375 337.179688 238.523438 C 337.070312 237.054688 336.484375 235.671875 335.816406 234.375 C 334.453125 231.769531 332.308594 229.625 329.71875 228.300781 C 327.136719 226.929688 324.285156 226.097656 321.539062 224.808594 C 318.84375 223.542969 316.179688 221.570312 314.957031 218.636719 L 315.757812 218.410156 C 316.144531 220.660156 316.839844 222.882812 317.957031 224.910156 C 319.050781 226.945312 320.46875 228.816406 322.140625 230.4375 C 323.804688 232.070312 325.710938 233.460938 327.796875 234.523438 C 329.859375 235.597656 332.136719 236.34375 333.996094 237.792969 Z M 333.996094 237.792969 C 332.117188 236.371094 329.835938 235.667969 327.742188 234.625 C 325.644531 233.570312 323.660156 232.269531 321.910156 230.679688 C 318.40625 227.542969 315.746094 223.289062 314.925781 218.542969 L 314.308594 214.96875 L 315.734375 218.316406 C 316.859375 220.949219 319.375 222.695312 321.949219 223.976562 C 324.558594 225.277344 327.457031 226.121094 330.085938 227.640625 C 332.730469 229.140625 334.882812 231.480469 336.171875 234.199219 C 336.796875 235.550781 337.339844 237 337.390625 238.507812 C 337.457031 239.996094 337.316406 241.5 337.75 242.925781 L 337.648438 242.957031 C 336.992188 240.929688 335.664062 239.128906 333.996094 237.792969 " fill-opacity="1" fill-rule="nonzero"/></g></g></g><g clip-path="url(#ff74396bde)"><g clip-path="url(#f9424ddf78)"><g clip-path="url(#769ca49f54)"><path fill="#f8f7f4" d="M 329.292969 251.234375 C 330.820312 252.730469 331.972656 254.648438 332.4375 256.757812 L 332.335938 256.777344 C 332.035156 255.289062 332.351562 253.789062 332.371094 252.320312 C 332.429688 250.84375 332 249.410156 331.488281 248.042969 C 330.421875 245.300781 328.539062 242.925781 326.113281 241.316406 C 323.707031 239.664062 320.964844 238.511719 318.386719 236.921875 C 315.847656 235.359375 313.421875 233.101562 312.542969 230.042969 L 313.367188 229.910156 C 313.496094 232.1875 313.9375 234.476562 314.8125 236.621094 C 315.671875 238.765625 316.863281 240.78125 318.347656 242.578125 C 319.808594 244.390625 321.546875 245.988281 323.496094 247.28125 C 325.429688 248.582031 327.609375 249.578125 329.292969 251.234375 Z M 329.292969 251.234375 C 327.582031 249.609375 325.398438 248.652344 323.4375 247.371094 C 321.472656 246.085938 319.644531 244.574219 318.09375 242.796875 C 314.964844 239.285156 312.800781 234.753906 312.523438 229.945312 L 312.316406 226.328125 L 313.355469 229.808594 C 314.171875 232.554688 316.46875 234.570312 318.886719 236.136719 C 321.332031 237.726562 324.117188 238.894531 326.550781 240.703125 C 329.019531 242.492188 330.886719 245.058594 331.855469 247.90625 C 332.324219 249.324219 332.703125 250.820312 332.582031 252.328125 C 332.480469 253.8125 332.171875 255.289062 332.4375 256.757812 L 332.335938 256.777344 C 331.914062 254.6875 330.796875 252.75 329.292969 251.234375 " fill-opacity="1" fill-rule="nonzero"/></g></g></g><g clip-path="url(#e55c8e880b)"><g clip-path="url(#d997676986)"><g clip-path="url(#d91e214c6d)"><path fill="#f8f7f4" d="M 271.851562 310.960938 C 271.996094 313.742188 271.394531 316.601562 269.976562 319.03125 L 269.863281 318.960938 C 270.890625 317.273438 272.523438 316.113281 273.84375 314.726562 C 275.207031 313.363281 276.070312 311.605469 276.789062 309.84375 C 278.191406 306.273438 278.480469 302.324219 277.585938 298.632812 C 276.742188 294.917969 275.125 291.390625 274.066406 287.582031 C 273.53125 285.683594 273.203125 283.699219 273.222656 281.691406 C 273.234375 279.683594 273.621094 277.636719 274.546875 275.8125 L 275.464844 276.417969 C 273.566406 278.710938 271.960938 281.300781 270.910156 284.128906 C 269.832031 286.945312 269.191406 289.9375 269.015625 292.96875 C 268.820312 296 269.066406 299.074219 269.800781 302.039062 C 270.492188 304.996094 271.699219 307.878906 271.851562 310.960938 Z M 271.851562 310.960938 C 271.648438 307.882812 270.40625 305.039062 269.65625 302.074219 C 268.910156 299.101562 268.5 296.03125 268.578125 292.953125 C 268.632812 289.875 269.160156 286.796875 270.144531 283.855469 C 271.121094 280.910156 272.640625 278.125 274.617188 275.703125 L 277.640625 272.015625 L 275.535156 276.304688 C 273.886719 279.660156 274.308594 283.632812 275.234375 287.273438 C 276.175781 290.957031 277.8125 294.542969 278.546875 298.4375 C 279.332031 302.328125 278.847656 306.445312 277.257812 310.035156 C 276.453125 311.804688 275.484375 313.578125 274.035156 314.917969 C 272.625 316.257812 271.019531 317.394531 269.976562 319.03125 L 269.863281 318.960938 C 271.304688 316.585938 271.953125 313.746094 271.851562 310.960938 " fill-opacity="1" fill-rule="nonzero"/></g></g></g><g clip-path="url(#35fff6dfcd)"><g clip-path="url(#7dd864ae00)"><g clip-path="url(#8e810b6973)"><path fill="#f8f7f4" d="M 338.851562 212.617188 C 338.1875 212.234375 337.597656 211.738281 336.984375 211.285156 L 335.160156 209.886719 L 335.140625 209.863281 L 335.121094 209.832031 L 335.09375 209.773438 C 335.078125 209.738281 335.09375 209.78125 335.113281 209.792969 C 335.160156 209.800781 335.125 209.808594 335.011719 209.785156 L 334.992188 209.773438 L 334.96875 209.753906 C 332.035156 207.097656 329.175781 204.246094 327.21875 200.714844 C 325.195312 197.265625 323.898438 193.335938 323.609375 189.296875 C 323.335938 185.257812 323.988281 181.191406 325.296875 177.394531 C 326.636719 173.585938 328.457031 169.988281 330.972656 166.765625 L 331.621094 165.945312 L 332.132812 166.871094 C 333.777344 169.824219 336.582031 171.96875 339.453125 173.96875 C 342.308594 175.984375 345.398438 177.980469 347.613281 180.929688 C 349.761719 183.882812 351.113281 187.296875 351.726562 190.832031 C 352.351562 194.375 352.078125 198.050781 351.003906 201.4375 L 350.996094 201.449219 L 348.617188 206.078125 L 348.59375 206.132812 L 348.613281 206.078125 L 350.6875 201.335938 L 350.6875 201.347656 C 351.585938 197.953125 351.601562 194.382812 350.929688 190.980469 C 350.234375 187.597656 348.800781 184.328125 346.699219 181.628906 C 344.558594 178.964844 341.625 177.019531 338.707031 175.035156 C 335.816406 173.054688 332.777344 170.835938 330.902344 167.570312 L 332.066406 167.667969 C 329.757812 170.699219 327.851562 174.191406 326.554688 177.832031 C 325.257812 181.476562 324.601562 185.363281 324.824219 189.222656 C 324.976562 193.078125 326.09375 196.886719 327.949219 200.304688 C 329.765625 203.761719 332.390625 206.75 335.164062 209.515625 L 335.121094 209.496094 C 335.089844 209.5 335.148438 209.472656 335.273438 209.53125 C 335.324219 209.558594 335.367188 209.648438 335.367188 209.652344 L 335.390625 209.714844 L 335.351562 209.660156 L 337.085938 211.15625 C 337.664062 211.65625 338.21875 212.191406 338.851562 212.617188 " fill-opacity="1" fill-rule="nonzero"/></g></g></g><g clip-path="url(#8a2109316a)"><g clip-path="url(#2511807a5f)"><g clip-path="url(#c3722c1871)"><path fill="#f8f7f4" d="M 338.851562 212.617188 L 337.996094 211.960938 L 338.007812 211.964844 L 337.949219 211.949219 L 337.9375 211.945312 L 337.929688 211.925781 C 337.898438 211.875 337.914062 211.871094 337.863281 211.859375 L 337.855469 211.859375 L 337.855469 211.855469 L 337.375 211.445312 L 337.367188 211.429688 L 337.335938 211.359375 L 337.355469 211.386719 C 336.730469 210.949219 336.164062 210.421875 335.640625 209.871094 L 335.695312 209.90625 L 335.640625 209.886719 L 335.613281 209.878906 L 335.597656 209.859375 C 334.664062 208.886719 333.890625 207.851562 333.027344 206.84375 C 332.617188 206.328125 332.320312 205.734375 331.957031 205.175781 C 331.617188 204.609375 331.246094 204.054688 331.019531 203.425781 L 330.230469 201.59375 L 329.710938 199.664062 C 329.496094 199.023438 329.476562 198.351562 329.375 197.691406 L 329.25 196.699219 C 329.234375 196.367188 329.246094 196.03125 329.25 195.695312 C 329.226562 193.019531 329.757812 190.359375 330.683594 187.863281 C 331.632812 185.375 332.859375 183.007812 334.535156 180.878906 L 334.988281 180.292969 L 335.355469 180.953125 C 336.429688 182.894531 338.226562 184.359375 340.097656 185.6875 C 341.976562 187.027344 344.007812 188.289062 345.609375 190.097656 C 347.226562 191.910156 348.230469 194.105469 348.882812 196.375 C 349.527344 198.65625 349.617188 201.070312 349.277344 203.378906 L 349.28125 203.398438 L 349.234375 203.515625 L 349.230469 203.503906 L 348.839844 204.960938 C 348.757812 205.207031 348.726562 205.46875 348.605469 205.6875 L 348.261719 206.367188 L 348.242188 206.421875 L 348.261719 206.367188 L 348.550781 205.664062 C 348.65625 205.4375 348.664062 205.179688 348.722656 204.9375 L 349.03125 203.453125 L 349.027344 203.445312 L 349.035156 203.433594 L 349.070312 203.328125 L 349.0625 203.351562 C 349.289062 201.050781 349.011719 198.722656 348.335938 196.535156 C 347.640625 194.375 346.566406 192.257812 345.019531 190.636719 C 343.445312 189.015625 341.503906 187.765625 339.570312 186.445312 C 337.65625 185.121094 335.710938 183.59375 334.480469 181.4375 L 335.304688 181.515625 C 332.28125 185.566406 330.132812 190.570312 330.121094 195.699219 C 330.140625 198.230469 330.484375 200.835938 331.59375 203.171875 C 331.796875 203.789062 332.132812 204.335938 332.449219 204.898438 C 332.777344 205.449219 333.058594 206.039062 333.429688 206.570312 C 334.210938 207.589844 334.96875 208.695312 335.773438 209.648438 L 335.738281 209.628906 L 335.792969 209.648438 L 335.828125 209.660156 L 335.847656 209.683594 C 336.335938 210.261719 336.855469 210.800781 337.441406 211.269531 L 337.460938 211.285156 L 337.464844 211.296875 L 337.496094 211.375 L 337.476562 211.347656 L 337.90625 211.78125 L 337.902344 211.769531 C 337.945312 211.777344 338.003906 211.863281 338.007812 211.894531 L 337.984375 211.871094 L 338.035156 211.894531 L 338.042969 211.902344 L 338.046875 211.902344 L 338.851562 212.617188 " fill-opacity="1" fill-rule="nonzero"/></g></g></g><g clip-path="url(#d7569a8835)"><g clip-path="url(#c6e387953e)"><g clip-path="url(#d26907a29d)"><path fill="#f8f7f4" d="M 344.558594 210.609375 C 344.550781 210.480469 344.640625 210.398438 344.664062 210.339844 C 344.679688 210.289062 344.722656 210.183594 344.792969 210.148438 C 345.246094 208.984375 345.867188 208.007812 346.644531 207.089844 C 347.328125 206.257812 348.15625 205.53125 348.839844 204.703125 C 348.9375 204.613281 348.953125 204.5625 349.050781 204.480469 C 350.441406 202.757812 351.167969 200.542969 351.183594 198.292969 C 350.972656 200.105469 350.246094 201.835938 349.167969 203.367188 C 349.167969 203.367188 349.152344 203.417969 349.132812 203.472656 C 348.59375 204.238281 347.96875 204.914062 347.292969 205.570312 C 345.484375 207.25 344.152344 209.292969 343.429688 211.636719 C 343.101562 212.664062 342.722656 213.800781 342.523438 214.945312 C 342.558594 215.015625 342.515625 215.125 342.5 215.179688 C 342.464844 215.589844 342.421875 216 342.460938 216.382812 C 342.421875 216.488281 342.453125 216.558594 342.46875 216.6875 C 342.808594 216.269531 343.050781 215.632812 343.171875 215.011719 L 343.324219 214.460938 L 344.558594 210.609375 " fill-opacity="1" fill-rule="nonzero"/></g></g></g><g fill="#f8f7f4" fill-opacity="1"><g transform="translate(39.562863, 247.929644)"><g><path d="M 57.953125 1.9375 C 52.265625 1.9375 46.0625 0.390625 39.34375 -2.703125 C 32.625 -5.804688 26.617188 -9.75 21.328125 -14.53125 C 18.609375 -16.726562 16.117188 -17.890625 13.859375 -18.015625 C 11.597656 -18.148438 10.398438 -17.117188 10.265625 -14.921875 L 10.078125 -11.046875 L 9.109375 -11.046875 L 9.109375 -39.34375 L 11.828125 -39.734375 L 13.1875 -38.1875 C 18.09375 -32.625 22.289062 -27.742188 25.78125 -23.546875 C 29.269531 -19.347656 31.628906 -16.3125 32.859375 -14.4375 C 34.085938 -12.5625 33.859375 -12.398438 32.171875 -13.953125 C 36.441406 -10.078125 40.898438 -6.910156 45.546875 -4.453125 C 50.203125 -2.003906 54.335938 -0.78125 57.953125 -0.78125 C 62.472656 -0.78125 66.734375 -2.425781 70.734375 -5.71875 C 74.742188 -9.007812 78.007812 -13.238281 80.53125 -18.40625 C 83.050781 -23.582031 84.3125 -29.015625 84.3125 -34.703125 C 84.3125 -37.535156 82.789062 -40.726562 79.75 -44.28125 C 76.71875 -47.84375 72.617188 -51.367188 67.453125 -54.859375 C 62.285156 -58.347656 56.535156 -61.253906 50.203125 -63.578125 C 44.773438 -65.515625 39.734375 -68.320312 35.078125 -72 C 30.429688 -75.6875 26.328125 -79.890625 22.765625 -84.609375 C 19.210938 -89.328125 16.4375 -94.203125 14.4375 -99.234375 C 12.4375 -104.273438 11.4375 -109.054688 11.4375 -113.578125 C 11.4375 -119.015625 12.597656 -124.25 14.921875 -129.28125 C 17.253906 -134.320312 20.421875 -138.84375 24.421875 -142.84375 C 28.429688 -146.851562 32.953125 -150.050781 37.984375 -152.4375 C 43.023438 -154.832031 48.195312 -156.03125 53.5 -156.03125 C 59.3125 -156.03125 65.445312 -154.800781 71.90625 -152.34375 C 78.375 -149.894531 84 -146.796875 88.78125 -143.046875 C 90.84375 -141.753906 92.679688 -140.976562 94.296875 -140.71875 C 95.910156 -140.457031 96.785156 -140.847656 96.921875 -141.890625 L 97.109375 -144.015625 L 98.078125 -144.015625 L 98.078125 -122.890625 L 95.5625 -122.890625 L 94.203125 -124.4375 C 90.066406 -129.21875 86.09375 -133.707031 82.28125 -137.90625 C 78.46875 -142.113281 76.046875 -144.734375 75.015625 -145.765625 C 71.523438 -148.210938 67.90625 -150.179688 64.15625 -151.671875 C 60.40625 -153.160156 56.851562 -153.90625 53.5 -153.90625 C 49.882812 -153.90625 46.394531 -152.414062 43.03125 -149.4375 C 39.664062 -146.46875 36.945312 -142.6875 34.875 -138.09375 C 32.8125 -133.507812 31.78125 -128.632812 31.78125 -123.46875 C 31.78125 -119.976562 33.300781 -116.132812 36.34375 -111.9375 C 39.382812 -107.738281 43.488281 -103.703125 48.65625 -99.828125 C 53.820312 -95.953125 59.570312 -92.847656 65.90625 -90.515625 C 71.332031 -88.578125 76.4375 -85.765625 81.21875 -82.078125 C 86 -78.398438 90.195312 -74.300781 93.8125 -69.78125 C 97.4375 -65.257812 100.25 -60.570312 102.25 -55.71875 C 104.25 -50.875 105.25 -46.320312 105.25 -42.0625 C 105.25 -36.507812 103.921875 -31.113281 101.265625 -25.875 C 98.617188 -20.644531 95.035156 -15.925781 90.515625 -11.71875 C 85.992188 -7.519531 80.921875 -4.191406 75.296875 -1.734375 C 69.679688 0.710938 63.898438 1.9375 57.953125 1.9375 Z M 57.953125 1.9375 "/></g></g><g transform="translate(152.370829, 247.929644)"><g><path d="M 16.671875 0 L 16.671875 -153.90625 L 62.609375 -153.90625 C 70.097656 -153.90625 77.394531 -152.675781 84.5 -150.21875 C 91.613281 -147.757812 97.976562 -144.429688 103.59375 -140.234375 C 109.21875 -136.035156 113.675781 -131.351562 116.96875 -126.1875 C 120.269531 -121.019531 121.921875 -115.65625 121.921875 -110.09375 C 121.921875 -104.800781 120.398438 -99.859375 117.359375 -95.265625 C 114.328125 -90.679688 110.222656 -86.675781 105.046875 -83.25 C 99.878906 -79.820312 94.003906 -77.078125 87.421875 -75.015625 C 89.617188 -71.648438 92.847656 -66.738281 97.109375 -60.28125 C 101.367188 -53.820312 106.210938 -46.457031 111.640625 -38.1875 C 117.066406 -29.914062 122.625 -21.320312 128.3125 -12.40625 C 130.507812 -9.039062 132.578125 -6.453125 134.515625 -4.640625 C 136.453125 -2.835938 138.679688 -1.613281 141.203125 -0.96875 C 143.722656 -0.320312 146.859375 0 150.609375 0 C 138.460938 0 128.929688 -0.320312 122.015625 -0.96875 C 115.097656 -1.613281 109.832031 -2.835938 106.21875 -4.640625 C 102.601562 -6.453125 99.695312 -9.039062 97.5 -12.40625 C 92.332031 -20.414062 87.257812 -28.328125 82.28125 -36.140625 C 77.300781 -43.960938 72.96875 -51.003906 69.28125 -57.265625 C 65.601562 -63.535156 62.925781 -68.222656 61.25 -71.328125 L 42.84375 -71.328125 L 42.84375 0 Z M 42.84375 -77.921875 L 62.609375 -77.921875 C 67.773438 -77.921875 72.648438 -79.535156 77.234375 -82.765625 C 81.828125 -85.992188 85.609375 -90.414062 88.578125 -96.03125 C 91.554688 -101.65625 93.046875 -108.085938 93.046875 -115.328125 C 93.046875 -121.015625 91.203125 -126.378906 87.515625 -131.421875 C 83.828125 -136.460938 79.078125 -140.597656 73.265625 -143.828125 C 67.453125 -147.054688 61.316406 -148.671875 54.859375 -148.671875 L 42.84375 -148.671875 Z M 42.84375 -77.921875 "/></g></g></g></svg>