<svg xmlns="http://www.w3.org/2000/svg" xmlns:xlink="http://www.w3.org/1999/xlink" width="500" zoomAndPan="magnify" viewBox="0 0 375 374.999991" height="500" preserveAspectRatio="xMidYMid meet" version="1.0"><defs><g/><clipPath id="ec935b214f"><path d="M 10.082031 18.007812 L 367 18.007812 L 367 357.246094 L 10.082031 357.246094 Z M 10.082031 18.007812 " clip-rule="nonzero"/></clipPath><clipPath id="dad320d4ec"><path d="M 188.578125 18.007812 C 90 18.007812 10.082031 93.949219 10.082031 187.628906 C 10.082031 281.308594 90 357.246094 188.578125 357.246094 C 287.160156 357.246094 367.074219 281.308594 367.074219 187.628906 C 367.074219 93.949219 287.160156 18.007812 188.578125 18.007812 Z M 188.578125 18.007812 " clip-rule="nonzero"/></clipPath><clipPath id="cda0f772b7"><path d="M 23 37 L 312 37 L 312 329 L 23 329 Z M 23 37 " clip-rule="nonzero"/></clipPath><clipPath id="9014dcd6b3"><path d="M 172.75 6.46875 L 311.613281 103.667969 L 143.449219 343.910156 L 4.585938 246.710938 Z M 172.75 6.46875 " clip-rule="nonzero"/></clipPath><clipPath id="3cb5cfece3"><path d="M 133.023438 -21.339844 L 373.265625 146.824219 L 205.101562 387.066406 L -35.140625 218.902344 Z M 133.023438 -21.339844 " clip-rule="nonzero"/></clipPath><clipPath id="fa3ec7fc0a"><path d="M 207 198 L 328 198 L 328 358 L 207 358 Z M 207 198 " clip-rule="nonzero"/></clipPath><clipPath id="321f8879c9"><path d="M 192.484375 177.714844 L 355.453125 164.550781 L 369.945312 343.96875 L 206.976562 357.128906 Z M 192.484375 177.714844 " clip-rule="nonzero"/></clipPath><clipPath id="54819d56f7"><path d="M 192.484375 177.714844 L 355.453125 164.550781 L 369.945312 343.96875 L 206.976562 357.128906 Z M 192.484375 177.714844 " clip-rule="nonzero"/></clipPath><clipPath id="12ec1e99a0"><path d="M 195.132812 208 L 327.699219 197.292969 L 339.75 346.488281 L 207.183594 357.195312 Z M 195.132812 208 " clip-rule="nonzero"/></clipPath><clipPath id="b6826e7236"><path d="M 217 328 L 275 328 L 275 342 L 217 342 Z M 217 328 " clip-rule="nonzero"/></clipPath><clipPath id="299e7258a2"><path d="M 192.484375 177.714844 L 355.453125 164.550781 L 369.945312 343.96875 L 206.976562 357.128906 Z M 192.484375 177.714844 " clip-rule="nonzero"/></clipPath><clipPath id="50c8a79222"><path d="M 192.484375 177.714844 L 355.453125 164.550781 L 369.945312 343.96875 L 206.976562 357.128906 Z M 192.484375 177.714844 " clip-rule="nonzero"/></clipPath><clipPath id="a5efc28c96"><path d="M 228 312 L 301 312 L 301 329 L 228 329 Z M 228 312 " clip-rule="nonzero"/></clipPath><clipPath id="f141c0702d"><path d="M 192.484375 177.714844 L 355.453125 164.550781 L 369.945312 343.96875 L 206.976562 357.128906 Z M 192.484375 177.714844 " clip-rule="nonzero"/></clipPath><clipPath id="3070e55217"><path d="M 192.484375 177.714844 L 355.453125 164.550781 L 369.945312 343.96875 L 206.976562 357.128906 Z M 192.484375 177.714844 " clip-rule="nonzero"/></clipPath><clipPath id="ebfecafb1d"><path d="M 251 301 L 302 301 L 302 315 L 251 315 Z M 251 301 " clip-rule="nonzero"/></clipPath><clipPath id="a427fdb6a1"><path d="M 192.484375 177.714844 L 355.453125 164.550781 L 369.945312 343.96875 L 206.976562 357.128906 Z M 192.484375 177.714844 " clip-rule="nonzero"/></clipPath><clipPath id="35f1b02f50"><path d="M 192.484375 177.714844 L 355.453125 164.550781 L 369.945312 343.96875 L 206.976562 357.128906 Z M 192.484375 177.714844 " clip-rule="nonzero"/></clipPath><clipPath id="43dc413123"><path d="M 273 290 L 324 290 L 324 304 L 273 304 Z M 273 290 " clip-rule="nonzero"/></clipPath><clipPath id="b8cfb64387"><path d="M 192.484375 177.714844 L 355.453125 164.550781 L 369.945312 343.96875 L 206.976562 357.128906 Z M 192.484375 177.714844 " clip-rule="nonzero"/></clipPath><clipPath id="a40a76b8fd"><path d="M 192.484375 177.714844 L 355.453125 164.550781 L 369.945312 343.96875 L 206.976562 357.128906 Z M 192.484375 177.714844 " clip-rule="nonzero"/></clipPath><clipPath id="042645411e"><path d="M 287 278 L 338 278 L 338 290 L 287 290 Z M 287 278 " clip-rule="nonzero"/></clipPath><clipPath id="e41eca7101"><path d="M 192.484375 177.714844 L 355.453125 164.550781 L 369.945312 343.96875 L 206.976562 357.128906 Z M 192.484375 177.714844 " clip-rule="nonzero"/></clipPath><clipPath id="4e462941f2"><path d="M 192.484375 177.714844 L 355.453125 164.550781 L 369.945312 343.96875 L 206.976562 357.128906 Z M 192.484375 177.714844 " clip-rule="nonzero"/></clipPath><clipPath id="e3d1210bdb"><path d="M 297 261 L 345 261 L 345 280 L 297 280 Z M 297 261 " clip-rule="nonzero"/></clipPath><clipPath id="f9af5ad387"><path d="M 192.484375 177.714844 L 355.453125 164.550781 L 369.945312 343.96875 L 206.976562 357.128906 Z M 192.484375 177.714844 " clip-rule="nonzero"/></clipPath><clipPath id="ba70d3eb94"><path d="M 192.484375 177.714844 L 355.453125 164.550781 L 369.945312 343.96875 L 206.976562 357.128906 Z M 192.484375 177.714844 " clip-rule="nonzero"/></clipPath><clipPath id="a2f52d8ca7"><path d="M 311 248 L 350 248 L 350 264 L 311 264 Z M 311 248 " clip-rule="nonzero"/></clipPath><clipPath id="8a2b10a4de"><path d="M 192.484375 177.714844 L 355.453125 164.550781 L 369.945312 343.96875 L 206.976562 357.128906 Z M 192.484375 177.714844 " clip-rule="nonzero"/></clipPath><clipPath id="3fade83aef"><path d="M 192.484375 177.714844 L 355.453125 164.550781 L 369.945312 343.96875 L 206.976562 357.128906 Z M 192.484375 177.714844 " clip-rule="nonzero"/></clipPath><clipPath id="02b22284c9"><path d="M 317 238 L 356 238 L 356 254 L 317 254 Z M 317 238 " clip-rule="nonzero"/></clipPath><clipPath id="99e3ddefee"><path d="M 192.484375 177.714844 L 355.453125 164.550781 L 369.945312 343.96875 L 206.976562 357.128906 Z M 192.484375 177.714844 " clip-rule="nonzero"/></clipPath><clipPath id="74dc630f19"><path d="M 192.484375 177.714844 L 355.453125 164.550781 L 369.945312 343.96875 L 206.976562 357.128906 Z M 192.484375 177.714844 " clip-rule="nonzero"/></clipPath><clipPath id="9087844f20"><path d="M 321 225 L 358 225 L 358 244 L 321 244 Z M 321 225 " clip-rule="nonzero"/></clipPath><clipPath id="6e0b23e7b3"><path d="M 192.484375 177.714844 L 355.453125 164.550781 L 369.945312 343.96875 L 206.976562 357.128906 Z M 192.484375 177.714844 " clip-rule="nonzero"/></clipPath><clipPath id="3a47969794"><path d="M 192.484375 177.714844 L 355.453125 164.550781 L 369.945312 343.96875 L 206.976562 357.128906 Z M 192.484375 177.714844 " clip-rule="nonzero"/></clipPath><clipPath id="3072af93f2"><path d="M 324 211 L 360 211 L 360 234 L 324 234 Z M 324 211 " clip-rule="nonzero"/></clipPath><clipPath id="600d3d86c5"><path d="M 192.484375 177.714844 L 355.453125 164.550781 L 369.945312 343.96875 L 206.976562 357.128906 Z M 192.484375 177.714844 " clip-rule="nonzero"/></clipPath><clipPath id="87853b5128"><path d="M 192.484375 177.714844 L 355.453125 164.550781 L 369.945312 343.96875 L 206.976562 357.128906 Z M 192.484375 177.714844 " clip-rule="nonzero"/></clipPath><clipPath id="6136d08b9d"><path d="M 322.714844 214.214844 L 359.148438 211.273438 L 360.78125 231.472656 L 324.34375 234.414062 Z M 322.714844 214.214844 " clip-rule="nonzero"/></clipPath><clipPath id="62fafe8c67"><path d="M 326 195 L 353 195 L 353 228 L 326 228 Z M 326 195 " clip-rule="nonzero"/></clipPath><clipPath id="3dd0332eed"><path d="M 192.484375 177.714844 L 355.453125 164.550781 L 369.945312 343.96875 L 206.976562 357.128906 Z M 192.484375 177.714844 " clip-rule="nonzero"/></clipPath><clipPath id="135ae01239"><path d="M 192.484375 177.714844 L 355.453125 164.550781 L 369.945312 343.96875 L 206.976562 357.128906 Z M 192.484375 177.714844 " clip-rule="nonzero"/></clipPath><clipPath id="a0cf724626"><path d="M 327 188 L 346 188 L 346 219 L 327 219 Z M 327 188 " clip-rule="nonzero"/></clipPath><clipPath id="d455278adf"><path d="M 192.484375 177.714844 L 355.453125 164.550781 L 369.945312 343.96875 L 206.976562 357.128906 Z M 192.484375 177.714844 " clip-rule="nonzero"/></clipPath><clipPath id="63f72ca07e"><path d="M 192.484375 177.714844 L 355.453125 164.550781 L 369.945312 343.96875 L 206.976562 357.128906 Z M 192.484375 177.714844 " clip-rule="nonzero"/></clipPath><clipPath id="4a50f350eb"><path d="M 218 332 L 256 332 L 256 343 L 218 343 Z M 218 332 " clip-rule="nonzero"/></clipPath><clipPath id="5f1e65fdfb"><path d="M 192.484375 177.714844 L 355.453125 164.550781 L 369.945312 343.96875 L 206.976562 357.128906 Z M 192.484375 177.714844 " clip-rule="nonzero"/></clipPath><clipPath id="52d4686d40"><path d="M 192.484375 177.714844 L 355.453125 164.550781 L 369.945312 343.96875 L 206.976562 357.128906 Z M 192.484375 177.714844 " clip-rule="nonzero"/></clipPath><clipPath id="4d4b3c3b8f"><path d="M 212 290 L 226 290 L 226 336 L 212 336 Z M 212 290 " clip-rule="nonzero"/></clipPath><clipPath id="6eb8d4047c"><path d="M 192.484375 177.714844 L 355.453125 164.550781 L 369.945312 343.96875 L 206.976562 357.128906 Z M 192.484375 177.714844 " clip-rule="nonzero"/></clipPath><clipPath id="b881ef661d"><path d="M 192.484375 177.714844 L 355.453125 164.550781 L 369.945312 343.96875 L 206.976562 357.128906 Z M 192.484375 177.714844 " clip-rule="nonzero"/></clipPath><clipPath id="a9084730ff"><path d="M 209 300 L 222 300 L 222 337 L 209 337 Z M 209 300 " clip-rule="nonzero"/></clipPath><clipPath id="eab06d6f13"><path d="M 192.484375 177.714844 L 355.453125 164.550781 L 369.945312 343.96875 L 206.976562 357.128906 Z M 192.484375 177.714844 " clip-rule="nonzero"/></clipPath><clipPath id="a94f8ab423"><path d="M 192.484375 177.714844 L 355.453125 164.550781 L 369.945312 343.96875 L 206.976562 357.128906 Z M 192.484375 177.714844 " clip-rule="nonzero"/></clipPath><clipPath id="9907610b58"><path d="M 225 278 L 236 278 L 236 327 L 225 327 Z M 225 278 " clip-rule="nonzero"/></clipPath><clipPath id="3641ba7695"><path d="M 192.484375 177.714844 L 355.453125 164.550781 L 369.945312 343.96875 L 206.976562 357.128906 Z M 192.484375 177.714844 " clip-rule="nonzero"/></clipPath><clipPath id="bfb6e7b54a"><path d="M 192.484375 177.714844 L 355.453125 164.550781 L 369.945312 343.96875 L 206.976562 357.128906 Z M 192.484375 177.714844 " clip-rule="nonzero"/></clipPath><clipPath id="943b2d9c09"><path d="M 238 268 L 253 268 L 253 317 L 238 317 Z M 238 268 " clip-rule="nonzero"/></clipPath><clipPath id="ac20de8bde"><path d="M 192.484375 177.714844 L 355.453125 164.550781 L 369.945312 343.96875 L 206.976562 357.128906 Z M 192.484375 177.714844 " clip-rule="nonzero"/></clipPath><clipPath id="5d578d2dcf"><path d="M 192.484375 177.714844 L 355.453125 164.550781 L 369.945312 343.96875 L 206.976562 357.128906 Z M 192.484375 177.714844 " clip-rule="nonzero"/></clipPath><clipPath id="e7aa4bdec2"><path d="M 250 261 L 265 261 L 265 310 L 250 310 Z M 250 261 " clip-rule="nonzero"/></clipPath><clipPath id="698f9df775"><path d="M 192.484375 177.714844 L 355.453125 164.550781 L 369.945312 343.96875 L 206.976562 357.128906 Z M 192.484375 177.714844 " clip-rule="nonzero"/></clipPath><clipPath id="c7fb150582"><path d="M 192.484375 177.714844 L 355.453125 164.550781 L 369.945312 343.96875 L 206.976562 357.128906 Z M 192.484375 177.714844 " clip-rule="nonzero"/></clipPath><clipPath id="2ec6cf4e15"><path d="M 271 242 L 286 242 L 286 293 L 271 293 Z M 271 242 " clip-rule="nonzero"/></clipPath><clipPath id="422ee5397b"><path d="M 192.484375 177.714844 L 355.453125 164.550781 L 369.945312 343.96875 L 206.976562 357.128906 Z M 192.484375 177.714844 " clip-rule="nonzero"/></clipPath><clipPath id="fb1a88f34e"><path d="M 192.484375 177.714844 L 355.453125 164.550781 L 369.945312 343.96875 L 206.976562 357.128906 Z M 192.484375 177.714844 " clip-rule="nonzero"/></clipPath><clipPath id="dbecb5d9e1"><path d="M 283 237 L 295 237 L 295 288 L 283 288 Z M 283 237 " clip-rule="nonzero"/></clipPath><clipPath id="94e82c8199"><path d="M 192.484375 177.714844 L 355.453125 164.550781 L 369.945312 343.96875 L 206.976562 357.128906 Z M 192.484375 177.714844 " clip-rule="nonzero"/></clipPath><clipPath id="e556b2b612"><path d="M 192.484375 177.714844 L 355.453125 164.550781 L 369.945312 343.96875 L 206.976562 357.128906 Z M 192.484375 177.714844 " clip-rule="nonzero"/></clipPath><clipPath id="681c048cc0"><path d="M 291 233 L 305 233 L 305 277 L 291 277 Z M 291 233 " clip-rule="nonzero"/></clipPath><clipPath id="9a61c00067"><path d="M 192.484375 177.714844 L 355.453125 164.550781 L 369.945312 343.96875 L 206.976562 357.128906 Z M 192.484375 177.714844 " clip-rule="nonzero"/></clipPath><clipPath id="e86adb60db"><path d="M 192.484375 177.714844 L 355.453125 164.550781 L 369.945312 343.96875 L 206.976562 357.128906 Z M 192.484375 177.714844 " clip-rule="nonzero"/></clipPath><clipPath id="531ea38ed3"><path d="M 298 222 L 314 222 L 314 263 L 298 263 Z M 298 222 " clip-rule="nonzero"/></clipPath><clipPath id="5e2b034f58"><path d="M 192.484375 177.714844 L 355.453125 164.550781 L 369.945312 343.96875 L 206.976562 357.128906 Z M 192.484375 177.714844 " clip-rule="nonzero"/></clipPath><clipPath id="c43ab597b4"><path d="M 192.484375 177.714844 L 355.453125 164.550781 L 369.945312 343.96875 L 206.976562 357.128906 Z M 192.484375 177.714844 " clip-rule="nonzero"/></clipPath><clipPath id="3500f03d8d"><path d="M 305 199 L 327 199 L 327 224 L 305 224 Z M 305 199 " clip-rule="nonzero"/></clipPath><clipPath id="955e69c58d"><path d="M 192.484375 177.714844 L 355.453125 164.550781 L 369.945312 343.96875 L 206.976562 357.128906 Z M 192.484375 177.714844 " clip-rule="nonzero"/></clipPath><clipPath id="00f8e77f8f"><path d="M 192.484375 177.714844 L 355.453125 164.550781 L 369.945312 343.96875 L 206.976562 357.128906 Z M 192.484375 177.714844 " clip-rule="nonzero"/></clipPath><clipPath id="bca9c35ff8"><path d="M 307 194 L 329 194 L 329 219 L 307 219 Z M 307 194 " clip-rule="nonzero"/></clipPath><clipPath id="269f99189e"><path d="M 192.484375 177.714844 L 355.453125 164.550781 L 369.945312 343.96875 L 206.976562 357.128906 Z M 192.484375 177.714844 " clip-rule="nonzero"/></clipPath><clipPath id="292a531131"><path d="M 192.484375 177.714844 L 355.453125 164.550781 L 369.945312 343.96875 L 206.976562 357.128906 Z M 192.484375 177.714844 " clip-rule="nonzero"/></clipPath><clipPath id="4f27d4e795"><path d="M 303 210 L 325 210 L 325 235 L 303 235 Z M 303 210 " clip-rule="nonzero"/></clipPath><clipPath id="547c9bce33"><path d="M 192.484375 177.714844 L 355.453125 164.550781 L 369.945312 343.96875 L 206.976562 357.128906 Z M 192.484375 177.714844 " clip-rule="nonzero"/></clipPath><clipPath id="33e31f5d97"><path d="M 192.484375 177.714844 L 355.453125 164.550781 L 369.945312 343.96875 L 206.976562 357.128906 Z M 192.484375 177.714844 " clip-rule="nonzero"/></clipPath><clipPath id="6140637609"><path d="M 301 220 L 320 220 L 320 248 L 301 248 Z M 301 220 " clip-rule="nonzero"/></clipPath><clipPath id="b662290553"><path d="M 192.484375 177.714844 L 355.453125 164.550781 L 369.945312 343.96875 L 206.976562 357.128906 Z M 192.484375 177.714844 " clip-rule="nonzero"/></clipPath><clipPath id="a6349006aa"><path d="M 192.484375 177.714844 L 355.453125 164.550781 L 369.945312 343.96875 L 206.976562 357.128906 Z M 192.484375 177.714844 " clip-rule="nonzero"/></clipPath><clipPath id="62b3bd114c"><path d="M 263 260 L 273 260 L 273 302 L 263 302 Z M 263 260 " clip-rule="nonzero"/></clipPath><clipPath id="07daf66f74"><path d="M 192.484375 177.714844 L 355.453125 164.550781 L 369.945312 343.96875 L 206.976562 357.128906 Z M 192.484375 177.714844 " clip-rule="nonzero"/></clipPath><clipPath id="03c6037380"><path d="M 192.484375 177.714844 L 355.453125 164.550781 L 369.945312 343.96875 L 206.976562 357.128906 Z M 192.484375 177.714844 " clip-rule="nonzero"/></clipPath><clipPath id="bc3a8062dd"><path d="M 311 167 L 337 167 L 337 209 L 311 209 Z M 311 167 " clip-rule="nonzero"/></clipPath><clipPath id="d2f113a211"><path d="M 192.484375 177.714844 L 355.453125 164.550781 L 369.945312 343.96875 L 206.976562 357.128906 Z M 192.484375 177.714844 " clip-rule="nonzero"/></clipPath><clipPath id="daee087f0a"><path d="M 192.484375 177.714844 L 355.453125 164.550781 L 369.945312 343.96875 L 206.976562 357.128906 Z M 192.484375 177.714844 " clip-rule="nonzero"/></clipPath><clipPath id="70df7d453d"><path d="M 316 180 L 335 180 L 335 209 L 316 209 Z M 316 180 " clip-rule="nonzero"/></clipPath><clipPath id="80b7c81cb8"><path d="M 192.484375 177.714844 L 355.453125 164.550781 L 369.945312 343.96875 L 206.976562 357.128906 Z M 192.484375 177.714844 " clip-rule="nonzero"/></clipPath><clipPath id="6ee997d35f"><path d="M 192.484375 177.714844 L 355.453125 164.550781 L 369.945312 343.96875 L 206.976562 357.128906 Z M 192.484375 177.714844 " clip-rule="nonzero"/></clipPath><clipPath id="3391e07892"><path d="M 328 195 L 336 195 L 336 212 L 328 212 Z M 328 195 " clip-rule="nonzero"/></clipPath><clipPath id="589eaf5123"><path d="M 192.484375 177.714844 L 355.453125 164.550781 L 369.945312 343.96875 L 206.976562 357.128906 Z M 192.484375 177.714844 " clip-rule="nonzero"/></clipPath><clipPath id="fe7f2167ba"><path d="M 192.484375 177.714844 L 355.453125 164.550781 L 369.945312 343.96875 L 206.976562 357.128906 Z M 192.484375 177.714844 " clip-rule="nonzero"/></clipPath></defs><g clip-path="url(#ec935b214f)"><g clip-path="url(#dad320d4ec)"><path fill="#0c4a6e" d="M 10.082031 18.007812 L 366.546875 18.007812 L 366.546875 357.246094 L 10.082031 357.246094 Z M 10.082031 18.007812 " fill-opacity="1" fill-rule="nonzero"/></g></g><g clip-path="url(#cda0f772b7)"><g clip-path="url(#9014dcd6b3)"><g clip-path="url(#3cb5cfece3)"><path fill="#f8f7f4" d="M 259.242188 293.546875 C 248.945312 301.777344 237.417969 308.355469 225.3125 313.371094 C 215.394531 317.40625 205.132812 320.542969 194.640625 322.582031 C 193.253906 322.894531 191.835938 323.046875 190.433594 323.273438 C 189.023438 323.476562 187.621094 323.726562 186.210938 323.894531 L 181.96875 324.34375 L 179.847656 324.566406 L 177.71875 324.699219 L 173.460938 324.96875 C 172.039062 325.027344 170.617188 325.027344 169.195312 325.066406 C 166.351562 325.1875 163.507812 325.054688 160.660156 325.015625 C 160.25 325.007812 159.820312 325 159.375 324.992188 C 158.925781 324.960938 158.460938 324.925781 157.976562 324.894531 C 157.011719 324.824219 155.972656 324.75 154.867188 324.667969 C 152.648438 324.558594 150.1875 324.195312 147.484375 323.863281 C 146.8125 323.769531 146.121094 323.703125 145.421875 323.585938 C 144.722656 323.460938 144.011719 323.335938 143.289062 323.207031 C 141.839844 322.945312 140.339844 322.675781 138.789062 322.398438 C 135.734375 321.65625 132.445312 321.03125 129.109375 319.996094 C 115.605469 316.363281 100.476562 309.371094 86.949219 299.984375 C 73.503906 290.488281 61.753906 278.667969 53.71875 267.226562 C 51.601562 264.441406 49.890625 261.566406 48.144531 258.949219 C 47.355469 257.589844 46.589844 256.273438 45.847656 255.003906 C 45.480469 254.367188 45.117188 253.738281 44.761719 253.128906 C 44.414062 252.511719 44.113281 251.882812 43.796875 251.28125 C 42.558594 248.859375 41.375 246.667969 40.511719 244.625 C 40.058594 243.609375 39.632812 242.660156 39.234375 241.777344 C 39.039062 241.335938 38.847656 240.910156 38.667969 240.5 C 38.503906 240.082031 38.351562 239.679688 38.203125 239.300781 C 34.238281 229.371094 31.171875 219.097656 29.203125 208.589844 C 27.21875 197.378906 26.617188 185.957031 27.011719 174.566406 C 27.582031 161.472656 29.816406 148.390625 34.023438 135.898438 C 38.085938 123.351562 44.207031 111.488281 51.699219 100.582031 C 59.382812 89.808594 68.433594 79.996094 78.832031 71.886719 C 89.128906 63.65625 100.65625 57.078125 112.761719 52.058594 C 122.679688 48.023438 132.941406 44.890625 143.433594 42.847656 C 144.820312 42.539062 146.238281 42.382812 147.640625 42.15625 C 149.050781 41.953125 150.453125 41.707031 151.863281 41.535156 L 156.105469 41.089844 L 158.226562 40.863281 L 160.355469 40.734375 L 164.613281 40.464844 C 166.035156 40.40625 167.457031 40.402344 168.878906 40.367188 C 171.722656 40.246094 174.566406 40.378906 177.414062 40.417969 C 177.824219 40.425781 178.253906 40.433594 178.699219 40.441406 C 179.148438 40.472656 179.609375 40.503906 180.09375 40.539062 C 181.0625 40.609375 182.101562 40.683594 183.207031 40.761719 C 185.425781 40.875 187.886719 41.238281 190.589844 41.570312 C 191.261719 41.660156 191.953125 41.730469 192.652344 41.847656 C 193.351562 41.96875 194.0625 42.09375 194.785156 42.222656 C 196.234375 42.484375 197.734375 42.753906 199.285156 43.03125 C 202.339844 43.773438 205.628906 44.398438 208.964844 45.433594 C 222.46875 49.070312 237.597656 56.0625 251.125 65.445312 C 264.570312 74.941406 276.320312 86.765625 284.355469 98.207031 C 286.472656 100.988281 288.183594 103.863281 289.925781 106.480469 C 290.71875 107.839844 291.484375 109.160156 292.226562 110.429688 C 292.59375 111.066406 292.957031 111.691406 293.3125 112.304688 C 293.660156 112.921875 293.960938 113.546875 294.277344 114.148438 C 295.515625 116.574219 296.699219 118.761719 297.5625 120.808594 C 298.015625 121.820312 298.441406 122.773438 298.839844 123.65625 C 299.035156 124.097656 299.226562 124.523438 299.40625 124.933594 C 299.570312 125.351562 299.722656 125.75 299.871094 126.132812 C 303.835938 136.0625 306.902344 146.335938 308.871094 156.839844 C 310.855469 168.054688 311.457031 179.476562 311.0625 190.867188 C 310.492188 203.957031 308.257812 217.042969 304.046875 229.535156 C 299.988281 242.078125 293.867188 253.945312 286.371094 264.847656 C 278.691406 275.621094 269.640625 285.433594 259.242188 293.546875 Z M 289.125 266.65625 L 289.128906 266.644531 C 296.78125 255.507812 303.042969 243.394531 307.210938 230.578125 C 311.523438 217.8125 313.8125 204.433594 314.355469 191.054688 L 314.503906 184.785156 C 314.503906 184.785156 314.484375 183.058594 314.460938 180.46875 C 314.503906 177.875 314.203125 174.433594 314.03125 170.984375 C 313.644531 167.554688 313.378906 164.113281 312.914062 161.566406 C 312.519531 159.007812 312.257812 157.304688 312.257812 157.304688 C 312.257812 157.304688 312.1875 156.878906 312.039062 156.136719 C 311.898438 155.398438 311.691406 154.339844 311.445312 153.070312 C 311.019531 150.511719 310.136719 147.179688 309.332031 143.824219 C 308.875 142.160156 308.363281 140.511719 307.914062 138.960938 C 307.683594 138.183594 307.460938 137.433594 307.25 136.722656 C 307.007812 136.023438 306.777344 135.363281 306.5625 134.75 C 305.710938 132.308594 305.144531 130.679688 305.144531 130.679688 C 305.144531 130.679688 305.039062 130.300781 304.816406 129.757812 C 304.601562 129.210938 304.320312 128.480469 304.039062 127.75 C 303.472656 126.289062 302.902344 124.828125 302.902344 124.828125 C 302.753906 124.4375 302.597656 124.027344 302.433594 123.601562 C 302.25 123.179688 302.054688 122.746094 301.855469 122.292969 C 301.453125 121.386719 301.015625 120.410156 300.554688 119.375 C 299.675781 117.28125 298.46875 115.035156 297.203125 112.554688 C 296.882812 111.9375 296.574219 111.296875 296.21875 110.664062 C 295.855469 110.035156 295.484375 109.394531 295.109375 108.746094 C 294.351562 107.441406 293.566406 106.09375 292.757812 104.699219 C 290.980469 102.019531 289.226562 99.078125 287.0625 96.222656 C 278.84375 84.507812 266.820312 72.394531 253.058594 62.679688 C 239.222656 53.074219 223.722656 45.921875 209.898438 42.210938 C 206.480469 41.15625 203.113281 40.515625 199.988281 39.761719 C 198.402344 39.480469 196.867188 39.203125 195.382812 38.941406 C 194.640625 38.808594 193.914062 38.679688 193.199219 38.554688 C 192.484375 38.4375 191.773438 38.367188 191.085938 38.273438 C 188.320312 37.9375 185.800781 37.570312 183.53125 37.460938 C 182.398438 37.382812 181.335938 37.308594 180.34375 37.238281 C 179.851562 37.203125 179.375 37.171875 178.917969 37.144531 C 178.457031 37.136719 178.019531 37.128906 177.601562 37.121094 C 177.601562 37.121094 176.035156 37.089844 174.46875 37.054688 C 173.6875 37.039062 172.902344 37.023438 172.316406 37.011719 C 171.730469 36.988281 171.339844 37.019531 171.339844 37.019531 C 171.339844 37.019531 169.613281 37.042969 167.027344 37.078125 C 166.378906 37.089844 165.679688 37.097656 164.9375 37.109375 C 164.199219 37.15625 163.417969 37.203125 162.609375 37.25 C 160.996094 37.359375 159.273438 37.441406 157.554688 37.585938 C 154.128906 37.972656 150.691406 38.289062 148.144531 38.761719 C 146.867188 38.964844 145.804688 39.136719 145.058594 39.253906 C 144.3125 39.371094 143.886719 39.449219 143.886719 39.449219 C 143.886719 39.449219 142.199219 39.785156 139.660156 40.289062 C 137.105469 40.722656 133.78125 41.65625 130.425781 42.464844 C 127.128906 43.480469 123.789062 44.378906 121.367188 45.308594 C 118.925781 46.171875 117.296875 46.746094 117.296875 46.746094 L 111.457031 49.03125 C 99.074219 54.121094 87.285156 60.851562 76.769531 69.273438 C 66.152344 77.578125 56.914062 87.609375 49.066406 98.609375 L 49.058594 98.617188 L 48.949219 98.773438 L 48.941406 98.785156 C 41.292969 109.921875 35.03125 122.039062 30.863281 134.855469 C 26.550781 147.617188 24.261719 160.996094 23.71875 174.375 L 23.570312 180.644531 C 23.570312 180.644531 23.589844 182.375 23.613281 184.960938 C 23.570312 187.554688 23.867188 191 24.042969 194.445312 C 24.429688 197.875 24.691406 201.320312 25.160156 203.867188 C 25.554688 206.425781 25.816406 208.128906 25.816406 208.128906 C 25.816406 208.128906 25.886719 208.554688 26.03125 209.292969 C 26.175781 210.035156 26.382812 211.09375 26.628906 212.363281 C 27.054688 214.917969 27.9375 218.253906 28.742188 221.609375 C 29.199219 223.269531 29.710938 224.917969 30.160156 226.472656 C 30.390625 227.246094 30.613281 227.996094 30.824219 228.707031 C 31.066406 229.40625 31.296875 230.070312 31.511719 230.679688 C 32.359375 233.125 32.929688 234.753906 32.929688 234.753906 C 32.929688 234.753906 33.035156 235.128906 33.257812 235.671875 C 33.46875 236.222656 33.753906 236.953125 34.035156 237.679688 C 34.601562 239.140625 35.171875 240.601562 35.171875 240.601562 C 35.320312 240.992188 35.476562 241.402344 35.640625 241.832031 C 35.824219 242.25 36.019531 242.6875 36.21875 243.140625 C 36.621094 244.046875 37.058594 245.019531 37.519531 246.054688 C 38.398438 248.152344 39.605469 250.394531 40.871094 252.875 C 41.191406 253.492188 41.5 254.136719 41.855469 254.765625 C 42.21875 255.394531 42.589844 256.035156 42.964844 256.6875 C 43.722656 257.988281 44.503906 259.339844 45.3125 260.730469 C 47.09375 263.414062 48.847656 266.355469 51.011719 269.207031 C 59.230469 280.925781 71.253906 293.035156 85.015625 302.75 C 98.851562 312.355469 114.351562 319.507812 128.171875 323.21875 C 131.59375 324.273438 134.957031 324.917969 138.085938 325.667969 C 139.671875 325.953125 141.207031 326.226562 142.691406 326.492188 C 143.433594 326.625 144.160156 326.75 144.875 326.878906 C 145.589844 326.996094 146.296875 327.066406 146.988281 327.15625 C 149.753906 327.496094 152.273438 327.863281 154.542969 327.972656 C 155.675781 328.050781 156.738281 328.125 157.730469 328.195312 C 158.222656 328.226562 158.699219 328.257812 159.15625 328.289062 C 159.617188 328.296875 160.054688 328.304688 160.472656 328.3125 C 160.472656 328.3125 162.039062 328.34375 163.605469 328.375 C 164.386719 328.390625 165.171875 328.410156 165.757812 328.421875 C 166.34375 328.441406 166.734375 328.414062 166.734375 328.414062 C 166.734375 328.414062 168.460938 328.390625 171.046875 328.351562 C 171.695312 328.34375 172.394531 328.332031 173.136719 328.324219 C 173.875 328.277344 174.65625 328.230469 175.460938 328.179688 C 177.078125 328.070312 178.800781 327.988281 180.519531 327.847656 C 183.945312 327.457031 187.382812 327.144531 189.929688 326.667969 C 191.207031 326.46875 192.269531 326.296875 193.015625 326.179688 C 193.761719 326.0625 194.183594 325.984375 194.183594 325.984375 C 194.183594 325.984375 195.875 325.648438 198.414062 325.144531 C 200.96875 324.707031 204.292969 323.777344 207.648438 322.964844 C 210.945312 321.949219 214.285156 321.050781 216.703125 320.121094 C 219.148438 319.257812 220.777344 318.683594 220.777344 318.683594 L 226.617188 316.398438 C 239 311.308594 250.789062 304.578125 261.304688 296.160156 C 271.921875 287.855469 281.160156 277.824219 289.007812 266.824219 L 289.015625 266.816406 L 289.070312 266.738281 L 289.125 266.65625 " fill-opacity="1" fill-rule="nonzero"/></g></g></g><g clip-path="url(#fa3ec7fc0a)"><g clip-path="url(#321f8879c9)"><g clip-path="url(#54819d56f7)"><g clip-path="url(#12ec1e99a0)"><path fill="#f8f7f4" d="M 207.183594 357.195312 C 210.269531 348.945312 214.265625 340.972656 219.4375 333.753906 C 224.675781 326.601562 231.121094 320.242188 238.636719 315.398438 C 242.371094 312.960938 246.425781 310.992188 250.371094 309.113281 C 254.320312 307.183594 258.234375 305.183594 262.105469 303.113281 C 269.832031 298.953125 277.375 294.445312 284.394531 289.238281 C 291.472656 284.113281 298.050781 278.285156 303.6875 271.636719 C 309.40625 265.042969 313.976562 257.527344 317.773438 249.675781 C 325.230469 233.867188 328.519531 216.078125 327.15625 198.496094 C 328.300781 207.242188 328.164062 216.167969 326.886719 224.9375 C 325.46875 233.679688 323.035156 242.300781 319.386719 250.40625 C 315.773438 258.53125 311.046875 266.1875 305.292969 272.992188 C 299.582031 279.835938 292.917969 285.839844 285.757812 291.09375 C 278.574219 296.335938 270.90625 300.832031 263.089844 304.964844 C 259.171875 307.019531 255.214844 309 251.234375 310.902344 C 247.222656 312.8125 243.289062 314.601562 239.574219 316.894531 C 232.140625 321.429688 225.691406 327.503906 220.335938 334.425781 C 214.925781 341.324219 210.75 349.140625 207.183594 357.195312 " fill-opacity="1" fill-rule="nonzero"/></g></g></g></g><g clip-path="url(#b6826e7236)"><g clip-path="url(#299e7258a2)"><g clip-path="url(#50c8a79222)"><path fill="#f8f7f4" d="M 227.011719 336.988281 C 225.335938 336.835938 223.636719 336.949219 221.992188 337.269531 C 220.34375 337.597656 218.734375 338.128906 217.277344 338.953125 L 217.195312 338.808594 C 219.226562 337.648438 220.679688 335.777344 222.363281 334.152344 C 224.054688 332.476562 226.238281 331.414062 228.410156 330.539062 C 232.816406 328.820312 237.796875 328.464844 242.433594 329.617188 C 247.082031 330.710938 251.300781 332.875 255.6875 334.203125 C 257.875 334.855469 260.109375 335.367188 262.359375 335.488281 C 264.597656 335.613281 266.855469 335.320312 268.890625 334.4375 L 274.15625 332.144531 L 269.566406 335.566406 C 266.546875 337.820312 263.117188 339.5 259.523438 340.507812 C 255.933594 341.539062 252.203125 342.007812 248.492188 341.902344 C 244.78125 341.832031 241.113281 341.167969 237.578125 340.113281 C 234.058594 339.050781 230.699219 337.394531 227.011719 336.988281 Z M 227.011719 336.988281 C 230.703125 337.339844 234.105469 338.941406 237.628906 339.945312 C 241.160156 340.980469 244.839844 341.453125 248.496094 341.375 C 252.152344 341.332031 255.785156 340.722656 259.234375 339.578125 C 262.691406 338.464844 265.890625 336.679688 268.757812 334.515625 L 269.433594 335.648438 C 267.1875 336.667969 264.699219 337.023438 262.289062 336.925781 C 259.871094 336.84375 257.507812 336.339844 255.25 335.597656 C 250.730469 334.109375 246.566406 331.980469 242.144531 330.761719 C 237.757812 329.484375 232.988281 329.621094 228.621094 331.117188 C 226.457031 331.886719 224.296875 332.832031 222.589844 334.394531 C 220.847656 335.902344 219.359375 337.804688 217.277344 338.953125 L 217.195312 338.808594 C 218.691406 338.003906 220.320312 337.496094 221.980469 337.191406 C 223.640625 336.894531 225.339844 336.8125 227.011719 336.988281 " fill-opacity="1" fill-rule="nonzero"/></g></g></g><g clip-path="url(#a5efc28c96)"><g clip-path="url(#f141c0702d)"><g clip-path="url(#3070e55217)"><path fill="#f8f7f4" d="M 240.902344 322.550781 C 238.800781 322.351562 236.675781 322.484375 234.609375 322.878906 C 232.546875 323.273438 230.515625 323.945312 228.691406 324.984375 L 228.617188 324.851562 C 231.160156 323.378906 232.96875 321.027344 235.085938 318.992188 C 236.136719 317.96875 237.351562 317.058594 238.648438 316.355469 C 239.9375 315.632812 241.28125 315 242.660156 314.46875 C 248.175781 312.316406 254.417969 311.871094 260.230469 313.308594 C 266.050781 314.683594 271.363281 317.339844 276.835938 319.046875 C 279.574219 319.882812 282.378906 320.515625 285.195312 320.652344 C 288 320.789062 290.820312 320.421875 293.375 319.332031 L 300.105469 316.460938 L 294.242188 320.78125 C 290.441406 323.585938 286.148438 325.695312 281.644531 326.960938 C 277.140625 328.253906 272.464844 328.835938 267.820312 328.703125 C 263.171875 328.617188 258.570312 327.792969 254.152344 326.441406 C 249.753906 325.082031 245.523438 323.054688 240.902344 322.550781 Z M 240.902344 322.550781 C 245.535156 323 249.777344 325.054688 254.203125 326.273438 C 258.628906 327.546875 263.242188 328.140625 267.824219 328.042969 C 272.40625 327.992188 276.964844 327.226562 281.28125 325.796875 C 285.613281 324.398438 289.625 322.164062 293.203125 319.4375 L 294.070312 320.890625 C 291.261719 322.191406 288.128906 322.625 285.109375 322.492188 C 282.078125 322.371094 279.117188 321.726562 276.285156 320.816406 C 270.601562 319.003906 265.40625 316.269531 259.863281 314.75 C 254.367188 313.148438 248.394531 313.316406 242.921875 315.191406 C 240.210938 316.15625 237.507812 317.339844 235.363281 319.296875 C 233.183594 321.195312 231.304688 323.5625 228.691406 324.984375 L 228.617188 324.851562 C 230.492188 323.855469 232.527344 323.214844 234.601562 322.824219 C 236.679688 322.449219 238.804688 322.335938 240.902344 322.550781 " fill-opacity="1" fill-rule="nonzero"/></g></g></g><g clip-path="url(#ebfecafb1d)"><g clip-path="url(#a427fdb6a1)"><g clip-path="url(#35f1b02f50)"><path fill="#f8f7f4" d="M 260.105469 307.976562 C 257.214844 307.402344 254.148438 307.59375 251.421875 308.695312 L 251.367188 308.5625 C 253.253906 307.757812 254.710938 306.277344 256.347656 305.03125 C 257.988281 303.742188 259.996094 303.039062 261.980469 302.5 C 265.988281 301.453125 270.363281 301.644531 274.289062 303.117188 C 278.21875 304.542969 281.679688 306.855469 285.363281 308.460938 C 287.207031 309.25 289.097656 309.925781 291.042969 310.257812 C 292.984375 310.59375 294.984375 310.566406 296.84375 310.003906 L 301.660156 308.542969 L 297.316406 311.058594 C 294.457031 312.714844 291.300781 313.828125 288.066406 314.339844 C 284.832031 314.875 281.535156 314.902344 278.320312 314.433594 C 275.09375 314 271.960938 313.046875 268.996094 311.765625 C 266.03125 310.488281 263.273438 308.710938 260.105469 307.976562 Z M 260.105469 307.976562 C 263.285156 308.652344 266.085938 310.398438 269.054688 311.628906 C 272.019531 312.886719 275.179688 313.667969 278.371094 313.972656 C 281.5625 314.3125 284.792969 314.148438 287.910156 313.503906 C 291.035156 312.878906 294 311.648438 296.71875 310.058594 L 297.191406 311.113281 C 295.136719 311.773438 292.929688 311.828125 290.839844 311.5 C 288.742188 311.179688 286.734375 310.503906 284.839844 309.628906 C 281.054688 307.878906 277.652344 305.597656 273.917969 304.085938 C 270.226562 302.527344 266.058594 302.164062 262.105469 303.027344 C 260.140625 303.472656 258.164062 304.074219 256.515625 305.265625 C 254.84375 306.40625 253.359375 307.90625 251.421875 308.695312 L 251.371094 308.5625 C 254.144531 307.496094 257.226562 307.355469 260.105469 307.976562 " fill-opacity="1" fill-rule="nonzero"/></g></g></g><g clip-path="url(#43dc413123)"><g clip-path="url(#b8cfb64387)"><g clip-path="url(#a40a76b8fd)"><path fill="#f8f7f4" d="M 282.054688 296.890625 C 279.167969 296.320312 276.097656 296.515625 273.371094 297.613281 L 273.320312 297.484375 C 275.207031 296.675781 276.660156 295.199219 278.296875 293.949219 C 279.9375 292.660156 281.945312 291.957031 283.929688 291.417969 C 287.9375 290.371094 292.316406 290.5625 296.238281 292.039062 C 300.175781 293.464844 303.628906 295.773438 307.3125 297.378906 C 309.15625 298.167969 311.046875 298.84375 312.996094 299.179688 C 314.933594 299.511719 316.933594 299.484375 318.792969 298.921875 L 323.613281 297.457031 L 319.265625 299.976562 C 316.410156 301.632812 313.25 302.746094 310.015625 303.261719 C 306.789062 303.796875 303.488281 303.824219 300.269531 303.355469 C 297.042969 302.917969 293.910156 301.964844 290.945312 300.6875 C 287.980469 299.40625 285.226562 297.625 282.054688 296.890625 Z M 282.054688 296.890625 C 285.238281 297.574219 288.039062 299.316406 291.003906 300.546875 C 293.96875 301.808594 297.128906 302.589844 300.320312 302.894531 C 303.515625 303.230469 306.742188 303.070312 309.859375 302.421875 C 312.984375 301.800781 315.953125 300.566406 318.667969 298.976562 L 319.140625 300.03125 C 317.085938 300.695312 314.878906 300.75 312.792969 300.421875 C 310.691406 300.097656 308.683594 299.421875 306.796875 298.546875 C 303.003906 296.796875 299.597656 294.515625 295.867188 293.007812 C 292.175781 291.449219 288.007812 291.085938 284.054688 291.941406 C 282.089844 292.390625 280.113281 292.992188 278.464844 294.183594 C 276.796875 295.328125 275.308594 296.828125 273.375 297.613281 L 273.320312 297.484375 C 276.09375 296.414062 279.175781 296.277344 282.054688 296.890625 " fill-opacity="1" fill-rule="nonzero"/></g></g></g><g clip-path="url(#042645411e)"><g clip-path="url(#e41eca7101)"><g clip-path="url(#4e462941f2)"><path fill="#f8f7f4" d="M 296.394531 285.5 C 293.457031 285.378906 290.449219 286.039062 287.925781 287.546875 L 287.859375 287.425781 C 289.59375 286.339844 290.804688 284.648438 292.230469 283.167969 C 293.65625 281.644531 295.53125 280.640625 297.410156 279.800781 C 301.207031 278.148438 305.5625 277.667969 309.660156 278.519531 C 313.769531 279.320312 317.539062 281.074219 321.429688 282.089844 C 323.371094 282.589844 325.34375 282.960938 327.316406 282.996094 C 329.289062 283.023438 331.257812 282.691406 333.011719 281.851562 L 337.546875 279.664062 L 333.640625 282.816406 C 331.066406 284.898438 328.117188 286.480469 325.003906 287.488281 C 321.894531 288.511719 318.636719 289.046875 315.386719 289.078125 C 312.132812 289.148438 308.894531 288.6875 305.765625 287.878906 C 302.636719 287.070312 299.640625 285.734375 296.394531 285.5 Z M 296.394531 285.5 C 299.644531 285.683594 302.679688 286.976562 305.800781 287.730469 C 308.925781 288.523438 312.167969 288.804688 315.371094 288.617188 C 318.574219 288.457031 321.738281 287.800781 324.71875 286.683594 C 327.714844 285.589844 330.453125 283.914062 332.894531 281.925781 L 333.523438 282.890625 C 331.589844 283.867188 329.421875 284.253906 327.308594 284.257812 C 325.183594 284.261719 323.09375 283.898438 321.09375 283.324219 C 317.082031 282.179688 313.363281 280.449219 309.445312 279.535156 C 305.558594 278.5625 301.386719 278.839844 297.609375 280.300781 C 295.738281 281.050781 293.878906 281.945312 292.429688 283.375 C 290.957031 284.761719 289.71875 286.476562 287.925781 287.546875 L 287.859375 287.425781 C 290.433594 285.941406 293.457031 285.328125 296.394531 285.5 " fill-opacity="1" fill-rule="nonzero"/></g></g></g><g clip-path="url(#e3d1210bdb)"><g clip-path="url(#f9af5ad387)"><g clip-path="url(#ba70d3eb94)"><path fill="#f8f7f4" d="M 305.707031 275.847656 C 302.804688 276.347656 300.007812 277.632812 297.863281 279.636719 L 297.765625 279.535156 C 299.238281 278.101562 300.066406 276.199219 301.140625 274.449219 C 302.210938 272.652344 303.832031 271.277344 305.488281 270.0625 C 308.851562 267.644531 313.007812 266.25 317.199219 266.214844 C 321.382812 266.136719 325.4375 267.050781 329.453125 267.222656 C 331.453125 267.296875 333.464844 267.25 335.398438 266.859375 C 337.328125 266.476562 339.183594 265.734375 340.722656 264.539062 L 344.691406 261.445312 L 341.542969 265.351562 C 339.472656 267.925781 336.921875 270.097656 334.089844 271.742188 C 331.261719 273.398438 328.199219 274.609375 325.023438 275.328125 C 321.859375 276.085938 318.597656 276.320312 315.363281 276.191406 C 312.136719 276.0625 308.925781 275.386719 305.707031 275.847656 Z M 305.707031 275.847656 C 308.917969 275.339844 312.160156 275.960938 315.371094 276.039062 C 318.59375 276.148438 321.820312 275.746094 324.910156 274.878906 C 328.007812 274.050781 330.964844 272.738281 333.640625 271.011719 C 336.335938 269.3125 338.660156 267.097656 340.625 264.636719 L 341.445312 265.449219 C 339.761719 266.804688 337.722656 267.652344 335.65625 268.09375 C 333.585938 268.550781 331.460938 268.636719 329.386719 268.503906 C 325.226562 268.226562 321.226562 267.324219 317.199219 267.253906 C 313.191406 267.125 309.175781 268.285156 305.792969 270.507812 C 304.121094 271.636719 302.496094 272.902344 301.382812 274.605469 C 300.230469 276.269531 299.382812 278.207031 297.863281 279.636719 L 297.761719 279.53125 C 299.96875 277.535156 302.792969 276.300781 305.707031 275.847656 " fill-opacity="1" fill-rule="nonzero"/></g></g></g><g clip-path="url(#a2f52d8ca7)"><g clip-path="url(#8a2b10a4de)"><g clip-path="url(#3fade83aef)"><path fill="#f8f7f4" d="M 317.742188 260.226562 C 315.402344 260.628906 313.144531 261.664062 311.40625 263.285156 L 311.332031 263.199219 C 312.519531 262.046875 313.1875 260.507812 314.058594 259.09375 C 314.917969 257.648438 316.230469 256.535156 317.570312 255.554688 C 320.285156 253.601562 323.640625 252.476562 327.023438 252.445312 C 330.402344 252.382812 333.679688 253.121094 336.921875 253.261719 C 340.125 253.398438 343.511719 253.054688 346.023438 251.089844 L 349.242188 248.582031 L 346.6875 251.75 C 345.015625 253.828125 342.957031 255.582031 340.667969 256.910156 C 338.386719 258.25 335.910156 259.230469 333.347656 259.808594 C 330.789062 260.417969 328.152344 260.605469 325.542969 260.503906 C 322.9375 260.394531 320.34375 259.855469 317.742188 260.226562 Z M 317.742188 260.226562 C 320.339844 259.8125 322.957031 260.316406 325.546875 260.378906 C 328.152344 260.472656 330.761719 260.140625 333.257812 259.445312 C 335.753906 258.773438 338.144531 257.714844 340.304688 256.324219 C 342.484375 254.949219 344.359375 253.160156 345.945312 251.171875 L 346.609375 251.828125 C 345.25 252.925781 343.605469 253.605469 341.9375 253.960938 C 340.261719 254.332031 338.546875 254.40625 336.871094 254.292969 C 333.507812 254.070312 330.277344 253.339844 327.027344 253.285156 C 323.792969 253.183594 320.546875 254.117188 317.8125 255.910156 C 316.464844 256.824219 315.148438 257.847656 314.25 259.222656 C 313.324219 260.566406 312.640625 262.132812 311.40625 263.285156 L 311.332031 263.199219 C 313.113281 261.59375 315.394531 260.59375 317.742188 260.226562 " fill-opacity="1" fill-rule="nonzero"/></g></g></g><g clip-path="url(#02b22284c9)"><g clip-path="url(#99e3ddefee)"><g clip-path="url(#74dc630f19)"><path fill="#f8f7f4" d="M 324.019531 250.003906 C 321.679688 250.40625 319.421875 251.441406 317.683594 253.0625 L 317.609375 252.984375 C 318.796875 251.824219 319.46875 250.285156 320.335938 248.875 C 321.203125 247.425781 322.511719 246.3125 323.847656 245.332031 C 326.5625 243.378906 329.917969 242.253906 333.304688 242.226562 C 336.6875 242.160156 339.960938 242.898438 343.199219 243.039062 C 346.402344 243.175781 349.789062 242.835938 352.300781 240.875 L 355.519531 238.359375 L 352.964844 241.53125 C 351.292969 243.605469 349.234375 245.359375 346.949219 246.6875 C 344.664062 248.027344 342.1875 249.007812 339.625 249.585938 C 337.066406 250.195312 334.429688 250.390625 331.820312 250.28125 C 329.21875 250.175781 326.621094 249.632812 324.019531 250.003906 Z M 324.019531 250.003906 C 326.617188 249.59375 329.234375 250.09375 331.828125 250.164062 C 334.429688 250.25 337.039062 249.921875 339.535156 249.226562 C 342.035156 248.554688 344.421875 247.492188 346.585938 246.101562 C 348.761719 244.730469 350.636719 242.9375 352.230469 240.949219 L 352.886719 241.605469 C 351.53125 242.703125 349.882812 243.382812 348.214844 243.746094 C 346.542969 244.109375 344.824219 244.183594 343.148438 244.070312 C 339.785156 243.851562 336.554688 243.117188 333.308594 243.0625 C 330.074219 242.960938 326.828125 243.894531 324.09375 245.6875 C 322.742188 246.601562 321.425781 247.628906 320.53125 249 C 319.601562 250.347656 318.917969 251.910156 317.691406 253.0625 L 317.609375 252.984375 C 319.390625 251.371094 321.671875 250.371094 324.019531 250.003906 " fill-opacity="1" fill-rule="nonzero"/></g></g></g><g clip-path="url(#9087844f20)"><g clip-path="url(#6e0b23e7b3)"><g clip-path="url(#3a47969794)"><path fill="#f8f7f4" d="M 327.769531 239.773438 C 325.484375 240.410156 323.335938 241.667969 321.777344 243.453125 L 321.695312 243.382812 C 322.757812 242.113281 323.269531 240.515625 323.992188 239.019531 C 324.703125 237.492188 325.894531 236.257812 327.128906 235.144531 C 329.636719 232.925781 332.859375 231.46875 336.222656 231.101562 C 339.582031 230.699219 342.914062 231.105469 346.15625 230.917969 C 349.355469 230.734375 352.6875 230.046875 354.992188 227.84375 L 357.941406 225.019531 L 355.71875 228.429688 C 354.261719 230.664062 352.390625 232.621094 350.246094 234.167969 C 348.113281 235.730469 345.746094 236.957031 343.253906 237.789062 C 340.769531 238.652344 338.171875 239.105469 335.5625 239.265625 C 332.960938 239.421875 330.328125 239.144531 327.769531 239.773438 Z M 327.769531 239.773438 C 330.3125 239.105469 332.96875 239.339844 335.554688 239.144531 C 338.148438 238.96875 340.714844 238.386719 343.128906 237.441406 C 345.546875 236.515625 347.820312 235.226562 349.832031 233.621094 C 351.855469 232.035156 353.542969 230.066406 354.925781 227.929688 L 355.648438 228.515625 C 354.40625 229.742188 352.835938 230.585938 351.210938 231.113281 C 349.582031 231.648438 347.886719 231.886719 346.207031 231.945312 C 342.839844 232.0625 339.550781 231.664062 336.3125 231.933594 C 333.082031 232.160156 329.949219 233.410156 327.410156 235.472656 C 326.15625 236.519531 324.949219 237.667969 324.199219 239.128906 C 323.410156 240.558594 322.886719 242.183594 321.777344 243.453125 L 321.695312 243.382812 C 323.300781 241.597656 325.472656 240.375 327.769531 239.773438 " fill-opacity="1" fill-rule="nonzero"/></g></g></g><g clip-path="url(#3072af93f2)"><g clip-path="url(#600d3d86c5)"><g clip-path="url(#87853b5128)"><g clip-path="url(#6136d08b9d)"><path fill="#f8f7f4" d="M 330.640625 229.628906 C 328.425781 230.492188 326.414062 231.953125 325.039062 233.886719 L 324.949219 233.820312 C 325.878906 232.453125 326.226562 230.8125 326.800781 229.253906 C 327.363281 227.664062 328.425781 226.3125 329.542969 225.085938 C 331.816406 222.632812 334.882812 220.867188 338.195312 220.167969 C 341.492188 219.429688 344.851562 219.503906 348.058594 219 C 351.21875 218.5 354.472656 217.488281 356.546875 215.066406 L 359.199219 211.96875 L 357.328125 215.578125 C 356.101562 217.945312 354.429688 220.078125 352.453125 221.832031 C 350.480469 223.597656 348.246094 225.050781 345.847656 226.125 C 343.464844 227.226562 340.917969 227.9375 338.339844 228.355469 C 335.769531 228.765625 333.117188 228.753906 330.640625 229.628906 Z M 330.640625 229.628906 C 333.101562 228.710938 335.765625 228.683594 338.320312 228.234375 C 340.886719 227.800781 343.378906 226.964844 345.6875 225.785156 C 348.007812 224.632812 350.140625 223.117188 351.980469 221.328125 C 353.839844 219.546875 355.328125 217.421875 356.484375 215.160156 L 357.265625 215.671875 C 356.152344 217.015625 354.675781 218.007812 353.105469 218.691406 C 351.539062 219.386719 349.875 219.792969 348.210938 220.019531 C 344.871094 220.464844 341.558594 220.398438 338.359375 220.988281 C 335.171875 221.527344 332.175781 223.085938 329.851562 225.386719 C 328.714844 226.546875 327.625 227.816406 327.019531 229.339844 C 326.375 230.839844 326.011719 232.511719 325.039062 233.886719 L 324.949219 233.820312 C 326.371094 231.890625 328.410156 230.457031 330.640625 229.628906 " fill-opacity="1" fill-rule="nonzero"/></g></g></g></g><g clip-path="url(#62fafe8c67)"><g clip-path="url(#3dd0332eed)"><g clip-path="url(#135ae01239)"><path fill="#f8f7f4" d="M 330.851562 221.453125 C 329.035156 222.988281 327.605469 225.019531 326.925781 227.292969 L 326.816406 227.257812 C 327.257812 225.660156 327.0625 223.996094 327.101562 222.339844 C 327.121094 220.65625 327.6875 219.03125 328.351562 217.507812 C 329.71875 214.453125 332.046875 211.792969 334.957031 210.0625 C 337.847656 208.304688 341.046875 207.292969 343.917969 205.78125 C 346.757812 204.289062 349.507812 202.285156 350.695312 199.328125 L 352.203125 195.535156 L 351.597656 199.5625 C 351.199219 202.199219 350.304688 204.75 348.996094 207.046875 C 347.695312 209.359375 346.046875 211.445312 344.128906 213.238281 C 342.226562 215.050781 340.042969 216.542969 337.738281 217.773438 C 335.433594 218.988281 332.917969 219.828125 330.851562 221.453125 Z M 330.851562 221.453125 C 332.894531 219.796875 335.402344 218.914062 337.679688 217.664062 C 339.972656 216.429688 342.0625 214.832031 343.863281 212.972656 C 345.6875 211.132812 347.21875 209.015625 348.386719 206.726562 C 349.574219 204.441406 350.296875 201.949219 350.664062 199.433594 L 351.570312 199.667969 C 350.949219 201.300781 349.867188 202.714844 348.605469 203.867188 C 347.34375 205.027344 345.902344 205.949219 344.394531 206.699219 C 341.378906 208.199219 338.21875 209.195312 335.382812 210.785156 C 332.539062 212.328125 330.203125 214.765625 328.746094 217.695312 C 328.039062 219.160156 327.417969 220.710938 327.335938 222.351562 C 327.210938 223.976562 327.40625 225.675781 326.925781 227.292969 L 326.816406 227.257812 C 327.542969 224.96875 329.007812 222.960938 330.851562 221.453125 " fill-opacity="1" fill-rule="nonzero"/></g></g></g><g clip-path="url(#a0cf724626)"><g clip-path="url(#d455278adf)"><g clip-path="url(#63f72ca07e)"><path fill="#f8f7f4" d="M 331.105469 212.78125 C 329.753906 214.300781 328.796875 216.199219 328.5 218.203125 L 328.40625 218.191406 C 328.582031 216.789062 328.210938 215.398438 328.035156 213.992188 C 327.847656 212.5625 328.128906 211.121094 328.5 209.75 C 329.273438 207 330.925781 204.457031 333.171875 202.632812 C 335.398438 200.785156 337.984375 199.539062 340.230469 197.902344 C 342.441406 196.289062 344.527344 194.25 345.160156 191.601562 L 345.972656 188.207031 L 345.957031 191.6875 C 345.941406 193.972656 345.5 196.242188 344.679688 198.347656 C 343.867188 200.457031 342.730469 202.4375 341.324219 204.1875 C 339.9375 205.957031 338.277344 207.492188 336.472656 208.816406 C 334.675781 210.132812 332.652344 211.148438 331.105469 212.78125 Z M 331.105469 212.78125 C 332.625 211.125 334.644531 210.0625 336.414062 208.726562 C 338.203125 207.398438 339.773438 205.792969 341.070312 203.996094 C 342.382812 202.210938 343.421875 200.230469 344.125 198.148438 C 344.847656 196.070312 345.148438 193.867188 345.152344 191.691406 L 345.945312 191.78125 C 345.257812 194.730469 343.074219 197 340.742188 198.621094 C 338.375 200.261719 335.824219 201.496094 333.621094 203.191406 C 331.402344 204.847656 329.726562 207.199219 328.855469 209.863281 C 328.4375 211.1875 328.105469 212.578125 328.238281 213.972656 C 328.332031 215.371094 328.707031 216.777344 328.5 218.203125 L 328.40625 218.191406 C 328.738281 216.164062 329.734375 214.285156 331.105469 212.78125 " fill-opacity="1" fill-rule="nonzero"/></g></g></g><g clip-path="url(#4a50f350eb)"><g clip-path="url(#5f1e65fdfb)"><g clip-path="url(#52d4686d40)"><path fill="#f8f7f4" d="M 225.242188 337.335938 C 223.140625 336.878906 220.894531 336.980469 218.894531 337.753906 L 218.855469 337.65625 C 220.246094 337.089844 221.324219 336.027344 222.539062 335.136719 C 223.75 334.214844 225.230469 333.726562 226.683594 333.355469 C 229.625 332.644531 232.824219 332.839844 235.671875 333.964844 C 238.53125 335.054688 241.023438 336.789062 243.699219 338.007812 C 246.335938 339.210938 249.296875 340.074219 252.070312 339.277344 L 255.617188 338.261719 L 252.402344 340.054688 C 250.292969 341.230469 247.96875 342.003906 245.601562 342.339844 C 243.234375 342.6875 240.820312 342.667969 238.472656 342.285156 C 236.121094 341.925781 233.847656 341.191406 231.695312 340.21875 C 229.546875 339.246094 227.554688 337.910156 225.242188 337.335938 Z M 225.242188 337.335938 C 227.558594 337.875 229.585938 339.183594 231.742188 340.117188 C 233.890625 341.074219 236.191406 341.6875 238.523438 341.953125 C 240.847656 342.234375 243.210938 342.160156 245.5 341.726562 C 247.789062 341.3125 249.972656 340.445312 251.976562 339.316406 L 252.3125 340.09375 C 249.238281 340.996094 246.007812 340.160156 243.304688 338.855469 C 240.558594 337.527344 238.097656 335.816406 235.386719 334.667969 C 232.710938 333.480469 229.671875 333.164062 226.769531 333.742188 C 225.324219 334.046875 223.878906 334.460938 222.65625 335.3125 C 221.421875 336.125 220.316406 337.203125 218.894531 337.753906 L 218.855469 337.65625 C 220.894531 336.914062 223.148438 336.851562 225.242188 337.335938 " fill-opacity="1" fill-rule="nonzero"/></g></g></g><g clip-path="url(#4d4b3c3b8f)"><g clip-path="url(#6eb8d4047c)"><g clip-path="url(#b881ef661d)"><path fill="#f8f7f4" d="M 219.839844 327.953125 C 220.519531 330.542969 220.519531 333.359375 219.660156 335.925781 L 219.542969 335.878906 C 220.175781 334.089844 221.480469 332.675781 222.453125 331.109375 C 223.46875 329.5625 223.9375 327.738281 224.265625 325.929688 C 224.886719 322.292969 224.386719 318.511719 222.816406 315.214844 C 221.289062 311.882812 219.078125 308.867188 217.332031 305.496094 C 216.453125 303.808594 215.753906 302.003906 215.375 300.109375 C 214.996094 298.21875 214.953125 296.210938 215.472656 294.308594 L 216.453125 294.695312 C 215.113281 297.234375 214.109375 299.988281 213.671875 302.859375 C 213.214844 305.722656 213.199219 308.667969 213.628906 311.5625 C 214.039062 314.457031 214.882812 317.300781 216.148438 319.953125 C 217.390625 322.601562 219.089844 325.082031 219.839844 327.953125 Z M 219.839844 327.953125 C 219.046875 325.09375 217.3125 322.65625 216.027344 320.011719 C 214.738281 317.359375 213.742188 314.550781 213.21875 311.628906 C 212.660156 308.722656 212.546875 305.71875 212.902344 302.75 C 213.242188 299.785156 214.125 296.863281 215.519531 294.195312 L 217.636719 290.121094 L 216.5 294.582031 C 215.601562 298.066406 216.78125 301.726562 218.371094 304.96875 C 219.980469 308.261719 222.226562 311.316406 223.683594 314.839844 C 225.183594 318.351562 225.539062 322.324219 224.75 326.019531 C 224.335938 327.847656 223.777344 329.707031 222.675781 331.253906 C 221.605469 332.789062 220.316406 334.179688 219.660156 335.925781 L 219.542969 335.886719 C 220.429688 333.359375 220.480469 330.558594 219.839844 327.953125 " fill-opacity="1" fill-rule="nonzero"/></g></g></g><g clip-path="url(#a9084730ff)"><g clip-path="url(#eab06d6f13)"><g clip-path="url(#a94f8ab423)"><path fill="#f8f7f4" d="M 217.757812 330.5 C 218.570312 332.488281 218.871094 334.722656 218.457031 336.855469 L 218.363281 336.835938 C 218.675781 335.34375 219.566406 334.082031 220.171875 332.730469 C 220.8125 331.390625 220.988281 329.890625 221.058594 328.421875 C 221.167969 325.464844 220.363281 322.515625 218.765625 320.058594 C 217.199219 317.574219 215.113281 315.414062 213.367188 312.917969 C 211.644531 310.457031 210.300781 307.402344 210.699219 304.222656 L 211.519531 304.429688 C 210.726562 306.589844 210.222656 308.882812 210.183594 311.210938 C 210.121094 313.539062 210.421875 315.882812 211.074219 318.132812 C 211.707031 320.390625 212.675781 322.558594 213.96875 324.53125 C 215.238281 326.507812 216.855469 328.300781 217.757812 330.5 Z M 217.757812 330.5 C 216.820312 328.3125 215.179688 326.558594 213.875 324.59375 C 212.574219 322.625 211.484375 320.496094 210.753906 318.234375 C 210 315.980469 209.589844 313.601562 209.554688 311.207031 C 209.511719 308.816406 209.902344 306.398438 210.722656 304.128906 L 211.976562 300.667969 L 211.542969 304.335938 C 211.207031 307.195312 212.53125 309.980469 214.140625 312.390625 C 215.769531 314.835938 217.878906 317.023438 219.414062 319.667969 C 220.980469 322.300781 221.683594 325.421875 221.453125 328.4375 C 221.320312 329.9375 221.070312 331.472656 220.355469 332.820312 C 219.675781 334.15625 218.796875 335.398438 218.457031 336.855469 L 218.363281 336.835938 C 218.796875 334.734375 218.542969 332.5 217.757812 330.5 " fill-opacity="1" fill-rule="nonzero"/></g></g></g><g clip-path="url(#9907610b58)"><g clip-path="url(#3641ba7695)"><g clip-path="url(#bfb6e7b54a)"><path fill="#f8f7f4" d="M 228.71875 318.5 C 228.867188 321.371094 228.253906 324.316406 226.792969 326.820312 L 226.671875 326.746094 C 227.730469 325.007812 229.414062 323.808594 230.769531 322.378906 C 232.171875 320.980469 233.0625 319.171875 233.800781 317.351562 C 235.25 313.671875 235.546875 309.605469 234.625 305.804688 C 233.753906 301.976562 232.089844 298.335938 230.996094 294.417969 C 230.449219 292.464844 230.105469 290.421875 230.128906 288.347656 C 230.140625 286.28125 230.535156 284.171875 231.496094 282.292969 L 232.4375 282.914062 C 230.480469 285.28125 228.828125 287.949219 227.742188 290.859375 C 226.632812 293.757812 225.972656 296.84375 225.800781 299.972656 C 225.589844 303.089844 225.851562 306.257812 226.601562 309.308594 C 227.320312 312.363281 228.5625 315.332031 228.71875 318.5 Z M 228.71875 318.5 C 228.515625 315.335938 227.230469 312.398438 226.457031 309.34375 C 225.6875 306.289062 225.261719 303.128906 225.347656 299.953125 C 225.398438 296.777344 225.941406 293.605469 226.957031 290.574219 C 227.960938 287.542969 229.527344 284.675781 231.570312 282.179688 L 234.667969 278.390625 L 232.507812 282.800781 C 231.671875 284.507812 231.335938 286.425781 231.359375 288.347656 C 231.375 290.273438 231.730469 292.199219 232.199219 294.097656 C 233.171875 297.898438 234.855469 301.589844 235.617188 305.601562 C 236.421875 309.613281 235.925781 313.851562 234.289062 317.546875 C 233.457031 319.378906 232.46875 321.199219 230.972656 322.582031 C 229.511719 323.957031 227.859375 325.132812 226.792969 326.820312 L 226.671875 326.746094 C 228.15625 324.296875 228.824219 321.371094 228.71875 318.5 " fill-opacity="1" fill-rule="nonzero"/></g></g></g><g clip-path="url(#943b2d9c09)"><g clip-path="url(#ac20de8bde)"><g clip-path="url(#5d578d2dcf)"><path fill="#f8f7f4" d="M 241.273438 308.023438 C 241.027344 310.957031 239.992188 313.863281 238.160156 316.203125 L 238.054688 316.113281 C 239.367188 314.496094 241.238281 313.511719 242.820312 312.242188 C 244.4375 311.015625 245.585938 309.300781 246.589844 307.554688 C 248.566406 304.019531 249.433594 299.929688 249.019531 295.941406 C 248.664062 291.933594 247.480469 288.011719 246.90625 283.875 C 246.621094 281.816406 246.558594 279.695312 246.867188 277.589844 C 247.164062 275.496094 247.859375 273.40625 249.089844 271.632812 L 249.960938 272.390625 C 247.644531 274.527344 245.601562 277.003906 244.097656 279.816406 C 242.570312 282.609375 241.46875 285.652344 240.859375 288.796875 C 240.222656 291.941406 240.046875 295.191406 240.390625 298.394531 C 240.699219 301.59375 241.550781 304.78125 241.273438 308.023438 Z M 241.273438 308.023438 C 241.496094 304.773438 240.601562 301.621094 240.238281 298.414062 C 239.878906 295.199219 239.882812 291.929688 240.40625 288.714844 C 240.898438 285.503906 241.882812 282.355469 243.339844 279.417969 C 244.773438 276.472656 246.761719 273.777344 249.179688 271.527344 L 252.855469 268.105469 L 250.050781 272.289062 C 248.964844 273.902344 248.359375 275.808594 248.117188 277.761719 C 247.867188 279.71875 247.957031 281.726562 248.175781 283.71875 C 248.636719 287.710938 249.839844 291.691406 250.054688 295.875 C 250.316406 300.054688 249.230469 304.300781 247.058594 307.824219 C 245.964844 309.566406 244.703125 311.28125 242.992188 312.476562 C 241.328125 313.675781 239.484375 314.636719 238.160156 316.203125 L 238.054688 316.117188 C 239.898438 313.832031 240.976562 310.953125 241.273438 308.023438 " fill-opacity="1" fill-rule="nonzero"/></g></g></g><g clip-path="url(#e7aa4bdec2)"><g clip-path="url(#698f9df775)"><g clip-path="url(#c7fb150582)"><path fill="#f8f7f4" d="M 253.21875 301.609375 C 252.972656 304.542969 251.941406 307.449219 250.105469 309.792969 L 250 309.703125 C 251.3125 308.082031 253.183594 307.097656 254.765625 305.832031 C 256.382812 304.601562 257.535156 302.886719 258.535156 301.140625 C 260.515625 297.605469 261.382812 293.519531 260.96875 289.53125 C 260.609375 285.523438 259.425781 281.59375 258.851562 277.464844 C 258.570312 275.398438 258.503906 273.28125 258.8125 271.179688 C 259.109375 269.085938 259.804688 266.996094 261.035156 265.21875 L 261.90625 265.976562 C 259.59375 268.113281 257.546875 270.59375 256.042969 273.398438 C 254.515625 276.191406 253.421875 279.234375 252.808594 282.386719 C 252.167969 285.527344 252 288.777344 252.335938 291.980469 C 252.644531 295.175781 253.496094 298.363281 253.21875 301.609375 Z M 253.21875 301.609375 C 253.449219 298.363281 252.546875 295.207031 252.183594 292 C 251.824219 288.785156 251.828125 285.515625 252.355469 282.304688 C 252.84375 279.089844 253.832031 275.941406 255.285156 273.003906 C 256.722656 270.0625 258.707031 267.367188 261.125 265.117188 L 264.800781 261.691406 L 261.996094 265.875 C 260.917969 267.492188 260.3125 269.394531 260.0625 271.347656 C 259.8125 273.308594 259.90625 275.316406 260.125 277.308594 C 260.582031 281.296875 261.789062 285.28125 262.007812 289.457031 C 262.269531 293.640625 261.175781 297.882812 259.003906 301.410156 C 257.910156 303.152344 256.652344 304.867188 254.941406 306.0625 C 253.273438 307.257812 251.429688 308.222656 250.105469 309.792969 L 250 309.703125 C 251.847656 307.417969 252.929688 304.535156 253.21875 301.609375 " fill-opacity="1" fill-rule="nonzero"/></g></g></g><g clip-path="url(#2ec6cf4e15)"><g clip-path="url(#422ee5397b)"><g clip-path="url(#fb1a88f34e)"><path fill="#f8f7f4" d="M 280.082031 283.9375 C 280.878906 286.765625 280.9375 289.855469 280.046875 292.6875 L 279.914062 292.640625 C 280.574219 290.664062 281.980469 289.085938 283.011719 287.34375 C 284.09375 285.625 284.566406 283.613281 284.894531 281.628906 C 285.503906 277.621094 284.871094 273.488281 283.082031 269.90625 C 281.339844 266.277344 278.847656 263.019531 276.863281 259.351562 C 275.867188 257.523438 275.0625 255.554688 274.613281 253.484375 C 274.152344 251.421875 274.066406 249.21875 274.59375 247.121094 L 275.675781 247.523438 C 274.265625 250.339844 273.21875 253.378906 272.800781 256.539062 C 272.355469 259.6875 272.394531 262.917969 272.933594 266.082031 C 273.4375 269.25 274.417969 272.355469 275.867188 275.234375 C 277.28125 278.117188 279.203125 280.800781 280.082031 283.9375 Z M 280.082031 283.9375 C 279.148438 280.816406 277.199219 278.179688 275.730469 275.304688 C 274.265625 272.421875 273.113281 269.359375 272.480469 266.167969 C 271.804688 262.988281 271.625 259.691406 271.953125 256.433594 C 272.257812 253.171875 273.171875 249.949219 274.644531 246.992188 L 276.878906 242.5 L 275.722656 247.398438 C 275.28125 249.289062 275.382812 251.285156 275.839844 253.199219 C 276.292969 255.125 277.089844 256.972656 277.992188 258.761719 C 279.828125 262.335938 282.355469 265.636719 284.023438 269.472656 C 285.742188 273.292969 286.21875 277.648438 285.425781 281.714844 C 285.011719 283.726562 284.4375 285.777344 283.257812 287.496094 C 282.113281 289.207031 280.730469 290.753906 280.046875 292.691406 L 279.914062 292.640625 C 280.835938 289.859375 280.835938 286.78125 280.082031 283.9375 " fill-opacity="1" fill-rule="nonzero"/></g></g></g><g clip-path="url(#dbecb5d9e1)"><g clip-path="url(#94e82c8199)"><g clip-path="url(#e556b2b612)"><path fill="#f8f7f4" d="M 287.386719 278.820312 C 287.675781 281.75 287.195312 284.796875 285.816406 287.429688 L 285.695312 287.367188 C 286.691406 285.53125 288.355469 284.222656 289.675781 282.691406 C 291.042969 281.191406 291.863281 279.292969 292.53125 277.390625 C 293.835938 273.558594 293.945312 269.378906 292.8125 265.535156 C 291.734375 261.65625 289.855469 258.015625 288.542969 254.054688 C 287.886719 252.078125 287.441406 250.003906 287.359375 247.882812 C 287.269531 245.769531 287.574219 243.585938 288.460938 241.613281 L 289.457031 242.203125 C 287.570312 244.726562 286.011719 247.535156 285.039062 250.566406 C 284.042969 253.59375 283.519531 256.785156 283.492188 259.988281 C 283.433594 263.199219 283.855469 266.425781 284.773438 269.515625 C 285.65625 272.601562 287.074219 275.582031 287.386719 278.820312 Z M 287.386719 278.820312 C 287.019531 275.589844 285.5625 272.648438 284.621094 269.558594 C 283.6875 266.464844 283.09375 263.246094 283.03125 259.996094 C 282.925781 256.742188 283.328125 253.46875 284.226562 250.320312 C 285.101562 247.160156 286.5625 244.148438 288.53125 241.496094 L 291.523438 237.464844 L 289.527344 242.085938 C 288.753906 243.871094 288.507812 245.851562 288.621094 247.820312 C 288.730469 249.792969 289.1875 251.75 289.761719 253.667969 C 290.9375 257.511719 292.84375 261.207031 293.816406 265.273438 C 294.835938 269.34375 294.535156 273.710938 293.042969 277.574219 C 292.28125 279.488281 291.351562 281.402344 289.890625 282.886719 C 288.46875 284.367188 286.832031 285.652344 285.816406 287.429688 L 285.695312 287.367188 C 287.09375 284.78125 287.632812 281.753906 287.386719 278.820312 " fill-opacity="1" fill-rule="nonzero"/></g></g></g><g clip-path="url(#681c048cc0)"><g clip-path="url(#9a61c00067)"><g clip-path="url(#e86adb60db)"><path fill="#f8f7f4" d="M 300.230469 268.71875 C 301.046875 271.074219 301.242188 273.679688 300.625 276.128906 L 300.515625 276.089844 C 300.976562 274.386719 302.089844 272.980469 302.875 271.457031 C 303.710938 269.949219 304.015625 268.230469 304.1875 266.527344 C 304.507812 263.109375 303.777344 259.644531 302.089844 256.699219 C 300.4375 253.714844 298.171875 251.078125 296.308594 248.070312 C 295.382812 246.574219 294.601562 244.949219 294.121094 243.214844 C 293.632812 241.492188 293.453125 239.636719 293.800781 237.835938 L 294.738281 238.121094 C 293.675781 240.574219 292.941406 243.195312 292.738281 245.886719 C 292.511719 248.578125 292.710938 251.3125 293.316406 253.957031 C 293.898438 256.617188 294.878906 259.191406 296.242188 261.558594 C 297.582031 263.933594 299.332031 266.109375 300.230469 268.71875 Z M 300.230469 268.71875 C 299.292969 266.125 297.511719 263.988281 296.128906 261.625 C 294.75 259.257812 293.628906 256.722656 292.9375 254.054688 C 292.210938 251.390625 291.894531 248.617188 292.015625 245.84375 C 292.117188 243.070312 292.734375 240.292969 293.835938 237.722656 L 295.515625 233.800781 L 294.769531 238.015625 C 294.191406 241.308594 295.539062 244.621094 297.242188 247.515625 C 298.96875 250.449219 301.265625 253.121094 302.867188 256.289062 C 304.503906 259.4375 305.117188 263.101562 304.644531 266.578125 C 304.390625 268.300781 304.007812 270.066406 303.09375 271.578125 C 302.210938 273.082031 301.113281 274.460938 300.625 276.128906 L 300.507812 276.09375 C 301.160156 273.691406 301.007812 271.085938 300.230469 268.71875 " fill-opacity="1" fill-rule="nonzero"/></g></g></g><g clip-path="url(#531ea38ed3)"><g clip-path="url(#5e2b034f58)"><g clip-path="url(#c43ab597b4)"><path fill="#f8f7f4" d="M 309.992188 255.265625 C 311.109375 257.445312 311.664062 259.945312 311.40625 262.410156 L 311.292969 262.394531 C 311.503906 260.667969 312.390625 259.152344 312.941406 257.558594 C 313.542969 255.984375 313.59375 254.265625 313.53125 252.589844 C 313.363281 249.226562 312.171875 245.960938 310.117188 243.332031 C 308.101562 240.660156 305.53125 238.421875 303.308594 235.757812 C 302.191406 234.425781 301.214844 232.960938 300.503906 231.347656 C 299.789062 229.738281 299.351562 227.960938 299.441406 226.160156 L 300.390625 226.3125 C 299.699219 228.839844 299.347656 231.492188 299.527344 234.136719 C 299.6875 236.78125 300.257812 239.402344 301.21875 241.898438 C 302.152344 244.394531 303.460938 246.761719 305.117188 248.871094 C 306.746094 250.988281 308.753906 252.859375 309.992188 255.265625 Z M 309.992188 255.265625 C 308.714844 252.878906 306.6875 251.050781 305.019531 248.949219 C 303.347656 246.84375 301.90625 244.539062 300.859375 242.039062 C 299.785156 239.554688 299.089844 236.902344 298.820312 234.1875 C 298.535156 231.480469 298.746094 228.703125 299.457031 226.050781 L 300.539062 222.003906 L 300.40625 226.203125 C 300.296875 229.484375 302.070312 232.511719 304.132812 235.089844 C 306.214844 237.695312 308.820312 239.972656 310.816406 242.824219 C 312.847656 245.660156 313.953125 249.128906 313.976562 252.578125 C 313.976562 254.285156 313.847656 256.046875 313.167969 257.644531 C 312.519531 259.226562 311.648438 260.722656 311.40625 262.410156 L 311.292969 262.394531 C 311.585938 259.96875 311.078125 257.460938 309.992188 255.265625 " fill-opacity="1" fill-rule="nonzero"/></g></g></g><g clip-path="url(#3500f03d8d)"><g clip-path="url(#955e69c58d)"><g clip-path="url(#00f8e77f8f)"><path fill="#f8f7f4" d="M 323.167969 219.421875 C 324.648438 220.570312 325.839844 222.128906 326.449219 223.914062 L 326.367188 223.941406 C 325.957031 222.679688 326.085938 221.34375 325.957031 220.0625 C 325.859375 218.769531 325.347656 217.566406 324.761719 216.421875 C 323.566406 214.140625 321.6875 212.261719 319.417969 211.101562 C 317.15625 209.902344 314.652344 209.171875 312.253906 208.046875 C 309.890625 206.929688 307.554688 205.203125 306.484375 202.632812 L 307.1875 202.433594 C 307.527344 204.40625 308.136719 206.359375 309.113281 208.136719 C 310.070312 209.914062 311.316406 211.554688 312.78125 212.972656 C 314.234375 214.402344 315.90625 215.625 317.730469 216.554688 C 319.542969 217.5 321.535156 218.148438 323.167969 219.421875 Z M 323.167969 219.421875 C 321.519531 218.171875 319.523438 217.558594 317.6875 216.640625 C 315.851562 215.71875 314.109375 214.582031 312.578125 213.1875 C 309.507812 210.441406 307.175781 206.707031 306.457031 202.550781 L 305.917969 199.417969 L 307.167969 202.351562 C 308.148438 204.660156 310.355469 206.1875 312.609375 207.3125 C 314.894531 208.453125 317.4375 209.191406 319.738281 210.523438 C 322.058594 211.835938 323.941406 213.886719 325.070312 216.269531 C 325.617188 217.457031 326.09375 218.722656 326.136719 220.050781 C 326.199219 221.355469 326.078125 222.667969 326.449219 223.914062 L 326.367188 223.941406 C 325.789062 222.167969 324.628906 220.59375 323.167969 219.421875 " fill-opacity="1" fill-rule="nonzero"/></g></g></g><g clip-path="url(#bca9c35ff8)"><g clip-path="url(#269f99189e)"><g clip-path="url(#292a531131)"><path fill="#f8f7f4" d="M 324.867188 214.089844 C 326.34375 215.242188 327.539062 216.796875 328.148438 218.585938 L 328.0625 218.613281 C 327.65625 217.351562 327.777344 216.015625 327.65625 214.734375 C 327.558594 213.441406 327.046875 212.238281 326.460938 211.09375 C 325.265625 208.816406 323.382812 206.933594 321.113281 205.777344 C 318.855469 204.574219 316.351562 203.84375 313.953125 202.714844 C 311.582031 201.601562 309.25 199.878906 308.179688 197.304688 L 308.886719 197.105469 C 309.21875 199.078125 309.835938 201.027344 310.808594 202.804688 C 311.769531 204.585938 313.007812 206.226562 314.480469 207.640625 C 315.929688 209.074219 317.601562 210.292969 319.429688 211.222656 C 321.242188 212.167969 323.234375 212.816406 324.867188 214.089844 Z M 324.867188 214.089844 C 323.214844 212.84375 321.222656 212.230469 319.386719 211.3125 C 317.550781 210.386719 315.804688 209.253906 314.277344 207.855469 C 311.207031 205.113281 308.875 201.382812 308.15625 197.222656 L 307.617188 194.09375 L 308.867188 197.019531 C 309.847656 199.328125 312.050781 200.859375 314.304688 201.984375 C 316.59375 203.125 319.132812 203.863281 321.433594 205.195312 C 323.757812 206.503906 325.640625 208.558594 326.765625 210.9375 C 327.316406 212.125 327.792969 213.390625 327.835938 214.71875 C 327.898438 216.023438 327.769531 217.339844 328.148438 218.585938 L 328.0625 218.613281 C 327.488281 216.835938 326.328125 215.261719 324.867188 214.089844 " fill-opacity="1" fill-rule="nonzero"/></g></g></g><g clip-path="url(#4f27d4e795)"><g clip-path="url(#547c9bce33)"><g clip-path="url(#33e31f5d97)"><path fill="#f8f7f4" d="M 320.851562 230.476562 C 322.328125 231.625 323.519531 233.1875 324.136719 234.972656 L 324.050781 235 C 323.640625 233.738281 323.765625 232.398438 323.636719 231.117188 C 323.542969 229.828125 323.027344 228.621094 322.445312 227.480469 C 321.246094 225.199219 319.367188 223.320312 317.101562 222.160156 C 314.839844 220.957031 312.339844 220.230469 309.933594 219.097656 C 307.570312 217.988281 305.238281 216.261719 304.164062 213.691406 L 304.871094 213.492188 C 305.207031 215.464844 305.816406 217.410156 306.792969 219.1875 C 307.753906 220.972656 308.996094 222.609375 310.460938 224.03125 C 311.917969 225.460938 313.589844 226.683594 315.417969 227.609375 C 317.226562 228.550781 319.21875 229.207031 320.851562 230.476562 Z M 320.851562 230.476562 C 319.199219 229.230469 317.203125 228.613281 315.367188 227.699219 C 313.53125 226.777344 311.792969 225.636719 310.261719 224.246094 C 307.1875 221.496094 304.855469 217.765625 304.140625 213.609375 L 303.597656 210.476562 L 304.847656 213.410156 C 305.832031 215.71875 308.035156 217.246094 310.292969 218.371094 C 312.578125 219.511719 315.121094 220.25 317.421875 221.582031 C 319.742188 222.894531 321.625 224.945312 322.753906 227.328125 C 323.300781 228.511719 323.777344 229.78125 323.824219 231.101562 C 323.878906 232.40625 323.757812 233.722656 324.136719 234.972656 L 324.050781 235 C 323.472656 233.226562 322.308594 231.644531 320.851562 230.476562 " fill-opacity="1" fill-rule="nonzero"/></g></g></g><g clip-path="url(#6140637609)"><g clip-path="url(#b662290553)"><g clip-path="url(#a6349006aa)"><path fill="#f8f7f4" d="M 316.726562 242.253906 C 318.066406 243.566406 319.074219 245.246094 319.480469 247.09375 L 319.394531 247.109375 C 319.128906 245.808594 319.40625 244.492188 319.425781 243.207031 C 319.476562 241.914062 319.101562 240.65625 318.652344 239.457031 C 317.71875 237.054688 316.066406 234.976562 313.941406 233.5625 C 311.832031 232.113281 309.429688 231.109375 307.171875 229.710938 C 304.945312 228.34375 302.820312 226.363281 302.050781 223.6875 L 302.773438 223.570312 C 302.886719 225.566406 303.269531 227.570312 304.039062 229.449219 C 304.789062 231.328125 305.835938 233.097656 307.136719 234.667969 C 308.414062 236.257812 309.9375 237.660156 311.648438 238.792969 C 313.34375 239.929688 315.25 240.804688 316.726562 242.253906 Z M 316.726562 242.253906 C 315.226562 240.832031 313.3125 239.992188 311.59375 238.871094 C 309.875 237.742188 308.273438 236.417969 306.914062 234.859375 C 304.171875 231.785156 302.277344 227.8125 302.03125 223.597656 L 301.851562 220.433594 L 302.761719 223.480469 C 303.476562 225.886719 305.492188 227.652344 307.609375 229.027344 C 309.75 230.417969 312.191406 231.441406 314.324219 233.027344 C 316.488281 234.59375 318.121094 236.84375 318.972656 239.335938 C 319.382812 240.578125 319.71875 241.894531 319.609375 243.210938 C 319.523438 244.515625 319.25 245.808594 319.480469 247.09375 L 319.394531 247.109375 C 319.023438 245.28125 318.046875 243.582031 316.726562 242.253906 " fill-opacity="1" fill-rule="nonzero"/></g></g></g><g clip-path="url(#62b3bd114c)"><g clip-path="url(#07daf66f74)"><g clip-path="url(#03c6037380)"><path fill="#f8f7f4" d="M 266.394531 294.589844 C 266.523438 297.023438 265.996094 299.53125 264.753906 301.660156 L 264.65625 301.597656 C 265.554688 300.121094 266.984375 299.101562 268.140625 297.886719 C 269.335938 296.695312 270.089844 295.152344 270.71875 293.609375 C 271.953125 290.480469 272.203125 287.019531 271.421875 283.789062 C 270.683594 280.53125 269.265625 277.4375 268.335938 274.105469 C 267.867188 272.4375 267.578125 270.699219 267.597656 268.941406 C 267.609375 267.183594 267.945312 265.390625 268.757812 263.789062 L 269.5625 264.320312 C 267.898438 266.332031 266.492188 268.597656 265.570312 271.074219 C 264.628906 273.542969 264.066406 276.167969 263.910156 278.824219 C 263.738281 281.480469 263.957031 284.171875 264.597656 286.769531 C 265.203125 289.363281 266.261719 291.886719 266.394531 294.589844 Z M 266.394531 294.589844 C 266.21875 291.890625 265.128906 289.398438 264.472656 286.800781 C 263.820312 284.199219 263.457031 281.507812 263.527344 278.8125 C 263.574219 276.113281 264.035156 273.414062 264.898438 270.835938 C 265.753906 268.257812 267.085938 265.816406 268.820312 263.695312 L 271.46875 260.464844 L 269.621094 264.222656 C 268.175781 267.164062 268.546875 270.640625 269.359375 273.832031 C 270.183594 277.0625 271.617188 280.203125 272.261719 283.617188 C 272.949219 287.023438 272.523438 290.632812 271.132812 293.777344 C 270.425781 295.328125 269.578125 296.882812 268.308594 298.058594 C 267.074219 299.230469 265.664062 300.226562 264.753906 301.660156 L 264.65625 301.597656 C 265.914062 299.515625 266.484375 297.027344 266.394531 294.589844 " fill-opacity="1" fill-rule="nonzero"/></g></g></g><g clip-path="url(#bc3a8062dd)"><g clip-path="url(#d2f113a211)"><g clip-path="url(#daee087f0a)"><path fill="#f8f7f4" d="M 325.105469 208.417969 C 324.519531 208.082031 324.003906 207.648438 323.464844 207.25 L 321.867188 206.023438 L 321.851562 206.003906 L 321.835938 205.976562 L 321.808594 205.921875 C 321.796875 205.894531 321.8125 205.933594 321.828125 205.941406 C 321.867188 205.949219 321.839844 205.957031 321.738281 205.933594 L 321.722656 205.925781 L 321.699219 205.90625 C 319.128906 203.578125 316.625 201.082031 314.910156 197.988281 C 313.136719 194.964844 312 191.519531 311.75 187.980469 C 311.507812 184.441406 312.078125 180.882812 313.226562 177.554688 C 314.398438 174.214844 315.996094 171.066406 318.199219 168.242188 L 318.769531 167.519531 L 319.214844 168.332031 C 320.65625 170.921875 323.117188 172.796875 325.628906 174.550781 C 328.132812 176.320312 330.839844 178.066406 332.78125 180.648438 C 334.660156 183.238281 335.847656 186.230469 336.382812 189.328125 C 336.933594 192.429688 336.691406 195.652344 335.75 198.621094 L 335.746094 198.632812 L 333.660156 202.6875 L 333.640625 202.734375 L 333.65625 202.6875 L 335.476562 198.53125 L 335.476562 198.539062 C 336.261719 195.566406 336.273438 192.441406 335.683594 189.460938 C 335.078125 186.496094 333.820312 183.628906 331.980469 181.265625 C 330.105469 178.929688 327.535156 177.226562 324.976562 175.488281 C 322.445312 173.75 319.78125 171.804688 318.140625 168.945312 L 319.160156 169.03125 C 317.132812 171.6875 315.464844 174.746094 314.328125 177.9375 C 313.191406 181.128906 312.617188 184.535156 312.8125 187.917969 C 312.945312 191.296875 313.925781 194.632812 315.550781 197.628906 C 317.140625 200.65625 319.441406 203.277344 321.871094 205.699219 L 321.835938 205.683594 C 321.804688 205.6875 321.859375 205.660156 321.96875 205.710938 C 322.015625 205.738281 322.050781 205.816406 322.050781 205.820312 L 322.070312 205.871094 L 322.035156 205.824219 L 323.554688 207.136719 C 324.0625 207.574219 324.546875 208.046875 325.105469 208.417969 " fill-opacity="1" fill-rule="nonzero"/></g></g></g><g clip-path="url(#70df7d453d)"><g clip-path="url(#80b7c81cb8)"><g clip-path="url(#6ee997d35f)"><path fill="#f8f7f4" d="M 325.105469 208.417969 L 324.351562 207.84375 L 324.363281 207.847656 L 324.3125 207.832031 L 324.300781 207.828125 L 324.296875 207.8125 C 324.265625 207.765625 324.28125 207.765625 324.238281 207.753906 L 324.230469 207.753906 L 324.230469 207.75 L 323.808594 207.390625 L 323.804688 207.375 L 323.773438 207.3125 L 323.792969 207.335938 C 323.242188 206.953125 322.75 206.492188 322.289062 206.007812 L 322.335938 206.039062 L 322.265625 206.015625 L 322.253906 206 C 321.433594 205.148438 320.757812 204.242188 320 203.359375 C 319.640625 202.90625 319.378906 202.386719 319.0625 201.894531 C 318.765625 201.398438 318.4375 200.914062 318.238281 200.363281 L 317.546875 198.757812 L 317.09375 197.066406 C 316.90625 196.507812 316.886719 195.917969 316.800781 195.339844 L 316.691406 194.46875 C 316.675781 194.175781 316.6875 193.882812 316.6875 193.589844 C 316.667969 191.242188 317.136719 188.914062 317.945312 186.726562 C 318.777344 184.546875 319.851562 182.472656 321.320312 180.605469 L 321.71875 180.09375 L 322.039062 180.671875 C 322.980469 182.375 324.554688 183.65625 326.195312 184.820312 C 327.839844 185.992188 329.621094 187.101562 331.027344 188.683594 C 332.441406 190.273438 333.320312 192.195312 333.894531 194.1875 C 334.457031 196.183594 334.539062 198.296875 334.238281 200.324219 L 334.242188 200.335938 L 334.199219 200.441406 L 334.199219 200.429688 L 333.855469 201.710938 C 333.78125 201.921875 333.757812 202.152344 333.648438 202.347656 L 333.347656 202.941406 L 333.332031 202.988281 L 333.347656 202.941406 L 333.601562 202.324219 C 333.695312 202.125 333.703125 201.898438 333.753906 201.6875 L 334.019531 200.386719 L 334.019531 200.378906 L 334.023438 200.371094 L 334.058594 200.277344 L 334.050781 200.296875 C 334.25 198.28125 334.003906 196.242188 333.414062 194.324219 C 332.804688 192.433594 331.863281 190.578125 330.507812 189.15625 C 329.128906 187.734375 327.425781 186.640625 325.734375 185.484375 C 324.058594 184.324219 322.351562 182.984375 321.273438 181.097656 L 321.996094 181.164062 C 319.347656 184.714844 317.464844 189.097656 317.453125 193.59375 C 317.46875 195.808594 317.773438 198.09375 318.742188 200.140625 C 318.921875 200.683594 319.214844 201.160156 319.496094 201.652344 C 319.78125 202.136719 320.027344 202.652344 320.351562 203.117188 C 321.035156 204.011719 321.699219 204.980469 322.40625 205.816406 L 322.375 205.796875 L 322.421875 205.816406 L 322.453125 205.828125 L 322.46875 205.84375 C 322.898438 206.351562 323.351562 206.828125 323.867188 207.238281 L 323.882812 207.25 L 323.890625 207.257812 L 323.914062 207.328125 L 323.898438 207.304688 L 324.277344 207.683594 L 324.269531 207.675781 C 324.308594 207.683594 324.359375 207.757812 324.363281 207.78125 L 324.34375 207.765625 L 324.386719 207.785156 L 324.394531 207.789062 L 324.398438 207.789062 L 325.105469 208.417969 " fill-opacity="1" fill-rule="nonzero"/></g></g></g><g clip-path="url(#3391e07892)"><g clip-path="url(#589eaf5123)"><g clip-path="url(#fe7f2167ba)"><path fill="#f8f7f4" d="M 330.105469 206.660156 C 330.097656 206.546875 330.175781 206.472656 330.195312 206.421875 C 330.210938 206.375 330.25 206.285156 330.3125 206.253906 C 330.703125 205.234375 331.25 204.375 331.929688 203.570312 C 332.53125 202.84375 333.253906 202.210938 333.855469 201.480469 C 333.941406 201.40625 333.957031 201.359375 334.039062 201.289062 C 335.257812 199.777344 335.894531 197.835938 335.910156 195.863281 C 335.726562 197.453125 335.089844 198.96875 334.144531 200.3125 C 334.144531 200.3125 334.128906 200.355469 334.113281 200.402344 C 333.640625 201.078125 333.09375 201.667969 332.5 202.242188 C 330.914062 203.714844 329.75 205.503906 329.117188 207.558594 C 328.824219 208.460938 328.496094 209.453125 328.320312 210.457031 C 328.351562 210.519531 328.316406 210.617188 328.300781 210.660156 C 328.269531 211.019531 328.234375 211.382812 328.265625 211.714844 C 328.234375 211.808594 328.257812 211.871094 328.273438 211.984375 C 328.570312 211.617188 328.78125 211.058594 328.886719 210.515625 L 329.023438 210.03125 L 330.105469 206.660156 " fill-opacity="1" fill-rule="nonzero"/></g></g></g><g fill="#f8f7f4" fill-opacity="1"><g transform="translate(62.861191, 239.356876)"><g><path d="M 50.78125 1.703125 C 45.800781 1.703125 40.363281 0.34375 34.46875 -2.375 C 28.582031 -5.09375 23.320312 -8.546875 18.6875 -12.734375 C 16.300781 -14.660156 14.117188 -15.679688 12.140625 -15.796875 C 10.160156 -15.910156 9.113281 -15.003906 9 -13.078125 L 8.828125 -9.6875 L 7.984375 -9.6875 L 7.984375 -34.46875 L 10.359375 -34.8125 L 11.546875 -33.453125 C 15.847656 -28.585938 19.523438 -24.3125 22.578125 -20.625 C 25.640625 -16.945312 27.707031 -14.285156 28.78125 -12.640625 C 29.863281 -11.003906 29.664062 -10.867188 28.1875 -12.234375 C 31.925781 -8.835938 35.832031 -6.0625 39.90625 -3.90625 C 43.988281 -1.75 47.613281 -0.671875 50.78125 -0.671875 C 54.738281 -0.671875 58.472656 -2.113281 61.984375 -5 C 65.492188 -7.894531 68.351562 -11.601562 70.5625 -16.125 C 72.769531 -20.65625 73.875 -25.414062 73.875 -30.40625 C 73.875 -32.894531 72.539062 -35.695312 69.875 -38.8125 C 67.21875 -41.925781 63.625 -45.007812 59.09375 -48.0625 C 54.570312 -51.113281 49.535156 -53.660156 43.984375 -55.703125 C 39.234375 -57.398438 34.816406 -59.863281 30.734375 -63.09375 C 26.660156 -66.320312 23.066406 -70 19.953125 -74.125 C 16.835938 -78.257812 14.398438 -82.535156 12.640625 -86.953125 C 10.890625 -91.367188 10.015625 -95.554688 10.015625 -99.515625 C 10.015625 -104.273438 11.035156 -108.863281 13.078125 -113.28125 C 15.117188 -117.695312 17.890625 -121.660156 21.390625 -125.171875 C 24.898438 -128.679688 28.863281 -131.484375 33.28125 -133.578125 C 37.695312 -135.671875 42.226562 -136.71875 46.875 -136.71875 C 51.96875 -136.71875 57.34375 -135.640625 63 -133.484375 C 68.664062 -131.335938 73.59375 -128.617188 77.78125 -125.328125 C 79.59375 -124.203125 81.207031 -123.523438 82.625 -123.296875 C 84.039062 -123.066406 84.804688 -123.40625 84.921875 -124.3125 L 85.078125 -126.1875 L 85.9375 -126.1875 L 85.9375 -107.671875 L 83.71875 -107.671875 L 82.53125 -109.03125 C 78.914062 -113.21875 75.4375 -117.148438 72.09375 -120.828125 C 68.75 -124.515625 66.625 -126.8125 65.71875 -127.71875 C 62.664062 -129.863281 59.492188 -131.585938 56.203125 -132.890625 C 52.921875 -134.191406 49.8125 -134.84375 46.875 -134.84375 C 43.707031 -134.84375 40.648438 -133.539062 37.703125 -130.9375 C 34.753906 -128.332031 32.375 -125.019531 30.5625 -121 C 28.757812 -116.976562 27.859375 -112.707031 27.859375 -108.1875 C 27.859375 -105.125 29.1875 -101.753906 31.84375 -98.078125 C 34.5 -94.398438 38.09375 -90.863281 42.625 -87.46875 C 47.15625 -84.070312 52.195312 -81.351562 57.75 -79.3125 C 62.5 -77.613281 66.96875 -75.148438 71.15625 -71.921875 C 75.34375 -68.691406 79.019531 -65.09375 82.1875 -61.125 C 85.363281 -57.164062 87.828125 -53.0625 89.578125 -48.8125 C 91.335938 -44.570312 92.21875 -40.585938 92.21875 -36.859375 C 92.21875 -31.984375 91.054688 -27.253906 88.734375 -22.671875 C 86.410156 -18.085938 83.265625 -13.953125 79.296875 -10.265625 C 75.335938 -6.585938 70.894531 -3.671875 65.96875 -1.515625 C 61.050781 0.628906 55.988281 1.703125 50.78125 1.703125 Z M 50.78125 1.703125 "/></g></g><g transform="translate(161.704549, 239.356876)"><g><path d="M 14.609375 0 L 14.609375 -134.84375 L 54.859375 -134.84375 C 61.421875 -134.84375 67.816406 -133.765625 74.046875 -131.609375 C 80.273438 -129.460938 85.847656 -126.550781 90.765625 -122.875 C 95.691406 -119.195312 99.597656 -115.09375 102.484375 -110.5625 C 105.378906 -106.03125 106.828125 -101.332031 106.828125 -96.46875 C 106.828125 -91.820312 105.492188 -87.488281 102.828125 -83.46875 C 100.171875 -79.445312 96.578125 -75.9375 92.046875 -72.9375 C 87.515625 -69.9375 82.363281 -67.53125 76.59375 -65.71875 C 78.519531 -62.78125 81.347656 -58.476562 85.078125 -52.8125 C 88.816406 -47.15625 93.0625 -40.703125 97.8125 -33.453125 C 102.570312 -26.210938 107.441406 -18.6875 112.421875 -10.875 C 114.347656 -7.925781 116.160156 -5.660156 117.859375 -4.078125 C 119.554688 -2.492188 121.507812 -1.414062 123.71875 -0.84375 C 125.925781 -0.28125 128.671875 0 131.953125 0 C 121.316406 0 112.96875 -0.28125 106.90625 -0.84375 C 100.851562 -1.414062 96.238281 -2.492188 93.0625 -4.078125 C 89.894531 -5.660156 87.347656 -7.925781 85.421875 -10.875 C 80.890625 -17.894531 76.441406 -24.828125 72.078125 -31.671875 C 67.722656 -38.523438 63.929688 -44.695312 60.703125 -50.1875 C 57.484375 -55.675781 55.140625 -59.78125 53.671875 -62.5 L 37.53125 -62.5 L 37.53125 0 Z M 37.53125 -68.265625 L 54.859375 -68.265625 C 59.378906 -68.265625 63.648438 -69.679688 67.671875 -72.515625 C 71.691406 -75.347656 75.003906 -79.222656 77.609375 -84.140625 C 80.210938 -89.066406 81.515625 -94.703125 81.515625 -101.046875 C 81.515625 -106.023438 79.898438 -110.722656 76.671875 -115.140625 C 73.453125 -119.554688 69.289062 -123.179688 64.1875 -126.015625 C 59.09375 -128.847656 53.71875 -130.265625 48.0625 -130.265625 L 37.53125 -130.265625 Z M 37.53125 -68.265625 "/></g></g></g></svg>